<?xml version="1.0" standalone="no"?>
<!DOCTYPE svg PUBLIC "-//W3C//DTD SVG 1.1//EN" "http://www.w3.org/Graphics/SVG/1.1/DTD/svg11.dtd" >
<svg>
<metadata>
Created by FontForge 20090914 at Fri Sep 11 19:21:15 2015
 By www-data
Copyright &#194;&#169; 2010 Cleanvertising. All Rights Reserved. 
</metadata>
<defs>
<font id="Cleanvertising-Black" horiz-adv-x="300" >
  <font-face 
    font-family="Cleanvertising"
    font-weight="900"
    font-stretch="normal"
    units-per-em="1000"
    panose-1="2 11 8 3 3 4 3 2 2 4"
    ascent="750"
    descent="-250"
    x-height="492"
    cap-height="674"
    bbox="-116 -251 1313 1152"
    underline-thickness="50"
    underline-position="-50"
    unicode-range="U+0020-U+FB04"
  />
<missing-glyph horiz-adv-x="500" 
d="M0 700h500v-700h-500v700zM420 650h-340l170 -255zM450 95v510l-170 -255zM420 50l-170 255l-170 -255h340zM50 95l170 255l-170 255v-510z" />
    <glyph glyph-name=".notdef" horiz-adv-x="500" 
d="M0 700h500v-700h-500v700zM420 650h-340l170 -255zM450 95v510l-170 -255zM420 50l-170 255l-170 -255h340zM50 95l170 255l-170 255v-510z" />
    <glyph glyph-name="space" unicode=" " horiz-adv-x="198" 
 />
    <glyph glyph-name="space" unicode="&#xa0;" horiz-adv-x="198" 
 />
    <glyph glyph-name="exclam" unicode="!" horiz-adv-x="284" 
d="M75 233l-26 441h186l-26 -441h-134zM141 -11c-68 0 -101.999 34.333 -101.999 103c0 69.333 34 104 102 104c67.333 0 101.666 -34.667 102.999 -104c0 -68.667 -34 -103 -102 -103h-1z" />
    <glyph glyph-name="quotedbl" unicode="&#x22;" horiz-adv-x="423" 
d="M185 693l-26 -285h-104l-26 285h156zM395 693l-26 -285h-104l-26 285h156z" />
    <glyph glyph-name="numbersign" unicode="#" horiz-adv-x="554" 
d="M290 663l1.00098 -1h1l-27 -168h88c16 110.667 24.667 167 26 169h101l1 -1h1l-25 -168h78l1 -1v-106l-1 -2h-95l-16 -99h80l2 -1v-106l-2 -2h-98l-26 -172h-104v0l26 172h-86l-26 -172h-104v0l26 172h-80l-2 2v106l2 1h98c1.33301 0 4 16 8 48l8 51h-83l-2 2v106l2 1
h100v1c15.333 106 23.666 162 24.999 168h102zM246.001 379l-14 -99h85l16 99h-87z" />
    <glyph glyph-name="dollar" unicode="$" horiz-adv-x="573" 
d="M228 -88l-0.000976562 93.001c-69.333 2.66699 -128.333 16.667 -177 42l33 139c26 -12.667 52.333 -22.667 79 -30c32.667 -9.33301 64.667 -14 96 -14c57.333 0 86 15.333 86 46c0 27.333 -34.667 51.666 -104 72.999c-59.333 19.333 -103.666 42.333 -132.999 69
c-34.667 31.333 -52 70.666 -52 117.999c0 100 59 162 177 186v92h114v-84c32 -1.33301 61.333 -5 88 -11c22 -5.33301 43 -12.333 63 -21l-32 -133l-24 10c-11.333 4.66699 -22.333 8.33398 -33 11.001c-30 8.66699 -61.333 13 -94 13c-51.333 0 -77 -14.333 -77 -43
c0 -21.333 39.333 -46 118 -74c114.667 -37.333 172 -100.333 172 -189c0 -105.333 -62 -169 -186 -191v-102h-114z" />
    <glyph glyph-name="percent" unicode="%" horiz-adv-x="958" 
d="M228 679h9.99805c23.333 0 45 -3.66699 65 -11v-1l-54 -89c-5.33301 2.66699 -11 4 -17 4h-4c-27.333 0 -44.666 -21 -51.999 -63c-2.66699 -14.667 -4 -29.334 -4 -44.001c0 -52.667 13.333 -86 40 -100c6.66699 -2.66699 13.334 -4 20.001 -4c23.333 0 39.333 15 48 45
c4.66699 17.333 7 35.333 7 54v11c0 18 -2.33301 36.333 -7 55l64 110h3c49.333 -38 74 -92.333 74 -163c0 -79.333 -29.667 -139.333 -89 -180c-32 -20 -66.667 -30 -104 -30h-2c-70 0 -124 30.667 -162 92c-17.333 33.333 -26 67.333 -26 102v8
c0 70.667 27 127.334 81 170.001c32.667 22.667 69 34 109 34zM708.998 678c-4 -10 -47.666 -89.666 -130.999 -238.999c-154.667 -282.667 -235.334 -429.334 -242.001 -440.001h-94v0l374 679h93zM721.999 406.001l12.999 0.000976562
c62.667 0 112.334 -26.333 149.001 -79c21.333 -34.667 32 -73.667 32 -117c0 -90.667 -37.667 -155.334 -113 -194.001c-26.667 -11.333 -54 -17 -82 -17c-24 0 -45.667 4 -65 12l53 88l17 -2c30.667 0 48.667 26 54 78l1 23v10
c-0.666992 53.333 -13.334 85.666 -38.001 96.999c-5.33301 2 -10.666 3 -15.999 3h-5c-27.333 0 -45 -21.667 -53 -65c-1.33301 -11.333 -2.33301 -24.666 -3 -39.999c0 -22 3.33301 -44 10 -66v-1l-62 -104h-2c-53.333 40 -80 94.333 -80 163v10c0 50 16 95 48 135
c38 44 85.333 66 142 66z" />
    <glyph glyph-name="ampersand" unicode="&#x26;" horiz-adv-x="729" 
d="M338 692c31.333 0 66.666 -10 105.999 -30c50.667 -33.333 76 -79 76 -137c0 -70.667 -43 -128 -129 -172v-3c41.333 -48 71.333 -81.333 90 -100c14.667 23.333 26.334 48 35.001 74c8 20 14.667 45.333 20 76l1 1h159l1 -1h1c-8 -41.333 -17.667 -78.333 -29 -111
c-21.333 -58 -51.333 -108 -90 -150l122 -139v-1h-195l-274 289c-24.667 -21.333 -37 -44.666 -37 -69.999v-9c0 -24 10 -45.667 30 -65c20 -16 44 -24 72 -24l25 1l98 -101c-42.667 -21.333 -92 -32 -148 -32c-114 0 -191.333 38.667 -232 116
c-12 24.667 -18 48.667 -18 72v11c0 79.333 43 143 129 191v1c-34 39.333 -51 82 -51 128c0 54.667 24 101.667 72 141c15.333 11.333 31.333 20.666 48 27.999c20 7.33301 42.667 12.666 68 15.999v-1v-117c-16 -13.333 -24 -28.666 -24 -45.999v-8
c0 -26 14.667 -53.667 44 -83c38 26.667 57 55 57 85c0 23.333 -9.66699 41.333 -29 54v115c0 0.666992 0.666992 1 2 1z" />
    <glyph glyph-name="quotesingle" unicode="'" horiz-adv-x="213" 
d="M185 693l-26 -285h-104l-26 285h156z" />
    <glyph glyph-name="parenleft" unicode="(" horiz-adv-x="328" 
d="M286 690c-26.667 -49.333 -47.666 -105.334 -62.999 -168.001c-18 -73.333 -27 -151.666 -27 -234.999c0 -82 9 -159.333 27 -232c15.333 -63.333 36.333 -120 63 -170h-122c-13.333 20.667 -25.666 43.334 -36.999 68.001c-13.333 28 -25 58 -35 90
c-10.667 35.333 -19 72.333 -25 111c-6.66699 42.667 -10 87 -10 133s3.33301 90.667 10 134c6 39.333 14.667 76.666 26 111.999c9.33301 31.333 20.666 61.333 33.999 90c11.333 24 23.666 46.333 36.999 67h122z" />
    <glyph glyph-name="parenright" unicode=")" horiz-adv-x="328" 
d="M41 -115c26.667 49.333 47.667 105.667 63 169c18 73.333 27 151.333 27 234s-9 160.334 -27 233.001c-15.333 63.333 -36.333 119.666 -63 168.999h122c13.333 -20.667 25.666 -43 36.999 -67c13.333 -28 25 -57.667 35 -89c10.667 -36 19 -73.333 25 -112
c6.66699 -43.333 10 -88 10 -134s-3.33301 -90.667 -10 -134c-6 -38.667 -14.333 -75.667 -25 -111c-10 -31.333 -21.667 -61.333 -35 -90c-11.333 -24 -23.666 -46.667 -36.999 -68h-122z" />
    <glyph glyph-name="asterisk" unicode="*" horiz-adv-x="471" 
d="M391 628l-113 -128l1 -3l163 38v-115l-165 30l-1 -2l115 -125l-100 -58l-57 161l-2 -1l-54 -160l-99 58l113 127l-1 1l-161 -31v115l159 -38l1 3l-111 128l101 57l53 -159h3l56 159z" />
    <glyph glyph-name="plus" unicode="+" horiz-adv-x="596" 
d="M355 532v-211h202v-108h-202v-213h-113v213h-202v108h202v211h113z" />
    <glyph glyph-name="comma" unicode="," horiz-adv-x="283" 
d="M-5 -118c36.667 104 63 205.333 79 304l179 10c-38.667 -114 -85 -215.333 -139 -304z" />
    <glyph glyph-name="hyphen" unicode="-" horiz-adv-x="328" 
d="M298 318v-117h-268v117h268z" />
    <glyph glyph-name="hyphen" unicode="&#xad;" horiz-adv-x="328" 
d="M298 318v-117h-268v117h268z" />
    <glyph glyph-name="period" unicode="." horiz-adv-x="283" 
d="M151 -11c-68 0 -101.999 35 -101.999 105s34.333 105 103 105c67.333 0 101.666 -35 102.999 -105c0 -70 -34.333 -105 -103 -105h-1z" />
    <glyph glyph-name="slash" unicode="/" horiz-adv-x="326" 
d="M24 -40l186 725h115l-186 -725h-115z" />
    <glyph glyph-name="zero" unicode="0" horiz-adv-x="584" 
d="M260 681l1.00195 -0.999023v-141c-18 -12.667 -31 -32 -39 -58c-10.667 -34 -16 -82 -16 -144c0 -103.333 16.333 -167 49 -191c10 -6 19.333 -9 28 -9c50.667 0 76 68.667 76 206c0 104.667 -16.333 169 -49 193l-1 1v142l1 2c30 -2 61.333 -11.333 94 -28
c48.667 -26.667 85.334 -73 110.001 -139c18.667 -51.333 28 -105.333 28 -162v-19c0 -116 -31 -206.333 -93 -271c-26.667 -22.667 -51.334 -38 -74.001 -46c-28.667 -10 -59.334 -15 -92.001 -15h-1c-120 0 -200 64.667 -240 194c-12 45.333 -18 91 -18 137v14
c0 119.333 32.333 211.333 97 276c37.333 31.333 73.666 49.666 108.999 54.999c14 2.66699 24 4 30 4z" />
    <glyph glyph-name="one" unicode="1" horiz-adv-x="498" 
d="M202 491h-2l-128 -58l-29 135l186 82h147v-650h-174v491z" />
    <glyph glyph-name="two" unicode="2" horiz-adv-x="573" 
d="M41 0v109.001l90 79l87 78c26 24 46.667 45.333 62 64c33.333 39.333 50.333 74.666 51 105.999c0 54 -32.333 81 -97 81c-24.667 0 -50 -5.66699 -76 -17c-20.667 -8.66699 -41.667 -20.667 -63 -36l-49 129c26.667 20 58.667 36 96 48c41.333 13.333 84 20 128 20
c75.333 0 134.333 -19 177 -57c42.667 -37.333 64 -88.333 64 -153c0 -47.333 -15.667 -94.333 -47 -141c-12.667 -19.333 -28.667 -39 -48 -59c-16 -16.667 -34.667 -33.667 -56 -51l-64 -50v-2h226v-148h-481z" />
    <glyph glyph-name="three" unicode="3" horiz-adv-x="573" 
d="M70 170c8 -4 16.999 -7.99902 26.999 -11.999c12.667 -4.66699 25.334 -9 38.001 -13c32.667 -9.33301 62.667 -14 90 -14c70.667 0 106 23 106 69c0 25.333 -11.667 45 -35 59c-20.667 12.667 -47 19 -79 19h-68v128h64c26.667 0 49.334 4.33301 68.001 13
c22.667 10 34 25.333 34 46c0 36.667 -29 55 -87 55c-24.667 0 -51.334 -4.33301 -80.001 -13c-22.667 -6.66699 -42.334 -14.667 -59.001 -24l-34 129c22 13.333 51.667 24.666 89 33.999c40.667 10 82.334 15 125.001 15c70 0 126.333 -16 169 -48c40 -30 60 -69 60 -117
c0 -72 -39.667 -122 -119 -150v-2c40 -6.66699 72.667 -23.667 98 -51c27.333 -28.667 41 -63 41 -103c0 -60 -25.333 -108.333 -76 -145c-50.667 -37.333 -118 -56 -202 -56c-42 0 -82 4.66699 -120 14c-34 8 -62 18.667 -84 32z" />
    <glyph glyph-name="four" unicode="4" horiz-adv-x="598" 
d="M483 632l1 -2v-324l-1 -1h-170l-1 1v64c0 26 1.33301 69.667 4 131h-4c-22.667 -52.667 -62 -133 -118 -241l-1 -2h363l1 -2v-133l-1 -1h-72v-147l-1 -1h-170l-1 1v147h-284l-2 1v115c1.33301 4.66699 37.333 67 108 187l121 207h228z" />
    <glyph glyph-name="five" unicode="5" horiz-adv-x="573" 
d="M494 502l-254 -0.000976562l-9 -70l19 2h18c77.333 0 139 -17.333 185 -52c48.667 -36.667 73 -90.667 73 -162c0 -63.333 -25.333 -116.666 -76 -159.999c-55.333 -47.333 -128.333 -71 -219 -71c-38.667 0 -75.667 3.66699 -111 11c-31.333 6.66699 -57.333 15 -78 25
l30 135c16.667 -8 38 -15 64 -21c30 -6.66699 58.333 -10 85 -10c32 0 59 6 81 18c26 14 39 35 39 63c0 61.333 -60.333 92 -181 92c-30 0 -59 -2 -87 -6l43 354h378v-148z" />
    <glyph glyph-name="six" unicode="6" horiz-adv-x="600" 
d="M451 660c20.667 0 30.999 -1.33301 30.999 -4v-136l-2 -1h-52c-114 0 -186.667 -39 -218 -117c-14.667 -37.333 -22 -80 -22 -128c0 -75.333 19 -124.333 57 -147c16 -9.33301 33.333 -14 52 -14h7c22.667 0 41.334 14.333 56.001 43c7.33301 16 11 32.667 11 50v12
c0 29.333 -10.667 54 -32 74c-15.333 10.667 -31.333 16 -48 16c-14.667 0 -30.334 -3 -47.001 -9v9c0 42.667 10.667 79.667 32 111c6.66699 8.66699 17.334 13 32.001 13c14.667 2.66699 28.667 4 42 4c71.333 0 128.333 -29.333 171 -88c23.333 -38 35 -77.667 35 -119
v-16c0 -64.667 -26.667 -122 -80 -172c-49.333 -40.667 -107 -61 -173 -61c-82.667 0 -149 26 -199 78c-49.333 56 -74 125.333 -74 208v10c0 104 33.667 194 101 270c32 30.667 59 51 81 61c58 35.333 137.667 53 239 53z" />
    <glyph glyph-name="seven" unicode="7" horiz-adv-x="573" 
d="M526 650v-112l-261 -538h-192l262 500v2h-289v148h480z" />
    <glyph glyph-name="eight" unicode="8" horiz-adv-x="569" 
d="M304 670c44 0 88 -11.9961 132 -35.9961c33.333 -22 56.333 -50.333 69 -85c5.33301 -16 8 -30.667 8 -44v-12c0 -45.333 -21.667 -85.666 -65 -120.999l-25 -16v-2c46 -17.333 78.667 -45.333 98 -84c12 -22.667 18 -47.334 18 -74.001v-5
c0 -76.667 -39.667 -134.334 -119 -173.001c-44 -18.667 -93 -28 -147 -28c-108.667 0 -186 34 -232 102c-15.333 26.667 -23 53 -23 79v7c0 52.667 21 95.667 63 129c30 -14.667 76 -36 138 -64l-11 -26c-2.66699 -10 -4 -18.333 -4 -25c0 -30 14.667 -53.667 44 -71
c12 -4.66699 22.667 -7 32 -7c31.333 0 53.666 13.667 66.999 41c2.66699 5.33301 4.33398 14.333 5.00098 27c0 42.667 -29.333 74.667 -88 96c-58 23.333 -97 40.333 -117 51c-72.667 42 -109 93 -109 153c0 74.667 41 130.667 123 168c38 13.333 69 20 93 20v-123
c0 -0.666992 -4.66699 -2.66699 -14 -6c-19.333 -13.333 -29 -31.333 -29 -54v-3c0 -28.667 24.333 -52.334 73 -71.001l7 -2c13.333 3.33301 26 12.666 38 27.999c8.66699 13.333 13 26.666 13 39.999c0 31.333 -13.667 53.333 -41 66v124c0 0.666992 1 1 3 1z" />
    <glyph glyph-name="nine" unicode="9" horiz-adv-x="578" 
d="M270 660l7.99707 0.00292969c104.667 0 180.667 -45.333 228 -136c20.667 -46 31 -95 31 -147v-7c0 -124 -35.667 -220.667 -107 -290c-70.667 -66.667 -170.334 -100 -299.001 -100h-6l-47 1v1v138v1v1c26 -5.33301 47.667 -8 65 -8h3c53.333 0 102 14.333 146 43
c55.333 38.667 83 115.667 83 231v1c0 71.333 -23 115.666 -69 132.999c-10.667 4 -22 6 -34 6h-3c-31.333 0 -53.666 -19 -66.999 -57c-2.66699 -11.333 -4 -23 -4 -35v-4c0 -42.667 16.667 -71.334 50 -86.001c9.33301 -2.66699 17.333 -4 24 -4h8
c10.667 0 21.334 2 32.001 6h1c-2.66699 -36 -6.66699 -61 -12 -75c-9.33301 -28.667 -22.666 -48 -39.999 -58c-21.333 -4.66699 -40.333 -7 -57 -7c-75.333 0 -130.666 35.333 -165.999 106c-14.667 32 -22 66 -22 102v8c0 67.333 29.333 126.666 88 177.999
c50.667 38.667 106 58 166 58z" />
    <glyph glyph-name="colon" unicode=":" horiz-adv-x="283" 
d="M151 299c-67.333 0 -101 34.667 -101 104s34 104 102 104c66.667 0 100.667 -34.667 102 -104c0 -69.333 -34 -104 -102 -104h-1zM151 -11c-67.333 0 -101 34.667 -101 104s34 104 102 104c66.667 0 100.667 -34.667 102 -104c0 -69.333 -34 -104 -102 -104h-1z" />
    <glyph glyph-name="semicolon" unicode=";" horiz-adv-x="283" 
d="M-4 -118c36.667 106 62.667 207.333 78 304l178 10c-38.667 -114 -85 -215.333 -139 -304zM155 299c-67.333 0 -101 34.667 -101 104s34 104 102 104c66.667 0 100.667 -34.667 102 -104c0 -69.333 -34 -104 -102 -104h-1z" />
    <glyph glyph-name="less" unicode="&#x3c;" horiz-adv-x="596" 
d="M54 315l488 216v-122l-352 -143v-2l352 -142v-122l-488 216v99z" />
    <glyph glyph-name="equal" unicode="=" horiz-adv-x="596" 
d="M40 319v108h516v-108h-516zM40 107v108h516v-108h-516z" />
    <glyph glyph-name="greater" unicode="&#x3e;" horiz-adv-x="596" 
d="M542 211l-488 -211v121l362 143v2l-362 144v121l488 -212v-108z" />
    <glyph glyph-name="question" unicode="?" horiz-adv-x="463" 
d="M136 231l-0.000976562 25.9971c-2 52.667 17 102.334 57 149.001l20 24l17 23c10.667 16.667 16 31.334 16 44.001c0 31.333 -20.667 47.333 -62 48c-38 0 -71 -9.66699 -99 -29l-38 129c21.333 11.333 45.666 20.666 72.999 27.999c33.333 8.66699 68 13 104 13
c66.667 0 118.334 -16 155.001 -48c32.667 -28.667 49 -65.667 49 -111c0 -35.333 -10 -68.666 -30 -99.999c-7.33301 -11.333 -16.666 -23.666 -27.999 -36.999l-28 -30c-31.333 -34 -47.333 -72 -48 -114v-15h-158zM210.999 -11.0029c-68 0 -101.999 34.333 -101.999 103
c0 69.333 34 104 102 104c67.333 0 101.666 -34.667 102.999 -104c0 -68.667 -34 -103 -102 -103h-1z" />
    <glyph glyph-name="at" unicode="@" horiz-adv-x="768" 
d="M404 606l9.99707 -0.000976562c86.667 0 161.334 -29.333 224.001 -88c54.667 -57.333 82 -125.666 82 -204.999c0 -93.333 -30.667 -163.333 -92 -210c-32 -21.333 -67 -32 -105 -32c-56.667 0 -91.667 14 -105 42c-6 12.667 -9 29 -9 49
c0 22.667 6.66699 83.667 20 183c-8.66699 2 -16.667 3 -24 3c-33.333 0 -60.666 -18.667 -81.999 -56c-11.333 -22 -17 -44.333 -17 -67v-8c0 -26 9.33301 -42.333 28 -49l14 -3c4.66699 0 11.334 2 20.001 6v-1l-12 -89c-16.667 -6.66699 -34 -10 -52 -10
c-52.667 0 -88.667 26.667 -108 80c-5.33301 18.667 -8 37 -8 55c0 70 26 129.333 78 178c44 36.667 94.667 55 152 55h10c42.667 0 82.667 -8.66699 120 -26v-1c-18.667 -129.333 -28.667 -201 -30 -215v-14c0 -19.333 7 -31 21 -35h10c28.667 0 53.334 23.667 74.001 71
c8.66699 28.667 13 57 13 85v12c0 72 -28 130.667 -84 176c-43.333 30 -95.333 45 -156 45c-82 0 -153 -32.667 -213 -98c-47.333 -58.667 -71 -127 -71 -205v-3c0 -106 40.333 -182 121 -228c40.667 -21.333 86.334 -32 137.001 -32c51.333 0 99.666 10 144.999 30
c5.33301 -15.333 11.333 -37 18 -65l-1 -1c-50 -22.667 -111.667 -34 -185 -34c-90.667 0 -169 32 -235 96c-57.333 62 -86 135 -86 219v10c0 91.333 30.667 175 92 251c31.333 32.667 53.666 52.667 66.999 60c66 46 139 69 219 69z" />
    <glyph glyph-name="A" unicode="A" horiz-adv-x="681" 
d="M456 677c2 0 8.33203 -19.333 18.999 -58l184 -617l-1 -1h-194c-1.33301 0 -6.66602 18.333 -15.999 55l-28 102h-136v1l27 133h84l-65 254h-1l-121 -544l-1 -1h-185l-2 2l196 674h240z" />
    <glyph glyph-name="B" unicode="B" horiz-adv-x="619" 
d="M247 702l24 0.00195312c93.333 0 161.333 -11.667 204 -35c63.333 -33.333 95 -82.333 95 -147v-2c0 -65.333 -37.667 -114 -113 -146l-3 -1v-3c45.333 -12.667 80.333 -35 105 -67c22.667 -30.667 34 -66.334 34 -107.001c0 -69.333 -32.667 -125.333 -98 -168
c-19.333 -11.333 -43.333 -21.666 -72 -30.999c-60 -13.333 -111 -20 -153 -20l-1 1v136c0 1.33301 12.667 3 38 5c22.667 5.33301 38 10.666 46 15.999c26 16 39 39.667 39 71c0 39.333 -24.333 65 -73 77c-17.333 3.33301 -33.333 5 -48 5v0l-2 2v133
c0 1.33301 12.667 3.33301 38 6c18.667 4 32.667 9.33301 42 16c19.333 13.333 29 29.666 29 48.999v7c0 33.333 -22.333 54.333 -67 63l-27 2h-7c-22 0 -41 -1.33301 -57 -4v-584l-2 -1h-11c-73.333 0 -132 4 -176 12l-1 1v697c0 2 25.333 5.66699 76 11
c51.333 4 98.333 6 141 6z" />
    <glyph glyph-name="C" unicode="C" horiz-adv-x="602" 
d="M566 18c-14 -7.33301 -35.333 -13.666 -64 -18.999c-32.667 -6 -67.667 -9 -105 -9c-119.333 0 -211.333 33.667 -276 101c-58 60 -87 138.333 -87 235c0 113.333 37.333 202.666 112 267.999c68.667 60 156.334 90 263.001 90c36 0 70 -3 102 -9
c28.667 -5.33301 50.667 -12 66 -20l-35 -143c-16.667 7.33301 -34.334 13 -53.001 17c-23.333 4.66699 -47.333 7 -72 7c-55.333 0 -100.333 -16 -135 -48c-38.667 -35.333 -58 -85.333 -58 -150c0 -132 65.667 -198 197 -198c48 0 88 6.33301 120 19z" />
    <glyph glyph-name="D" unicode="D" horiz-adv-x="700" 
d="M249 692l22 0.00195312c160 0 272.333 -42.333 337 -127c42 -54.667 63 -124.334 63 -209.001c0 -140 -50 -242 -150 -306c-29.333 -16.667 -59.666 -29.334 -90.999 -38.001c-29.333 -10 -66.333 -17.333 -111 -22l-44 -4l-1 1v142l1 1h3c62 0 112.667 22.667 152 68
c29.333 40 44 88.333 44 145v15c0 66.667 -22.333 118 -67 154c-32.667 25.333 -74.667 38 -126 38c-22.667 0 -41.334 -1.33301 -56.001 -4v-559l-2 -1h-10c-67.333 0 -125 4 -173 12l-1 1v677c0 2 24.667 5.66699 74 11c46 3.33301 91.333 5 136 5z" />
    <glyph glyph-name="E" unicode="E" horiz-adv-x="552" 
d="M485 272h-242v-124h271v-148h-452v674h438v-148h-257v-108h242v-146z" />
    <glyph glyph-name="F" unicode="F" horiz-adv-x="545" 
d="M62 674h433v-148h-252v-124h237v-146h-237v-256h-181v674z" />
    <glyph glyph-name="G" unicode="G" horiz-adv-x="697" 
d="M646 31c-30 -10 -64.335 -18.332 -103.002 -24.999c-46.667 -8.66699 -90 -13 -130 -13c-124.667 0 -219 30.333 -283 91s-96 141.667 -96 243c0.666992 113.333 39.334 201.666 116.001 264.999c71.333 59.333 164 89 278 89c42.667 0 82.334 -3.33301 119.001 -10
c31.333 -6 56.666 -13.667 75.999 -23l-36 -145c-20.667 9.33301 -42.667 16.333 -66 21c-27.333 5.33301 -58.666 8 -93.999 8c-59.333 0 -107 -15.333 -143 -46c-40 -34 -60 -83.667 -60 -149c0 -61.333 18 -110.333 54 -147c35.333 -34.667 81 -52 137 -52
c29.333 0 48.333 2 57 6v116h-90v140h264v-369z" />
    <glyph glyph-name="H" unicode="H" horiz-adv-x="705" 
d="M243 674v-250h219v250h181v-674h-181v266h-219v-266h-181v674h181z" />
    <glyph glyph-name="I" unicode="I" horiz-adv-x="305" 
d="M243 674v-674h-181v674h181z" />
    <glyph glyph-name="J" unicode="J" horiz-adv-x="429" 
d="M191 674h181.001v-416c0 -94.667 -22.333 -164 -67 -208c-42 -40.667 -105 -61 -189 -61c-47.333 0 -87 5.33301 -119 16l19 145c26.667 -7.33301 53 -11 79 -11c31.333 0 54.666 8.33301 69.999 25c17.333 18.667 26 50 26 94v416z" />
    <glyph glyph-name="K" unicode="K" horiz-adv-x="646" 
d="M62 674h179v-286h2l38 65l135 221h222l-214 -287l222 -387h-209l-142 273l-54 -69v-204h-179v674z" />
    <glyph glyph-name="L" unicode="L" horiz-adv-x="528" 
d="M62 674h181v-523h259v-151h-440v674z" />
    <glyph glyph-name="M" unicode="M" horiz-adv-x="865" 
d="M633 242c-1.33301 36.667 -2.33301 78.332 -3 124.999c-0.666992 42 -1 90.667 -1 146h-3l-35 -138l-36 -126l-67 -235h-141l-56 235c-8.66699 34.667 -18 76.334 -28 125.001c-9.33301 44.667 -18 91 -26 139h-2l-10 -271l-11 -242h-166l42 674h243l44 -182
c10 -38.667 19.333 -78.667 28 -120c10 -44.667 18.333 -86.667 25 -126h3l30 128c12 48.667 22.333 88.667 31 120l51 180h237l34 -674h-175z" />
    <glyph glyph-name="N" unicode="N" horiz-adv-x="705" 
d="M62 0v674.002h213l107 -207c17.333 -32 36 -69.667 56 -113c17.333 -40 34 -81 50 -123h3c-9.33301 83.333 -14 177.666 -14 282.999v160h165v-674h-190l-115 224c-20.667 39.333 -40 78.666 -58 117.999c-22 45.333 -40.333 87 -55 125h-4
c4.66699 -84.667 7 -185 7 -301v-166h-165z" />
    <glyph glyph-name="O" unicode="O" horiz-adv-x="723" 
d="M600 100c-62 -70 -143 -104.999 -243 -104.999c-102 0 -182.667 35 -242 105c-54 64 -81 145 -81 243c0 104.667 27 189.334 81 254.001c53.333 64 126.666 99.667 219.999 107v-147c-35.333 -7.33301 -63 -30 -83 -68c-19.333 -36.667 -29 -83.334 -29 -140.001
c0 -60.667 12 -110 36 -148c26 -40 60 -60 102 -60c42.667 0 76.667 20 102 60c24.667 38.667 37 88.334 37 149.001c0 57.333 -10.333 104.666 -31 141.999c-21.333 37.333 -50.666 59.333 -87.999 66v147c96 -3.33301 172 -39.333 228 -108
c53.333 -64.667 80 -145.667 80 -243c0 -102.667 -29.667 -187.334 -89 -254.001z" />
    <glyph glyph-name="P" unicode="P" horiz-adv-x="604" 
d="M260 687l21.001 0.00195312c132.667 0 220 -38.667 262 -116c16.667 -33.333 25 -68 25 -104c0 -110 -53.667 -183.333 -161 -220c-42 -12.667 -85 -19 -129 -19l-1 1v138c0 1.33301 9 2.66602 27 3.99902c14 3.33301 27.667 8.66602 41 15.999
c27.333 18.667 41 44 41 76c0 40 -19.333 66.667 -58 80c-16 4 -31 6 -45 6c-20.667 -0.666992 -38.334 -2 -53.001 -4v-545l-2 -1h-178l-2 1v671c0 1.33301 20.333 4 61 8c46 5.33301 96.333 8 151 8z" />
    <glyph glyph-name="Q" unicode="Q" horiz-adv-x="760" 
d="M385 695h9.99902c108 0 193.667 -41 257 -123c45.333 -64.667 68 -138.334 68 -221.001c0 -92.667 -26 -172.334 -78 -239.001c-14 -15.333 -21.667 -23 -23 -23c-46.667 11.333 -92 25.333 -136 42c-25.333 10.667 -38.666 16.667 -39.999 18c28 14.667 50 42.667 66 84
c11.333 32.667 17 68.334 17 107.001v7c0 78.667 -22.333 137.667 -67 177c-22 17.333 -47.333 26 -76 26c-43.333 0 -79 -22.333 -107 -67c-22 -38 -33 -85.667 -33 -143c0 -98 43 -168 129 -210c34.667 -19.333 90 -41.333 166 -66c54.667 -18 108 -32.333 160 -43
c16 -3.33301 24 -5.66602 24 -6.99902l-51 -138h-1c-69.333 20 -139.666 45 -210.999 75c-54 25.333 -89.333 38 -106 38c-38.667 0 -83.334 12 -134.001 36c-69.333 37.333 -118 93 -146 167c-16 44 -24 90.333 -24 139v12c0 95.333 30 178 90 248
c66 69.333 148 104 246 104z" />
    <glyph glyph-name="R" unicode="R" horiz-adv-x="653" 
d="M233 686l1.00098 -1v-299h54c42.667 0 73.667 15.667 93 47c5.33301 12 8 23 8 33v9c0 30.667 -15.333 53 -46 67c-13.333 5.33301 -29 8 -47 8h-14l-1 1v133l1 2h3c145.333 0 235 -38.667 269 -116c11.333 -25.333 17 -54 17 -86c0 -60 -29.333 -110.333 -88 -151
c-16.667 -9.33301 -26.334 -14 -29.001 -14v-2c14 -7.33301 25.333 -15 34 -23c25.333 -24.667 45 -64.667 59 -120c21.333 -84.667 38 -143.334 50 -176.001h-1h-185c-8.66699 12.667 -21 49.334 -37 110.001c-12 54.667 -22 89.667 -30 105c-13.333 27.333 -38 41 -74 41
h-36v-255l-2 -1h-178l-2 1v671c0 1.33301 20.333 4 61 8c57.333 5.33301 97.333 8 120 8z" />
    <glyph glyph-name="S" unicode="S" horiz-adv-x="561" 
d="M74 180c22.667 -12 48.3359 -21.668 77.0029 -29.001c34 -8.66699 66.667 -13 98 -13c61.333 0 92 18.333 92 55c0 27.333 -35.333 53 -106 77c-60.667 22 -106.667 48.333 -138 79c-34.667 34.667 -52 76 -52 124c0 61.333 24 111.333 72 150
c49.333 40.667 115.666 61 198.999 61c37.333 0 72.333 -3.33301 105 -10c27.333 -5.33301 53 -13.333 77 -24l-38 -145c-4 2 -8 3.66699 -12 5c-4.66699 2 -9.33398 3.66699 -14.001 5c-10.667 4.66699 -21.667 8.33398 -33 11.001c-28.667 7.33301 -57.667 11 -87 11
c-56.667 0 -85 -16.667 -85 -50c0 -22 40.333 -48.333 121 -79c116.667 -43.333 175 -111 175 -203c0 -62 -23.333 -112.333 -70 -151c-50.667 -42.667 -123 -64 -217 -64c-38 0 -76.333 4.33301 -115 13c-34.667 8 -62.334 17.333 -83.001 28z" />
    <glyph glyph-name="T" unicode="T" horiz-adv-x="570" 
d="M193 522h-172v152h528v-152h-175v-522h-181v522z" />
    <glyph glyph-name="U" unicode="U" horiz-adv-x="697" 
d="M242 674v-383c0 -106 35.333 -159 106 -159c71.333 0 107 53 107 159v383h181v-372c0 -208.667 -97.667 -313 -293 -313c-188 0 -282 105.667 -282 317v368h181z" />
    <glyph glyph-name="V" unicode="V" horiz-adv-x="671" 
d="M226 0l-214.001 673.999h198l72 -265c22 -79.333 40.667 -158 56 -236h2c7.33301 39.333 16 79.333 26 120c8.66699 36.667 18.334 74.334 29.001 113.001l73 268h192l-220 -674h-214z" />
    <glyph glyph-name="W" unicode="W" horiz-adv-x="906" 
d="M170 0l-155 673.999h194l57 -371l16 -116h2c5.33301 35.333 11.666 74.333 18.999 117c5.33301 35.333 12.333 76.333 21 123l43 247h193l42 -259c6 -37.333 11.333 -74.666 16 -111.999c4.66699 -33.333 9.33398 -70.333 14.001 -111h2l34 235l40 247h183l-166 -674
h-197l-45 264c-10.667 62 -20 129.333 -28 202h-2l-8 -57c-2.66699 -19.333 -5.33398 -36.333 -8.00098 -51c-5.33301 -36 -10.666 -67.333 -15.999 -94l-51 -264h-200z" />
    <glyph glyph-name="X" unicode="X" horiz-adv-x="631" 
d="M410 0l-48.999 110l-52 117h-2c-4.66699 -15.333 -11.334 -34.333 -20.001 -57l-69 -170h-205l190 341l-183 333h207l46 -107l45 -112h2c12 35.333 25.333 72.333 40 111l41 108h206l-183 -329l195 -345h-209z" />
    <glyph glyph-name="Y" unicode="Y" horiz-adv-x="629" 
d="M219 0v271.999l-212 402h207l57 -152c11.333 -28.667 19.333 -50 24 -64c8 -20.667 15.333 -41 22 -61h2c12.667 40.667 27 82.334 43 125.001l55 152h204l-221 -395v-279h-181z" />
    <glyph glyph-name="Z" unicode="Z" horiz-adv-x="588" 
d="M21 96l298 425v4h-270v149h504v-103l-289 -418v-4h294v-149h-537v96z" />
    <glyph glyph-name="bracketleft" unicode="[" horiz-adv-x="328" 
d="M63 -112v798h213v-97h-86v-604h86v-97h-213z" />
    <glyph glyph-name="backslash" unicode="\" horiz-adv-x="326" 
d="M187 -40l-171 725h115l171 -725h-115z" />
    <glyph glyph-name="bracketright" unicode="]" horiz-adv-x="328" 
d="M265 686v-798h-213v97h86v604h-86v97h213z" />
    <glyph glyph-name="asciicircum" unicode="^" horiz-adv-x="596" 
d="M436 172l-137 342h-3l-137 -342h-124l211 478h105l211 -478h-126z" />
    <glyph glyph-name="underscore" unicode="_" horiz-adv-x="500" 
d="M500 -75v-50h-500v50h500z" />
    <glyph glyph-name="grave" unicode="`" 
d="M156 706l85 -156h-123l-122 156h160z" />
    <glyph glyph-name="a" unicode="a" horiz-adv-x="547" 
d="M256 506l12.999 -0.00195312c70.667 0 126 -18.667 166 -56c20.667 -21.333 34 -41.333 40 -60c12.667 -26 19 -66.333 19 -121v-165c0 -43.333 2.66699 -78.666 8 -105.999l-1 -1h-164c-1.33301 0 -4.66602 14.333 -9.99902 43h-4c-32.667 -36 -77.667 -54 -135 -54h-5
c-54 0 -97.333 20 -130 60c-22 28.667 -33 59.334 -33 92.001v8c0 76 39.333 126.667 118 152c39.333 10.667 82.333 16 129 16h1v-92c0 -0.666992 -8.33301 -3 -25 -7c-29.333 -11.333 -44 -29.666 -44 -54.999c0 -24 11.667 -39.333 35 -46l14 -1h4
c26.667 0 47.334 14.667 62.001 44c1.33301 8.66699 2 23.667 2 45v77c0 42.667 -6 69 -18 79c-13.333 16 -35 24 -65 24h-9c-40 0 -85.667 -12 -137 -36c-0.666992 1.33301 -11.334 39.666 -32.001 114.999c59.333 30 126.333 45 201 45z" />
    <glyph glyph-name="b" unicode="b" horiz-adv-x="612" 
d="M56 720h180.001l2 -2v-270h1c34 40.667 81.667 61 143 61c70.667 0 126 -32.333 166 -97c24.667 -42 37 -92.667 37 -152c0 -106.667 -35 -186 -105 -238c-33.333 -22.667 -67.333 -34 -102 -34c-42.667 0 -77.334 12.667 -104.001 38l-1 1v113l1 1v1
c12 -6.66699 23 -10 33 -10h9c32.667 0 56.667 17.667 72 53c8 19.333 12 41.333 12 66c0 58.667 -19.333 96.334 -58 113.001c-10.667 3.33301 -20.667 5 -30 5c-48 0 -76.333 -37.333 -85 -112l-1 -18l1 -239l-1 -1h-174l-2 1c2.66699 53.333 4 113.666 4 180.999v537z
" />
    <glyph glyph-name="c" unicode="c" horiz-adv-x="452" 
d="M433 11c-28.667 -14 -73.667 -21 -135 -21c-82 0 -147 22.667 -195 68c-48 44.667 -72 106 -72 184c0 74 24.333 135 73 183c52 51.333 124 77 216 77c42 0 79.667 -5.66699 113 -17l-25 -132c-19.333 8 -45.333 12 -78 12c-77.333 0 -115.333 -39 -114 -117
c0 -38 12 -67.667 36 -89c21.333 -19.333 49 -29 83 -29c30.667 0 57 4.33301 79 13z" />
    <glyph glyph-name="d" unicode="d" horiz-adv-x="602" 
d="M370 720l181 0.00195312l1 -2v-568c0 -56.667 1.33301 -106.667 4 -150l-1 -1h-174l-2 1v176l1 63c0 38.667 -9 72 -27 100c-16 20 -35.333 30 -58 30c-42.667 0 -70.667 -24 -84 -72c-2.66699 -16 -4 -31.667 -4 -47c0 -62.667 20.667 -101 62 -115
c7.33301 -2 14.666 -3 21.999 -3h8c8 0 19 3 33 9v-114c-26 -26 -60.667 -39 -104 -39c-58 0 -109 28 -153 84c-36 51.333 -54 111.666 -54 180.999v15c0 77.333 24.333 140.666 73 189.999c36.667 34 80.334 51 131.001 51c60.667 0 107.667 -20.333 141 -61v0h2v270z" />
    <glyph glyph-name="e" unicode="e" horiz-adv-x="550" 
d="M278 505l10 -0.00292969c84.667 0 148 -35.333 190 -106c23.333 -42.667 35 -92.667 35 -150c0 -21.333 -2.33301 -44 -7 -68h-1h-256c-11.333 19.333 -17 44 -17 74c0 18.667 3 35.334 9 50.001h103v0c0 32 -11.333 55.667 -34 71c-10.667 6 -21.667 9 -33 9h-7
c-37.333 0 -66 -25.333 -86 -76c-6.66699 -21.333 -10 -41.666 -10 -60.999v-1c0 -40 11 -73.667 33 -101c23.333 -23.333 58 -35 104 -35c41.333 0 91.666 9 150.999 27l23 -121c-51.333 -21.333 -113.666 -32 -186.999 -32c-125.333 0 -209.666 46.667 -252.999 140
c-14 34.667 -21 71.334 -21 110.001v8c0 67.333 23.333 129 70 185c49.333 51.333 110.666 77 183.999 77z" />
    <glyph glyph-name="f" unicode="f" horiz-adv-x="396" 
d="M77 0l0.00195312 360.001h-63v132h63v16c0 30 5 58.667 15 86c11.333 31.333 27.666 56.666 48.999 75.999c19.333 18 42.666 31.333 69.999 40c23.333 7.33301 47.666 11 72.999 11c28 0 55.667 -3 83 -9l-3 -138c-15.333 3.33301 -30.666 5 -45.999 5
c-41.333 0 -62 -21 -62 -63v-24h90v-132h-88v-360h-181z" />
    <glyph glyph-name="g" unicode="g" horiz-adv-x="559" 
d="M234 497h8.00195c56 0 97.333 -21.667 124 -65h1c1.33301 0 3.66602 16.667 6.99902 50v3l1 1h155l1 -1h1c-2.66699 -35.333 -4 -80.333 -4 -135v-280c0 -109.333 -24 -184.666 -72 -225.999c-46 -45.333 -118.333 -68 -217 -68c-71.333 0 -133 12.333 -185 37v1l35 137
h1c47.333 -24 95.333 -36 144 -36c56 0 92 24.333 108 73c2.66699 12 4 24 4 36v259c0 28 -10.667 50.333 -32 67c-11.333 6.66699 -23.333 10 -36 10c-38 0 -62.333 -19.333 -73 -58c-4.66699 -16.667 -7 -37.334 -7 -62.001v-1c0 -54 18 -89.667 54 -107
c8 -3.33301 16.667 -5 26 -5h2c5.33301 0 11.333 0.666992 18 2v-1v-114c-18.667 -10.667 -43 -16 -73 -16h-7c-73.333 0 -131 33.333 -173 100c-22 41.333 -33 85.333 -33 132v12c0 78.667 26.667 144.667 80 198c43.333 38 90.666 57 141.999 57z" />
    <glyph glyph-name="h" unicode="h" horiz-adv-x="599" 
d="M55 711h181.001v-271h2c15.333 18.667 34.666 34 57.999 46c22.667 11.333 47.667 17 75 17c115.333 0 173 -72.667 173 -218v-285h-181v265c0 62 -21.333 93 -64 93c-27.333 0 -47 -13 -59 -39c-2.66699 -7.33301 -4 -17 -4 -29v-290h-181v711z" />
    <glyph glyph-name="i" unicode="i" horiz-adv-x="292" 
d="M55 0v492h181v-492h-181zM145 543c-60.667 0 -91 28.333 -91 85c0 57.333 30.667 86 92 86c60 0 90.667 -28.667 92 -86c0 -56.667 -30.667 -85 -92 -85h-1z" />
    <glyph glyph-name="j" unicode="j" horiz-adv-x="312" 
d="M-37 -76c41.333 3.33301 70.333 13.332 87 29.999c19.333 18.667 29 68.667 29 150v388h181v-426c0 -103.333 -24.667 -176.666 -74 -219.999c-47.333 -41.333 -116 -62 -206 -62zM168 542.999c-60.667 0 -91 28.333 -91 85c0 57.333 30.667 86 92 86
c60 0 90.667 -28.667 92 -86c0 -56.667 -30.667 -85 -92 -85h-1z" />
    <glyph glyph-name="k" unicode="k" horiz-adv-x="575" 
d="M236 292h2l16 32l97 168h215l-170 -198l195 -294h-222l-97 188l-36 -48v-140h-181v711h181v-419z" />
    <glyph glyph-name="l" unicode="l" horiz-adv-x="292" 
d="M55 711h181v-711h-181v711z" />
    <glyph glyph-name="m" unicode="m" horiz-adv-x="871" 
d="M56 324c0 30 -0.333984 60.667 -1.00098 92l-3 76h151l7 -62h4l18 22c9.33301 9.33301 19.333 17.333 30 24c28 18 60.667 27 98 27c66.667 0 111 -26.333 133 -79h2c18 24.667 40.667 44.334 68 59.001c25.333 13.333 54.333 20 87 20c111.333 0 167 -71.333 167 -214
v-289h-175v262c0 64 -19.333 96 -58 96c-27.333 0 -45.666 -14 -54.999 -42c-3.33301 -8 -5 -20 -5 -36v-280h-175v267c0 60.667 -19.333 91 -58 91c-14 0 -26.333 -4.66699 -37 -14c-7.33301 -6.66699 -13.333 -15.334 -18 -26.001c-3.33301 -10 -5 -22.333 -5 -37v-281
h-175v324z" />
    <glyph glyph-name="n" unicode="n" horiz-adv-x="599" 
d="M55 324c0 30 -0.332031 60.667 -0.999023 92l-3 76h156l8 -63h3c5.33301 8 11.666 15.667 18.999 23c9.33301 8.66699 19.666 16.667 30.999 24c29.333 18 62 27 98 27c118.667 0 178 -71 178 -213v-290h-181v268c0 60 -21 90 -63 90c-16 0 -29.333 -4.66699 -40 -14
c-7.33301 -7.33301 -13.666 -17 -18.999 -29c-3.33301 -7.33301 -5 -19.333 -5 -36v-279h-181v324z" />
    <glyph glyph-name="o" unicode="o" horiz-adv-x="565" 
d="M471 58c-48 -46.667 -112.999 -69.9971 -194.999 -69.9971c-75.333 0 -136.333 23 -183 69c-46 46 -69 105.667 -69 179c0 78.667 24 141 72 187c42.667 42 98 65.333 166 70v-127c-36.667 -12.667 -55 -54.334 -55 -125.001c0 -36.667 5.66699 -66.334 17 -89.001
c13.333 -26 32.333 -39 57 -39c27.333 0 47.666 13.333 60.999 40c12 22 18 51.333 18 88c0 66.667 -17.333 107.667 -52 123v129c69.333 -4.66699 125.333 -28.667 168 -72c44.667 -44.667 67 -103.334 67 -176.001c0 -78 -24 -140.333 -72 -187z" />
    <glyph glyph-name="p" unicode="p" horiz-adv-x="600" 
d="M372 503l7.00098 0.000976562c59.333 0 110.333 -28 153 -84c32.667 -46.667 49 -104 49 -172c0 -102.667 -36.333 -179.334 -109 -230.001c-36.667 -23.333 -75.334 -35 -116.001 -35h-4c-27.333 0 -51 5 -71 15v128h1v1c8 -3.33301 16.667 -5 26 -5v0
c39.333 0 66 22.667 80 68c5.33301 16.667 8 33.667 8 51c0 62.667 -20.667 101.667 -62 117c-8.66699 2 -16 3 -22 3h-4c-29.333 0 -52 -16.333 -68 -49c-4 -12 -6 -20.667 -6 -26v-491l-2 -1h-180l-2 1v503c0 65.333 -1.33301 130 -4 194l1 1h156
c1.33301 0 4.33301 -21 9 -63h3c38 49.333 90.333 74 157 74z" />
    <glyph glyph-name="q" unicode="q" horiz-adv-x="600" 
d="M236 501l10 -0.000976562c56 0 98.333 -20.667 127 -62l2 1l3 49l1 1h176l1 -1v0v-6l-3 -150v-541l-1 -1h-181l-2 1v491c0 23.333 -10 44 -30 62c-14 9.33301 -27.333 14 -40 14h-7c-37.333 0 -63 -21.667 -77 -65c-4.66699 -15.333 -7 -33.333 -7 -54
c0 -57.333 19.667 -94.666 59 -111.999c9.33301 -2.66699 18.333 -4 27 -4h2c8 0 16 1.33301 24 4h1v-123c-2 -4 -14.333 -9.66699 -37 -17c-18 -5.33301 -36.667 -8 -56 -8h-4c-58.667 0 -109 27 -151 81c-34 48 -51 104.333 -51 169v10c0 94 33 168 99 222
c38 26 76.333 39 115 39z" />
    <glyph glyph-name="r" unicode="r" horiz-adv-x="403" 
d="M55 326c0 74 -1.33301 129.333 -4 166h154l7 -89h4c12 34 31.667 60 59 78c22.667 14.667 46.667 22 72 22c15.333 0 27.333 -1 36 -3v-169c-14.667 3.33301 -30 5 -46 5c-55.333 0 -88.333 -20.667 -99 -62c-1.33301 -10.667 -2 -21 -2 -31v-243h-181v326z" />
    <glyph glyph-name="s" unicode="s" horiz-adv-x="440" 
d="M46 152c40.667 -24.667 85.998 -36.999 135.998 -36.999c36 0 54 9 54 27c0 14 -21.333 28 -64 42c-51.333 16 -89.333 38 -114 66c-21.333 24.667 -31.666 52.667 -30.999 84c0 49.333 19.333 89.666 58 120.999c40 32 92 48 156 48c28 0 56 -3 84 -9
c23.333 -4.66699 44 -11 62 -19l-29 -122c-14 6.66699 -30 12.667 -48 18c-22.667 6 -43 9 -61 9c-32.667 0 -49 -9.33301 -49 -28c0 -14 24.667 -29 74 -45c88.667 -28.667 133.667 -79.334 135 -152.001c0 -49.333 -18.333 -88.666 -55 -117.999
c-40 -31.333 -96.667 -47 -170 -47c-67.333 0 -123.666 11.667 -168.999 35z" />
    <glyph glyph-name="t" unicode="t" horiz-adv-x="383" 
d="M253 632l0.000976562 -140h102v-132h-102v-141c0 -54.667 19 -82 57 -82c18.667 0 33 1.33301 43 4v-137c-24.667 -9.33301 -60.334 -14 -107.001 -14c-52 0 -93 15 -123 45c-30.667 30.667 -46 81.667 -46 153v172h-61v132h61v92z" />
    <glyph glyph-name="u" unicode="u" horiz-adv-x="598" 
d="M541 168c0 -32 0.333984 -63.333 1.00098 -94c0.666992 -24 1.66699 -48.667 3 -74h-156l-8 65h-3c-13.333 -20 -29.333 -36 -48 -48c-28.667 -18.667 -62.334 -28 -101.001 -28c-116.667 0 -175 71 -175 213v290h181v-261c0 -64.667 21 -97 63 -97c28.667 0 48 14 58 42
c2.66699 6 4 14.667 4 26v290h181v-324z" />
    <glyph glyph-name="v" unicode="v" horiz-adv-x="551" 
d="M204 492l52.999 -209.001c8.66699 -33.333 16.334 -72 23.001 -116h3c6.66699 44.667 14 83.334 22 116.001l49 209h189l-179 -492h-181l-175 492h196z" />
    <glyph glyph-name="w" unicode="w" horiz-adv-x="769" 
d="M192 492l27.999 -181l6 -38c2.66699 -14.667 4.66699 -28 6 -40c4.66699 -30.667 8.66699 -59 12 -85h2c4 24 9.33301 52.333 16 85l56 259h141l44 -206l3 -10l8 -42c6.66699 -33.333 11.667 -62 15 -86h2c2.66699 27.333 6.33398 56 11.001 86
c4 26 8.66699 54.333 14 85l29 173h176l-147 -492h-170l-34 146c-8 36 -17 86 -27 150h-2c-6 -54 -14.333 -103.333 -25 -148l-37 -148h-170l-141 492h184z" />
    <glyph glyph-name="x" unicode="x" horiz-adv-x="544" 
d="M204 492l39 -73.001c6 -10.667 12.333 -22.667 19 -36l17 -34h3l32 73l33 70h195l-159 -233l160 -259h-204l-39 79c-14 26.667 -24.667 50.334 -32 71.001h-3l-67 -150h-197l163 251l-161 241h201z" />
    <glyph glyph-name="y" unicode="y" horiz-adv-x="545" 
d="M205 492l59.002 -220.998l21 -88h4l63 309h192l-105 -313c-34.667 -97.333 -66.334 -172 -95.001 -224c-24.667 -44 -51.334 -78.667 -80.001 -104c-26 -22.667 -54.667 -40.334 -86 -53.001c-24.667 -10 -50.667 -16.333 -78 -19l-37 152
c21.333 3.33301 42 9.66602 62 18.999c22.667 8.66699 42 23.667 58 45c6 8.66699 9 16 9 22c0 3.33301 -0.333008 7 -1 11c-1.33301 4.66699 -3.33301 9.66699 -6 15l-180 449h200z" />
    <glyph glyph-name="z" unicode="z" horiz-adv-x="486" 
d="M24 103l126 153.001c29.333 33.333 57.333 63.666 84 90.999v2h-194v143h414v-108l-129 -156l-32 -37c-16 -18 -30.667 -33.333 -44 -46v-2h214v-143h-439v103z" />
    <glyph glyph-name="braceleft" unicode="{" horiz-adv-x="328" 
d="M32 331c30 2 50.667 9.99805 62 23.998c7.33301 9.33301 11 23.333 11 42c0 21.333 -1.66699 46.333 -5 75c-3.33301 30 -5 55.667 -5 77c0 91.333 51.667 137 155 137h42v-98h-18c-35.333 -0.666992 -53 -22 -53 -64c0 -6.66699 0.333008 -14.667 1 -24l3 -27
c2.66699 -24 4 -45.667 4 -65c0.666992 -68 -29.666 -108 -90.999 -120v-2c61.333 -12 91.666 -51.667 90.999 -119c0 -19.333 -1.33301 -41.666 -4 -66.999l-3 -26l-1 -23c0 -43.333 17.667 -65.333 53 -66h18v-97h-42c-103.333 0 -155 45.333 -155 136
c0 24.667 2 50.334 6 77.001l3 40c0.666992 14 1 26.333 1 37c0 17.333 -3.66699 31 -11 41c-12 14 -33 22 -63 24z" />
    <glyph glyph-name="bar" unicode="|" horiz-adv-x="302" 
d="M212 750v-1000h-123v1000h123z" />
    <glyph glyph-name="braceright" unicode="}" horiz-adv-x="328" 
d="M296 243c-30 -2 -50.667 -10 -62 -24c-7.33301 -10 -11 -23.667 -11 -41c0 -10.667 0.333008 -23 1 -37l3 -40c3.33301 -30 5 -55.667 5 -77c0 -90.667 -51.667 -136 -155 -136h-42v97h18c35.333 0.666992 53 22.667 53 66l-3 49c-2.66699 25.333 -4 47.666 -4 66.999
c-0.666992 67.333 29.666 107 90.999 119v2c-61.333 12 -91.666 52 -90.999 120c0 10.667 0.333008 22.334 1 35.001l3 44l2 13c0.666992 9.33301 1 17.333 1 24c0 42 -17.667 63.333 -53 64h-18v98h42c103.333 0 155 -45.667 155 -137c0 -21.333 -1.66699 -47 -5 -77
l-3 -39c-0.666992 -14 -1 -26 -1 -36c0 -18.667 4 -32.667 12 -42c11.333 -14 32 -22 62 -24z" />
    <glyph glyph-name="asciitilde" unicode="~" horiz-adv-x="596" 
d="M40 184c0 71.333 13.9971 123.998 41.9971 157.998c24.667 30.667 60.334 46 107.001 46c24 0 47 -4.33301 69 -13c17.333 -6.66699 40.333 -18.667 69 -36c44 -26 72 -39 84 -39c20 0 31.333 27 34 81h111c2.66699 -73.333 -9.66602 -127.333 -36.999 -162
c-24 -29.333 -58.667 -44 -104 -44c-24 0 -47.667 4.66699 -71 14c-17.333 6.66699 -39.666 18.334 -66.999 35.001c-44.667 28 -72.667 42 -84 42s-20.333 -5 -27 -15c-8 -13.333 -13 -35.666 -15 -66.999h-111z" />
    <glyph glyph-name="exclamdown" unicode="&#xa1;" horiz-adv-x="284" 
d="M50 -189l26 441h134l26 -441h-186zM143 497c68 0 102 -34.667 102 -104c-1.33301 -68.667 -35.333 -103 -102 -103c-68.667 0 -103 34.333 -103 103c0 69.333 34 104 102 104h1z" />
    <glyph glyph-name="cent" unicode="&#xa2;" horiz-adv-x="573" 
d="M284 -10v96.002c-64 11.333 -114 38 -150 80c-36.667 42 -55 96 -55 162c0 61.333 17.333 114.333 52 159c36.667 48 87.667 78.667 153 92v93h114v-87c34 -2.66699 63.667 -8.33398 89 -17.001l-25 -132c-22.667 10 -50.334 15 -83.001 15
c-76.667 0 -115 -38.667 -115 -116c0 -38.667 11.667 -68.334 35 -89.001c21.333 -18.667 49 -28 83 -28c35.333 0 66 5 92 15l20 -129c-23.333 -10.667 -55.666 -17.667 -96.999 -21v-93h-113z" />
    <glyph glyph-name="sterling" unicode="&#xa3;" horiz-adv-x="573" 
d="M49 0l0.000976562 93.998c28 10.667 52.667 27.334 74 50.001c24.667 26.667 37 55 37 85c0 12.667 -0.666992 21.667 -2 27h-95v121h73c-4 22 -6 45 -6 69c0 64 22 116 66 156c44.667 39.333 103 59 175 59c51.333 0 91.666 -8 120.999 -24l-26 -136
c-21.333 11.333 -49 17 -83 17c-31.333 0 -54 -8.66699 -68 -26c-12 -14 -18 -32.333 -18 -55c0 -16.667 2.66699 -36.667 8 -60h135v-121h-119c-1.33301 -19.333 -5 -37 -11 -53c-10.667 -21.333 -24 -39.666 -40 -54.999v-2h253v-146h-474z" />
    <glyph glyph-name="currency" unicode="&#xa4;" horiz-adv-x="573" 
d="M288 557c46 0 84.665 -10.999 115.998 -32.999l79 87l76 -79l-91 -81c0 -0.666992 0.333008 -1.33398 1 -2.00098l9 -18c4 -8.66699 7.33301 -17 10 -25c7.33301 -22 11 -45.333 11 -70c0 -26 -3.66699 -49.667 -11 -71c-5.33301 -17.333 -13.333 -33.333 -24 -48l89 -85
l-75 -75l-75 91c-31.333 -25.333 -70.666 -38 -117.999 -38c-48 0 -86.667 12.667 -116 38l-75 -91l-74 75l87 83c-10.667 16 -18.667 32 -24 48c-7.33301 21.333 -11 45 -11 71s3.66699 50 11 72c2.66699 8 6.33398 16.333 11.001 25l5 11l6 9l-91 81l76 79l80 -90
c31.333 24 70.333 36 117 36h1zM284.998 438.001c-54 0 -81 -34.333 -81 -103c0 -32.667 8.66699 -59 26 -79c16 -18 34.667 -27 56 -27c22 0 40.667 8.66699 56 26c16.667 20 25 46.667 25 80c0 68.667 -27 103 -81 103h-1z" />
    <glyph glyph-name="yen" unicode="&#xa5;" horiz-adv-x="573" 
d="M198 0v153.001h-156v81h156v60h-156v81h115l-161 275h194l55 -140c7.33301 -18 15 -38 23 -60l20 -56h1c5.33301 12 12.333 30.667 21 56l11 30c4 11.333 8 21.666 12 30.999l55 139h190l-168 -275h115v-81h-158v-60h158v-81h-158v-153h-169z" />
    <glyph glyph-name="brokenbar" unicode="&#xa6;" horiz-adv-x="302" 
d="M212 174v-350h-123v350h123zM212 674v-350h-123v350h123z" />
    <glyph glyph-name="section" unicode="&#xa7;" horiz-adv-x="579" 
d="M177 338c0 -28.667 26.332 -51.666 78.999 -68.999l60 -20l9 -2c12.667 -4 22.334 -7.33301 29.001 -10c10 -3.33301 17.333 -6 22 -8c17.333 8 26 21.667 26 41c0 26 -20.333 47 -61 63l-132 47c-21.333 -6.66699 -32 -20.334 -32 -41.001v-1zM459.999 549.001
c-18.667 8 -37.667 14 -57 18c-25.333 5.33301 -52.333 8 -81 8c-55.333 0 -83 -12 -83 -36c0 -20.667 33 -40.334 99 -59.001c32.667 -9.33301 59.667 -18.666 81 -27.999c26 -10.667 47.333 -22.667 64 -36c38.667 -29.333 58 -68.666 58 -117.999
c0 -51.333 -25.667 -92.333 -77 -123c12 -9.33301 22.333 -21 31 -35c10.667 -18.667 16 -38.667 16 -60c0 -30.667 -8 -57.334 -24 -80.001c-13.333 -20.667 -33 -37.667 -59 -51c-22 -11.333 -47.333 -20 -76 -26c-24.667 -4.66699 -50 -7 -76 -7c-36 0 -69.333 3 -100 9
c-39.333 8 -72.666 20.333 -99.999 37l31 106c20 -10.667 43 -19.667 69 -27c32.667 -10 63 -15 91 -15c54 0 81 12.667 81 38c0 22 -33 42.667 -99 62c-31.333 9.33301 -57.333 18.333 -78 27c-26.667 10.667 -49 22.334 -67 35.001c-43.333 30 -65 69 -65 117
c0 58 29 99.667 87 125c-27.333 22 -41 53.333 -41 94c0 51.333 22.333 91.333 67 120c42 27.333 97.667 41 167 41c31.333 0 59.666 -2 84.999 -6c29.333 -4.66699 56.333 -12.334 81 -23.001z" />
    <glyph glyph-name="dieresis" unicode="&#xa8;" 
d="M40 551c-53.333 0 -80 26.333 -80 79s27 79 81 79c50.667 0 76 -26.333 76 -79s-25.333 -79 -76 -79h-1zM260 551c-52 0 -78 26.333 -78 79s26.667 79 80 79c51.333 0 77 -26.333 77 -79s-25.667 -79 -77 -79h-2z" />
    <glyph glyph-name="copyright" unicode="&#xa9;" horiz-adv-x="677" 
d="M341 648c84.667 0 157 -30 217 -90c59.333 -60 89 -132.667 89 -218c0 -86 -29.667 -159 -89 -219c-60 -60.667 -132.667 -91 -218 -91c-86 0 -159 30.333 -219 91c-60.667 60 -91 133 -91 219c0 85.333 30.333 158 91 218c60 60 133 90 219 90h1zM338 584
c-64.667 0 -120 -24 -166 -72s-69 -105.667 -69 -173c0 -68 23 -125.667 69 -173c46 -48 101.667 -72 167 -72c64.667 -0.666992 120 23 166 71s69 106 69 174c0 67.333 -23 125 -69 173s-101.333 72 -166 72h-1zM458 432c-3.33301 2 -8 4.00098 -14 6.00098l-22 8
c-20 5.33301 -39.333 8 -58 8c-78.667 0 -118 -39 -118 -117c0 -34.667 11 -63 33 -85c21.333 -22 49 -33 83 -33c40.667 0 73.667 8 99 24l16 -58c-32.667 -21.333 -73.667 -32 -123 -32c-58 0 -104 17.333 -138 52c-32 33.333 -48 76.333 -48 129
c0 55.333 19.667 100.666 59 135.999c37.333 33.333 83 50 137 50c57.333 0 94 -9.33301 110 -28z" />
    <glyph glyph-name="ordfeminine" unicode="&#xaa;" horiz-adv-x="392" 
d="M248 266l-7.00098 29.999h-2c-27.333 -24 -60.333 -35.667 -99 -35c-72 0 -108 33 -108 99c0 38 18.333 67.333 55 88c34 18.667 81.333 28.334 142 29.001v5c0 2.66699 -0.666992 5 -2 7c-1.33301 4 -4 7.33301 -8 10c-9.33301 8 -24.666 12 -45.999 12
c-34 0 -65.667 -8.66699 -95 -26l-22 74c15.333 8.66699 33.333 15.667 54 21c27.333 7.33301 56 11 86 11c53.333 0 93.333 -13.667 120 -41c24 -24.667 36 -57.667 36 -99v-107c0 -33.333 1.66699 -59.333 5 -78h-109zM232.999 410.999c-54.667 0 -82 -13.333 -82 -40
c0 -22 12.667 -33 38 -33c21.333 0 35.333 9 42 27l2 10v36z" />
    <glyph glyph-name="guillemotleft" unicode="&#xab;" horiz-adv-x="484" 
d="M142 253l113 -194h-121l-108 194l108 193h121zM349 253l113 -194h-121l-108 194l108 193h121z" />
    <glyph glyph-name="logicalnot" unicode="&#xac;" horiz-adv-x="596" 
d="M556 433v-333h-112v225h-404v108h516z" />
    <glyph glyph-name="registered" unicode="&#xae;" horiz-adv-x="476" 
d="M219 430h-54.999v156l28 4c15.333 1.33301 30.666 2 45.999 2c32 0 54.333 -4.33301 67 -13c11.333 -6.66699 17 -18 17 -34c0 -16.667 -12.667 -28.334 -38 -35.001v-2c18 -6 29.333 -19.667 34 -41l4 -14c0.666992 -4 1.66699 -7.66699 3 -11l4 -12h-61
c-2 2.66699 -4 7.33398 -6 14.001l-5 18c-2.66699 14.667 -10.667 22 -24 22h-14v-54zM221.001 520h12c17.333 0 26 5.66699 26 17c0 12 -8 18 -24 18l-14 -1v-34zM240.001 686c50 0 92.668 -17.333 128.001 -52c34.667 -34 52 -75.333 52 -124s-17.667 -90 -53 -124
c-34.667 -34.667 -77.334 -52 -128.001 -52s-93.667 17.333 -129 52c-36 34 -54 75.333 -54 124s18 90 54 124c35.333 34.667 78.333 52 129 52h1zM237.002 639c-34.667 0 -64 -12.667 -88 -38c-23.333 -25.333 -35 -56 -35 -92s11.667 -66.333 35 -91
c24 -24.667 53.667 -37 89 -37c35.333 -0.666992 65.333 11.666 90 36.999c23.333 24.667 35 55.334 35 92.001c0 36 -11.667 66.333 -35 91c-24.667 25.333 -54.667 38 -90 38h-1z" />
    <glyph glyph-name="macron" unicode="&#xaf;" 
d="M281 675v-96h-261v96h261z" />
    <glyph glyph-name="macron" unicode="&#x2c9;" 
d="M281 675v-96h-261v96h261z" />
    <glyph glyph-name="degree" unicode="&#xb0;" horiz-adv-x="373" 
d="M189 685c45.333 0 83.335 -15 114.002 -45c30 -29.333 45 -65 45 -107c0 -44 -16 -80.667 -48 -110c-31.333 -29.333 -69 -44 -113 -44c-46 0 -84.333 14.667 -115 44c-30 29.333 -45 65.333 -45 108c-0.666992 42.667 14.666 79 45.999 109s69.666 45 114.999 45h1z
M187.002 606c-45.333 0 -68 -25 -68 -75c0 -48.667 23 -73 69 -73c45.333 0 68 24.333 68 73c0 50 -22.667 75 -68 75h-1z" />
    <glyph glyph-name="plusminus" unicode="&#xb1;" horiz-adv-x="596" 
d="M355 583v-164h202v-108h-202v-166h-113v166h-202v108h202v164h113zM557 108v-108h-517v108h517z" />
    <glyph glyph-name="twosuperior" unicode="&#xb2;" horiz-adv-x="369" 
d="M17 508l61 52.999l48 42c15.333 13.333 27 24.333 35 33c19.333 20 29 39 29 57c0 26 -17 39 -51 39c-31.333 0 -60.333 -8.66699 -87 -26l-35 89c43.333 28.667 95.333 43 156 43c107.333 0 161 -41.333 161 -124c0 -31.333 -11.333 -60.333 -34 -87
c-8.66699 -11.333 -20 -23 -34 -35c-8.66699 -7.33301 -21.667 -17.666 -39 -30.999l-21 -16v-2h135v-100h-324v65z" />
    <glyph glyph-name="threesuperior" unicode="&#xb3;" horiz-adv-x="366" 
d="M24 806c36.667 21.333 87 32.002 151 32.002c102.667 0 154 -33.333 154 -100c0 -42.667 -28.333 -72.334 -85 -89.001v-2c66.667 -6 100 -36 100 -90c0 -36 -17.667 -65 -53 -87c-34.667 -21.333 -80.667 -32 -138 -32c-61.333 0 -109 9.33301 -143 28l25 90
c32 -17.333 65.333 -26 100 -26c42.667 0 64 12 64 36c0 27.333 -26 41 -78 41h-32v78h29c19.333 0 35.333 2.33301 48 7c15.333 5.33301 23 13.666 23 24.999c0 19.333 -16 29 -48 29c-16 0 -33.333 -2.66699 -52 -8c-15.333 -4 -29 -9.33301 -41 -16z" />
    <glyph glyph-name="acute" unicode="&#xb4;" 
d="M309 706l-123 -156h-122l85 156h160z" />
    <glyph glyph-name="mu" unicode="&#xb5;" horiz-adv-x="598" 
d="M382 64c-8 -19.333 -21 -35.332 -39 -47.999c-21.333 -14.667 -45.666 -22 -72.999 -22c-20.667 0 -38.334 6.33301 -53.001 19v-35c0 -30.667 0.666992 -62 2 -94c2 -38 4.66699 -65.333 8 -82h-159c-4 10 -7.33301 33.333 -10 70c-2 32 -3 67.333 -3 106v514h181v-268
c0 -61.333 19.333 -92 58 -92c31.333 0 52.333 14 63 42c2.66699 7.33301 4 16.666 4 27.999v290h181v-322c0 -30 13 -45.667 39 -47l-9 -122c-12.667 -8 -34.334 -12 -65.001 -12c-61.333 0 -101.666 25 -120.999 75h-4z" />
    <glyph glyph-name="paragraph" unicode="&#xb6;" horiz-adv-x="556" 
d="M196 -46l0.00195312 310h-6c-31.333 0 -63.333 15 -96 45c-18.667 16.667 -33 36 -43 58c-12 25.333 -18.333 53 -19 83c-0.666992 29.333 3 56.333 11 81c9.33301 28 24.666 52.333 45.999 73c24 23.333 55 41.333 93 54c42.667 14 94 21 154 21
c69.333 0 120.666 -4 153.999 -12v-713h-111v616h-72v-616h-111z" />
    <glyph glyph-name="periodcentered" unicode="&#xb7;" horiz-adv-x="283" 
d="M141 153c-68 0 -101.999 35 -101.999 105s34.333 105 103 105c67.333 0 101.666 -35 102.999 -105c0 -70 -34.333 -105 -103 -105h-1z" />
    <glyph glyph-name="periodcentered" unicode="&#x2219;" horiz-adv-x="283" 
d="M141 153c-68 0 -101.999 35 -101.999 105s34.333 105 103 105c67.333 0 101.666 -35 102.999 -105c0 -70 -34.333 -105 -103 -105h-1z" />
    <glyph glyph-name="cedilla" unicode="&#xb8;" 
d="M208 5l-24 -45.999c48.667 -6.66699 73 -31.334 73 -74.001c0 -31.333 -13 -54.666 -39 -69.999c-22 -13.333 -51.667 -20 -89 -20c-36 0 -64.667 7 -86 21l22 62c20.667 -11.333 39 -17 55 -17c21.333 0 32 7.66699 32 23c0 19.333 -26 30.666 -78 33.999l41 87h93z" />
    <glyph glyph-name="onesuperior" unicode="&#xb9;" horiz-adv-x="324" 
d="M122 443v280l-84 -35l-17 96l120 49h119v-390h-138z" />
    <glyph glyph-name="ordmasculine" unicode="&#xba;" horiz-adv-x="399" 
d="M202 591c51.333 0 92.667 -15.333 124 -46c30.667 -30 46 -68.333 46 -115c0 -54 -17.667 -96.333 -53 -127c-32 -28 -72.667 -42 -122 -42c-48.667 0 -89 14.667 -121 44c-33.333 30 -50 69.333 -50 118c0 50 16 90.333 48 121c32 31.333 74.333 47 127 47h1z
M198.001 506c-16 0 -28.333 -9.33301 -37 -28c-6.66699 -14.667 -10 -32.667 -10 -54c0 -52 16.333 -78 49 -78c31.333 0 47 27 47 81c0 20.667 -4.33301 38.667 -13 54c-9.33301 16.667 -21 25 -35 25h-1z" />
    <glyph glyph-name="guillemotright" unicode="&#xbb;" horiz-adv-x="484" 
d="M23 446h119l110 -193l-110 -194h-119l113 194zM227 446h119l110 -193l-110 -194h-119l113 194z" />
    <glyph glyph-name="onequarter" unicode="&#xbc;" horiz-adv-x="863" 
d="M133 266v280l-84 -35l-17 96l120 49h119v-390h-138zM188 -11l364 672h94l-363 -672h-95zM651 0v85h-194v73l161 236h159v-224h50v-85h-50v-85h-126zM651 225c0 10.667 0.666016 23.667 1.99902 39l3 40h-3l-18 -37c-7.33301 -13.333 -13.666 -24.333 -18.999 -33l-39 -63
l3 -1h71v55z" />
    <glyph glyph-name="onehalf" unicode="&#xbd;" horiz-adv-x="863" 
d="M122 266v280l-84 -35l-17 96l120 49h119v-390h-138zM163 -11l363 672h94l-363 -672h-94zM504 65l61 52.999l48 42c15.333 13.333 27 24.333 35 33c19.333 20 29 39 29 57c0 26 -17 39 -51 39c-31.333 0 -60.333 -8.66699 -87 -26l-35 89c43.333 28.667 95.333 43 156 43
c107.333 0 161 -41.333 161 -124c0 -31.333 -11.333 -60.333 -34 -87c-8.66699 -11.333 -20 -23 -34 -35c-8.66699 -7.33301 -21.667 -17.666 -39 -30.999l-21 -16v-2h135v-100h-324v65z" />
    <glyph glyph-name="threequarters" unicode="&#xbe;" horiz-adv-x="863" 
d="M40 629c36.667 21.333 87 32.002 151 32.002c102.667 0 154 -33.333 154 -100c0 -42.667 -28.667 -72.334 -86 -89.001v-2c66.667 -6 100 -35.667 100 -89c0 -36.667 -17.667 -66 -53 -88c-34.667 -21.333 -80.667 -32 -138 -32c-61.333 0 -109 9.33301 -143 28l25 90
c12.667 -6 27.667 -11.667 45 -17c20.667 -5.33301 39 -8 55 -8c42.667 0 64 11.667 64 35c0 27.333 -25.667 41 -77 41h-32v78h29c19.333 0 35.333 2.33301 48 7c15.333 5.33301 23 13.666 23 24.999c0 19.333 -16 29 -48 29c-16 0 -33.333 -2.66699 -52 -8
c-15.333 -4 -29.333 -9.33301 -42 -16zM219 -10.998l362 672h95l-363 -672h-94zM660 0.00195312v85h-194v73l161 236h159v-224h50v-85h-50v-85h-126zM660 225.002c0 10.667 0.666016 23.667 1.99902 39l3 40h-3l-18 -37c-7.33301 -13.333 -13.666 -24.333 -18.999 -33
l-39 -63l3 -1h71v55z" />
    <glyph glyph-name="questiondown" unicode="&#xbf;" horiz-adv-x="463" 
d="M254 497c67.333 0 101 -34.667 101 -104c0 -68.667 -34 -103 -102 -103c-68.667 0 -103 34.333 -103 103c0 69.333 34.333 104 103 104h1zM327 256v-24.999c2 -53.333 -17 -103.333 -57 -150l-20 -24l-17 -23c-10.667 -16.667 -16 -31.334 -16 -44.001
c0 -31.333 20.667 -47.333 62 -48c38 0 71 9.66699 99 29l38 -129c-21.333 -11.333 -45.666 -20.666 -72.999 -27.999c-33.333 -8.66699 -68 -13 -104 -13c-66 0 -117.333 16 -154 48c-32.667 28.667 -49 65.667 -49 111c0 35.333 10 68.666 30 99.999
c7.33301 12 16.666 24.333 27.999 37l28 30c31.333 34 47.333 72.333 48 115v14h157z" />
    <glyph glyph-name="Agrave" unicode="&#xc0;" horiz-adv-x="680" 
d="M157 861h188c9.33301 -12 37.333 -54.333 84 -127v-1h-148zM460 680c1.33301 0 7.33301 -19.667 18 -59l187 -624h-1h-196c-2 2 -7.66699 21 -17 57l-28 101h-138v1l28 134h84l-64 257h-2l-122 -550h-1h-187l-2 1l198 682h243z" />
    <glyph glyph-name="Aacute" unicode="&#xc1;" horiz-adv-x="674" 
d="M513 863l-124 -130h-148v2l84 128h188zM452 682c1.33301 0 7.33301 -19.667 18 -59l187 -624h-1h-196c-2 2 -7.66699 21 -17 57l-28 101h-138v1l28 134h84l-64 257h-2l-122 -550h-1h-187l-2 1l198 682h243z" />
    <glyph glyph-name="Acircumflex" unicode="&#xc2;" horiz-adv-x="676" 
d="M273 862h139.001c5.33301 -4.66699 39.666 -47.667 102.999 -129v-1h-124l-48 61h-1l-46 -61h-124v2zM455.001 681c1.33301 0 7.33301 -19.667 18 -59l187 -624h-1h-196c-2 2 -7.66699 21 -17 57l-28 101h-138v1l28 134h84l-64 257h-2l-122 -550h-1h-187l-2 1l198 682
h243z" />
    <glyph glyph-name="Atilde" unicode="&#xc3;" horiz-adv-x="701" 
d="M508 887l2.00293 -2.00098v-21c0 -65.333 -20.667 -103.666 -62 -114.999c-8.66699 -2 -16.334 -3 -23.001 -3h-4c-28.667 0 -58.334 10.333 -89.001 31c-8 4 -14.333 6 -19 6h-2c-12 0 -19.667 -14 -23 -42l-2 -2h-80l-2 2v10c0 66.667 18 108.667 54 126
c10.667 4 20.667 6 30 6h1c27.333 0 55.666 -10.333 84.999 -31c12.667 -7.33301 22 -11 28 -11c10 0 17 5.33301 21 16l7 30h78zM467.003 683.999c1.33301 0 7 -18.667 17 -56l188 -627h-1h-196c-2 0 -7.33301 18.333 -16 55l-29 103h-138c0 3.33301 9.33301 48.333 28 135
h84l-64 257h-2l-122 -550h-1h-187h-1h-1l198 683h243z" />
    <glyph glyph-name="Adieresis" unicode="&#xc4;" horiz-adv-x="679" 
d="M236 890h4.99805c30 0 53 -16.667 69 -50c3.33301 -9.33301 5 -18.333 5 -27v-3c0 -33.333 -17 -58.333 -51 -75c-9.33301 -2.66699 -17.666 -4 -24.999 -4h-3c-33.333 0 -58 17.333 -74 52c-3.33301 8.66699 -5 18.667 -5 30c0 30.667 15.667 54 47 70
c10.667 4.66699 21.334 7 32.001 7zM458.998 890l7 0.000976562c30.667 0 54 -17 70 -51c2.66699 -10.667 4 -19.667 4 -27v-2c0 -34.667 -18 -59.667 -54 -75c-8 -2.66699 -15.333 -4 -22 -4h-4c-30.667 0 -54 15.667 -70 47c-4.66699 10 -7 21 -7 33v1
c0 33.333 16.667 57.666 50 72.999c9.33301 3.33301 18 5 26 5zM458.998 682.001c0.666992 0 5.33301 -14.333 14 -43l191 -640h-1h-196c-2 0 -7.66699 19 -17 57l-28 100h-136l-2 2l28 133h84l-64 257h-2l-122 -549h-188l-2 1l198 681l1 1h242z" />
    <glyph glyph-name="Aring" unicode="&#xc5;" horiz-adv-x="680" 
d="M333 936l11 0.000976562c54.667 0 92 -21 112 -63c5.33301 -12.667 8 -26.334 8 -41.001v-4c0 -46 -25.667 -78 -77 -96c-15.333 -3.33301 -28.333 -5 -39 -5h-6l-3 -1l-4 1h-4c-39.333 0 -71.333 13.667 -96 41c-15.333 18 -23 38.333 -23 61c0 47.333 25 80.333 75 99
c16.667 5.33301 32 8 46 8zM294 832.001v-4c0 -21.333 11.667 -35.333 35 -42h9c21.333 0 35.333 9.66699 42 29l2 12v7c0 16 -8.66699 28.667 -26 38c-6.66699 2.66699 -12.667 4 -18 4h-3c-23.333 0 -37 -14.667 -41 -44zM458 683.001c0.666992 0 5.33301 -14.333 14 -43
l191 -640h-1h-196c-2 0 -7.33301 18.333 -16 55l-29 103h-138c0 3.33301 9.33301 48.333 28 135h84l-64 257h-2l-122 -550h-1h-187h-1h-1l198 683h243z" />
    <glyph glyph-name="AE" unicode="&#xc6;" horiz-adv-x="932" 
d="M835 682l1.00098 -2v-147l-1 -2h-275l15 -112h257l2 -2v-145l-2 -1h-234l17 -122h261l1 -2v-147l-1 -1h-416c-2.66699 0 -4.33398 8.33301 -5.00098 25l-19 138h-144l-1 1h-1l53 145h72l-31 245h-3c-20.667 -69.333 -47.667 -147.333 -81 -234l-117 -320h-1h-186l-2 1
l282 682h559z" />
    <glyph glyph-name="Ccedilla" unicode="&#xc7;" horiz-adv-x="602" 
d="M567 17c-32 -16 -82.3311 -24.999 -150.998 -26.999l-16 -32c21.333 -5.33301 38.333 -14.333 51 -27c15.333 -15.333 23 -34.333 23 -57c0 -34 -13.667 -59.667 -41 -77c-22.667 -14 -51.334 -21 -86.001 -21c-37.333 0 -68 6.66699 -92 20l22 69
c17.333 -9.33301 36.333 -14 57 -14c22 0 33 7.66699 33 23c0 18 -26.667 29.667 -80 35l39 86c-96.667 13.333 -170.667 51.666 -222 114.999c-46.667 58 -70 130 -70 216c0 113.333 37.333 202.666 112 267.999c69.333 60 157.333 90 264 90c36 0 70 -3 102 -9
c28.667 -5.33301 50.667 -12 66 -20l-35 -143c-16.667 7.33301 -34.334 13 -53.001 17c-23.333 4.66699 -47.333 7 -72 7c-56 0 -101.333 -16 -136 -48c-38.667 -35.333 -58 -85.666 -58 -150.999c0 -132 65.667 -198 197 -198c48.667 0 89 6.33301 121 19z" />
    <glyph glyph-name="Egrave" unicode="&#xc8;" horiz-adv-x="552" 
d="M485 272h-242v-124h271v-148h-452v674h438v-148h-257v-108h242v-146zM290 836l81 -124h-144l-120 124h183z" />
    <glyph glyph-name="Eacute" unicode="&#xc9;" horiz-adv-x="552" 
d="M485 272h-242v-124h271v-148h-452v674h438v-148h-257v-108h242v-146zM467 836l-120 -126h-144l81 126h183z" />
    <glyph glyph-name="Ecircumflex" unicode="&#xca;" horiz-adv-x="552" 
d="M485 272h-242v-124h271v-148h-452v674h438v-148h-257v-108h242v-146zM356 836l99 -126h-121l-45 59h-2l-44 -59h-121l99 126h135z" />
    <glyph glyph-name="Edieresis" unicode="&#xcb;" horiz-adv-x="552" 
d="M485 272h-242v-124h271v-148h-452v674h438v-148h-257v-108h242v-146zM171 709c-51.333 0 -77 25.667 -77 77c0 50.667 26 76 78 76c49.333 0 74 -25.333 74 -76c0 -51.333 -24.667 -77 -74 -77h-1zM388 709c-50.667 0 -76 25.667 -76 77c0 50.667 25.667 76 77 76
c50 0 75 -25.333 75 -76c0 -51.333 -25 -77 -75 -77h-1z" />
    <glyph glyph-name="Igrave" unicode="&#xcc;" horiz-adv-x="305" 
d="M243 674v-674h-181v674h181zM153 836l81 -124h-144l-120 124h183z" />
    <glyph glyph-name="Iacute" unicode="&#xcd;" horiz-adv-x="305" 
d="M243 674v-674h-181v674h181zM334 836l-120 -126h-144l81 126h183z" />
    <glyph glyph-name="Icircumflex" unicode="&#xce;" horiz-adv-x="305" 
d="M243 674v-674h-181v674h181zM221 836l99 -126h-121l-45 59h-2l-44 -59h-121l99 126h135z" />
    <glyph glyph-name="Idieresis" unicode="&#xcf;" horiz-adv-x="305" 
d="M243 674v-674h-181v674h181zM45 709c-51.333 0 -77 25.667 -77 77c0 50.667 26 76 78 76c49.333 0 74 -25.333 74 -76c0 -51.333 -24.667 -77 -74 -77h-1zM262 709c-50.667 0 -76 25.667 -76 77c0 50.667 25.667 76 77 76c50 0 75 -25.333 75 -76
c0 -51.333 -25 -77 -75 -77h-1z" />
    <glyph glyph-name="Eth" unicode="&#xd0;" horiz-adv-x="719" 
d="M4 415h66.999v252c58 10 129.667 15 215 15c124 0 216.333 -21.667 277 -65c81.333 -56 122 -143.333 122 -262c0 -65.333 -11.333 -123 -34 -173c-20 -44.667 -47.667 -80.667 -83 -108c-70 -56 -175.667 -84 -317 -84c-38 0 -74.333 1.33301 -109 4
c-13.333 0.666992 -26.666 1.66699 -39.999 3l-31 3v274h-67v141zM365.999 274h-114v-142l18 -2h20c63.333 0 112.333 17 147 51c38 36.667 57 92.667 57 168c0 66.667 -17.667 116.667 -53 150c-32 30 -76.667 45 -134 45c-24.667 0 -43 -1.33301 -55 -4v-125h114v-141z
" />
    <glyph glyph-name="Ntilde" unicode="&#xd1;" horiz-adv-x="705" 
d="M62 0v674.002h213l107 -207c17.333 -32 36 -69.667 56 -113c17.333 -40 34 -81 50 -123h3c-9.33301 83.333 -14 177.666 -14 282.999v160h165v-674h-190l-115 224c-20.667 39.333 -40 78.666 -58 117.999c-22 45.333 -40.333 87 -55 125h-4
c4.66699 -84.667 7 -185 7 -301v-166h-165zM207 714.002c-2.66699 92.667 24.332 139 80.999 139c13.333 0 26 -2 38 -6c8 -3.33301 17.333 -8 28 -14c20.667 -13.333 35 -20 43 -20c14.667 0 23.667 14.667 27 44h78c2.66699 -90.667 -25.333 -136 -84 -136
c-23.333 0 -45.666 6 -66.999 18l-22 13c-6.66699 3.33301 -13 5 -19 5c-13.333 0 -21 -14.333 -23 -43h-80z" />
    <glyph glyph-name="Ograve" unicode="&#xd2;" horiz-adv-x="751" 
d="M198 867h188l84 -128h-1h-148zM643 90c67.333 65.333 101 152.998 101 262.998c0 102.667 -31.667 185.667 -95 249c-60 60.667 -138.667 94.334 -236 101.001v-183c48.667 -20.667 73 -78.334 73 -173.001c0 -51.333 -8.33301 -92.666 -25 -123.999
c-19.333 -37.333 -48.333 -56 -87 -56c-34 0 -60.333 18 -79 54c-16.667 32.667 -25 74.667 -25 126c0 100.667 25.667 159.334 77 176.001v180c-95.333 -6.66699 -173.333 -39.334 -234 -98.001c-67.333 -65.333 -101 -153.666 -101 -264.999
c0 -103.333 32.667 -187.333 98 -252c65.333 -65.333 151.333 -98 258 -98c115.333 0 207 33.333 275 100z" />
    <glyph glyph-name="Oacute" unicode="&#xd3;" horiz-adv-x="751" 
d="M387 860l188 -0.000976562v0c0 -1.33301 -41 -44.666 -123 -129.999h-147l-2 2zM628 88.999c64.667 63.333 96.999 147.668 96.999 253.001c0 98.667 -30.333 178.667 -91 240c-58 58.667 -134 91 -228 97v-175c46.667 -20 70 -75.667 70 -167
c0 -49.333 -7.66699 -89 -23 -119c-18.667 -36.667 -46.667 -55 -84 -55c-33.333 0 -58.666 17.667 -75.999 53c-16 31.333 -24 71.666 -24 120.999c0 96.667 24.667 153 74 169v173c-92 -6.66699 -167 -38 -225 -94c-64.667 -63.333 -97 -148.333 -97 -255
c0 -99.333 31.333 -180 94 -242c62.667 -62.667 145.334 -94 248.001 -94c111.333 0 199.666 31.667 264.999 95z" />
    <glyph glyph-name="Ocircumflex" unicode="&#xd4;" horiz-adv-x="752" 
d="M303 867h139l103 -129v-1h-125l-47 61h-1l-47 -61h-123l-1 2zM637 91c64.667 62.667 97.002 147.002 97.002 253.002c0 98.667 -30.333 178.667 -91 240c-58 58 -133.667 90.333 -227 97v-176c46 -20 69 -75.333 69 -166c0 -49.333 -7.66699 -89.333 -23 -120
c-18.667 -36 -46.334 -54 -83.001 -54c-33.333 0 -59 17.667 -77 53c-16 30.667 -24 71 -24 121c0 96 25 152.333 75 169v173c-92 -6.66699 -167.333 -38.334 -226 -95.001c-64.667 -62.667 -97 -147.334 -97 -254.001c0 -99.333 31.333 -180.333 94 -243
c63.333 -62.667 146 -94 248 -94c111.333 0 199.666 32 264.999 96z" />
    <glyph glyph-name="Otilde" unicode="&#xd5;" horiz-adv-x="751" 
d="M525 881l1.99902 -2.00098v-22c0 -65.333 -21 -103.666 -63 -114.999c-7.33301 -1.33301 -14.666 -2 -21.999 -2h-4c-29.333 0 -59 10.333 -89 31c-8 4 -14.333 6 -19 6h-3c-11.333 0 -18.666 -12.333 -21.999 -37c0 -4.66699 -0.666992 -7 -2 -7h-80l-2 1v13
c0 64.667 18 106 54 124c10 4 19.667 6 29 6h2c27.333 0 55.666 -10.667 84.999 -32c12 -6.66699 21.333 -10 28 -10c10 0 16.667 5 20 15c2.66699 8 5 18 7 30l1 1h78zM638.999 92.999c66.667 64.667 100 151.669 100 261.002c0 101.333 -31.333 183.666 -94 246.999
c-60 60 -138 93.333 -234 100v-181c48 -20.667 72 -78 72 -172c0 -50.667 -8 -91.667 -24 -123c-19.333 -37.333 -48.333 -56 -87 -56c-34 0 -60.333 18.333 -79 55c-16 32 -24 73.333 -24 124c0 99.333 25.667 157.666 77 174.999v178c-95.333 -6.66699 -173 -39 -233 -97
c-66.667 -65.333 -100 -153 -100 -263c0 -102 32.333 -185.333 97 -250s150 -97 256 -97c114.667 0 205.667 33 273 99z" />
    <glyph glyph-name="Odieresis" unicode="&#xd6;" horiz-adv-x="753" 
d="M248 891h5.99805c28.667 0 51.334 -15.667 68.001 -47c3.33301 -10.667 5 -21.667 5 -33c0 -33.333 -17 -58.333 -51 -75c-9.33301 -2.66699 -17.666 -4 -24.999 -4h-3c-31.333 0 -55.333 16 -72 48c-4 10 -6 20.333 -6 31v2c0 31.333 15 55 45 71
c10.667 4.66699 21.667 7 33 7zM470.998 891h6.99902c26.667 0 48.334 -13.333 65.001 -40c6.66699 -12 10 -25 10 -39c0 -34 -17 -59 -51 -75c-8 -3.33301 -16.667 -5 -26 -5h-3c-34.667 0 -59.667 18.667 -75 56c-2 8.66699 -3 16.334 -3 23.001v3
c0 33.333 17.333 57.666 52 72.999c10 2.66699 18 4 24 4zM640.997 89c66 64.667 99 150.665 99 257.998c0 100.667 -31 182 -93 244c-58.667 59.333 -135.667 92.333 -231 99v-179c47.333 -20 71 -76.667 71 -170c0 -50 -8 -90.333 -24 -121
c-18.667 -36.667 -47 -55 -85 -55c-34 0 -60 17.667 -78 53c-16 32 -24 73 -24 123c0 98.667 25.333 156.334 76 173.001v176c-94 -6.66699 -170.667 -38.667 -230 -96c-66 -64 -99 -150.333 -99 -259c0 -101.333 32 -183.666 96 -246.999c64 -64 148 -96 252 -96
c113.333 0 203.333 32.333 270 97z" />
    <glyph glyph-name="multiply" unicode="&#xd7;" horiz-adv-x="596" 
d="M115 526l183 -187l183 187l75 -76l-183 -187l183 -186l-75 -77l-183 187l-183 -187l-75 77l183 186l-183 187z" />
    <glyph glyph-name="Oslash" unicode="&#xd8;" horiz-adv-x="753" 
d="M563 736l102.001 -67.9961l-54 -85c60 -68 90 -151.333 90 -250c0 -124.667 -42.333 -221.334 -127 -290.001c-58.667 -44.667 -128.334 -67 -209.001 -67c-28.667 0 -57.334 3.66699 -86.001 11v1l86 131h1c60 0 103.333 31 130 93c14 34 21 73.667 21 119
c0 26 -3.66699 55.667 -11 89h-2l-333 -508h-2c-62 47.333 -94.333 72.666 -97 75.999l55 85c-31.333 33.333 -53.333 66.333 -66 99c-20.667 47.333 -31 98 -31 152v12c0 97.333 33.667 182 101 254c36.667 32.667 68 53.667 94 63c43.333 18 80 27 110 27h1v-142
c0 -0.666992 -8 -3.33398 -24 -8.00098c-35.333 -15.333 -62 -45.333 -80 -90c-12.667 -35.333 -19 -72 -19 -110c0 -34.667 5.66699 -68.334 17 -101.001h1l193 296c-19.333 9.33301 -32.666 14 -39.999 14l-1 1v140l1 1v1c28.667 0 65.667 -7.33301 111 -22l13 -5z" />
    <glyph glyph-name="Ugrave" unicode="&#xd9;" horiz-adv-x="697" 
d="M242 674v-383c0 -106 35.333 -159 106 -159c71.333 0 107 53 107 159v383h181v-372c0 -208.667 -97.667 -313 -293 -313c-188 0 -282 105.667 -282 317v368h181zM353 836l81 -124h-144l-120 124h183z" />
    <glyph glyph-name="Uacute" unicode="&#xda;" horiz-adv-x="697" 
d="M242 674v-383c0 -106 35.333 -159 106 -159c71.333 0 107 53 107 159v383h181v-372c0 -208.667 -97.667 -313 -293 -313c-188 0 -282 105.667 -282 317v368h181zM524 836l-120 -126h-144l81 126h183z" />
    <glyph glyph-name="Ucircumflex" unicode="&#xdb;" horiz-adv-x="697" 
d="M242 674v-383c0 -106 35.333 -159 106 -159c71.333 0 107 53 107 159v383h181v-372c0 -208.667 -97.667 -313 -293 -313c-188 0 -282 105.667 -282 317v368h181zM430 836l99 -126h-121l-45 59h-2l-44 -59h-121l99 126h135z" />
    <glyph glyph-name="Udieresis" unicode="&#xdc;" horiz-adv-x="697" 
d="M242 674v-383c0 -106 35.333 -159 106 -159c71.333 0 107 53 107 159v383h181v-372c0 -208.667 -97.667 -313 -293 -313c-188 0 -282 105.667 -282 317v368h181zM249 709c-51.333 0 -77 25.667 -77 77c0 50.667 26 76 78 76c49.333 0 74 -25.333 74 -76
c0 -51.333 -24.667 -77 -74 -77h-1zM466 709c-50.667 0 -76 25.667 -76 77c0 50.667 25.667 76 77 76c50 0 75 -25.333 75 -76c0 -51.333 -25 -77 -75 -77h-1z" />
    <glyph glyph-name="Yacute" unicode="&#xdd;" horiz-adv-x="629" 
d="M219 0v271.999l-212 402h207l57 -152c11.333 -28.667 19.333 -50 24 -64c8 -20.667 15.333 -41 22 -61h2c12.667 40.667 27 82.334 43 125.001l55 152h204l-221 -395v-279h-181zM503 835.999l-120 -126h-144l81 126h183z" />
    <glyph glyph-name="Thorn" unicode="&#xde;" horiz-adv-x="601" 
d="M62 674h178.002v-117l27 2c14 0.666992 30.667 1 50 1c81.333 0 144 -17.667 188 -53c46 -37.333 69 -88.333 69 -153c0 -82 -27 -143.333 -81 -184c-46 -35.333 -108.667 -53 -188 -53c-14.667 0 -28.334 0.666992 -41.001 2c-4.66699 0 -9.33398 0.333008 -14.001 1
l-10 2v-122h-178v674zM240.002 261c13.333 -3.33301 32.333 -5 57 -5c66 0 99 28.333 99 85c0 55.333 -33 83 -99 83c-14 0 -26 -0.333008 -36 -1c-8 -0.666992 -15 -1.66699 -21 -3v-159z" />
    <glyph glyph-name="germandbls" unicode="&#xdf;" horiz-adv-x="614" 
d="M320 728l10.999 -0.00390625c78.667 0 142 -27 190 -81c26 -34.667 39 -72.667 39 -114c0 -34 -8.33301 -61.667 -25 -83c-34.667 -19.333 -52 -40.666 -52 -63.999v-4c0 -19.333 13 -41.666 39 -66.999c45.333 -46.667 68 -96 68 -148c0 -80 -39.333 -135.333 -118 -166
c-29.333 -9.33301 -60.333 -14 -93 -14h-8c-44 0 -78.667 4.66699 -104 14v2c12.667 88 19.667 132 21 132c18 -8 39 -12 63 -12c27.333 0 45 9.33301 53 28l1 11c0 16.667 -16 41 -48 73c-39.333 42.667 -59 83.667 -59 123v7c0 47.333 23.667 87 71 119
c7.33301 2.66699 11 7.33398 11 14.001c2 4.66699 3 11.667 3 21v2c0 32 -15.667 54 -47 66c-6.66699 1.33301 -12.667 2 -18 2h-5c-43.333 0 -70 -32.333 -80 -97c-2 -17.333 -3 -42.666 -3 -75.999v-417l-1 -1h-180l-2 1v432c0 134.667 47.333 224.667 142 270
c40.667 18 84.334 27 131.001 27z" />
    <glyph glyph-name="agrave" unicode="&#xe0;" horiz-adv-x="561" 
d="M115 728h164.001c3.33301 -4 16.666 -28 39.999 -72l49 -89l-1 -1h-127c-83.333 106 -125 160 -125 162zM281.001 509c108.667 0 179.666 -39 212.999 -117c12 -28.667 18 -68.334 18 -119.001v-165c0 -37.333 2.33301 -73.666 7 -108.999h-163c-2 0 -5 12 -9 36l-3 8h-2
c-33.333 -36.667 -79.666 -55 -138.999 -55c-65.333 0 -114.333 27.333 -147 82c-12 23.333 -18 47 -18 71v9c0 79.333 44.667 130.666 134 153.999c34 8 71.333 12 112 12l2 -1v-91c0 -1.33301 -3 -2 -9 -2c-40 -9.33301 -60 -29.333 -60 -60c0 -26.667 14.333 -42 43 -46
l10 -1c22 0 41 11.333 57 34c4.66699 4.66699 7 23.334 7 56.001v76c0 42.667 -5.66699 69 -17 79c-13.333 16.667 -37 25 -71 25c-40.667 0 -88 -12 -142 -36l-31 115c60.667 30 130 45 208 45z" />
    <glyph glyph-name="aacute" unicode="&#xe1;" horiz-adv-x="547" 
d="M280 732h165v-1l-128 -161h-125v1c54.667 102 84 155.667 88 161zM247 510l18.9971 0.000976562c100.667 0 168.334 -37.333 203.001 -112c13.333 -28.667 20 -70.334 20 -125.001v-165c0 -43.333 2.66699 -78.666 8 -105.999l-1 -1h-164
c-1.33301 0 -4.66602 14.333 -9.99902 43h-4c-32.667 -36 -79 -54 -139 -54c-66 0 -115.333 28.333 -148 85c-10.667 23.333 -16 46.666 -16 69.999v7c0 76.667 42 127.334 126 152.001c36.667 9.33301 77 14 121 14h1v-92c0 -0.666992 -7.33301 -2.66699 -22 -6
c-31.333 -10.667 -47 -29.334 -47 -56.001c0 -24.667 12.333 -40 37 -46c2.66699 -0.666992 7.33398 -1 14.001 -1h1c27.333 0 48 14.333 62 43c2 4.66699 3 20 3 46v77c0 42 -5.66699 68.333 -17 79c-13.333 16 -35 24 -65 24h-12c-39.333 0 -84.333 -12 -135 -36l-32 115
c59.333 30 125 45 197 45z" />
    <glyph glyph-name="acircumflex" unicode="&#xe2;" horiz-adv-x="551" 
d="M216 724l123.001 -0.000976562c3.33301 -4 38.333 -57.333 105 -160l-1 -1h-115c-1.33301 0.666992 -17 28.334 -47 83.001l-4 4l-49 -87h-118v1c65.333 100.667 100.666 154 105.999 160zM271.001 507.999c105.333 0 174.999 -36.666 208.999 -109.999
c14 -28 21 -70 21 -126v-165c0 -44.667 2.66699 -80.334 8 -107.001l-1 -1h-164c-1.33301 0 -4.66602 14 -9.99902 42l-1 1h-4c-11.333 -13.333 -22.666 -23.333 -33.999 -30c-28.667 -16 -60.334 -24 -95.001 -24h-15c-52 0 -95 21.333 -129 64
c-19.333 28.667 -29 58 -29 88v8c0 76 40.333 126.667 121 152c38 10.667 77.333 16 118 16h7l2 -2v-90c0 -1.33301 -7.33301 -3.33301 -22 -6c-31.333 -11.333 -47 -30 -47 -56c0 -23.333 10.667 -38.333 32 -45c4.66699 -1.33301 11 -2.33301 19 -3
c23.333 0 42.666 11.333 57.999 34c5.33301 4 8 22.667 8 56v76c0 44.667 -6.33301 71.667 -19 81c-12.667 15.333 -35.667 23 -69 23c-42 0 -89.333 -12 -142 -36l-31 115c58.667 30 128.334 45 209.001 45z" />
    <glyph glyph-name="atilde" unicode="&#xe3;" horiz-adv-x="580" 
d="M431 717l2 -2.00098v-13c0 -65.333 -17.667 -106.333 -53 -123c-11.333 -4.66699 -23.333 -7 -36 -7h-8c-22.667 0 -53.667 11.667 -93 35l-14 4c-13.333 0 -21.333 -13.333 -24 -40c0 -5.33301 -0.666992 -8 -2 -8h-82l-2 1v10c0 66.667 19 110.334 57 131.001
c12 4.66699 24 7 36 7c24.667 0 54.334 -11 89.001 -33c9.33301 -5.33301 17.333 -8 24 -8c9.33301 0 15.666 5 18.999 15c2 6.66699 3.66699 17 5 31h82zM264 506.999l19.999 -0.000976562c83.333 0 145 -27.333 185 -82c24 -32 36 -83.667 36 -155v-165
c0 -43.333 2.66699 -78.666 8 -105.999l-1 -1h-164c-1.33301 0 -4.66602 14.333 -9.99902 43h-4c-32.667 -36 -78.667 -54 -138 -54c-70.667 0 -121.667 31.333 -153 94c-8 20.667 -12 41 -12 61v7c0 76.667 42 127.334 126 152.001c37.333 9.33301 77.666 14 120.999 14h1
v-92c0 -0.666992 -7.33301 -2.66699 -22 -6c-31.333 -10.667 -47 -29.334 -47 -56.001c0 -22 10 -36.667 30 -44c6.66699 -2 13.334 -3 20.001 -3h2c27.333 0 48 14.333 62 43c2 4.66699 3 20 3 46v77c0 42 -5.66699 68.333 -17 79c-14 16 -35.667 24 -65 24h-12
c-39.333 0 -84.333 -12 -135 -36l-32 115c59.333 30 125.333 45 198 45z" />
    <glyph glyph-name="adieresis" unicode="&#xe4;" horiz-adv-x="548" 
d="M177 733l6 -0.00292969c30 0 53 -15.667 69 -47c4 -12 6 -22.667 6 -32v-5c0 -31.333 -15 -55.666 -45 -72.999c-12 -4.66699 -23.333 -7 -34 -7c-36.667 0 -63 18.333 -79 55c-2.66699 8.66699 -4 16.334 -4 23.001v7c0 28.667 13.667 51.334 41 68.001
c12.667 7.33301 26 11 40 11zM404 732.997l6.99902 0.000976562c34.667 0 59.334 -18.333 74.001 -55c2 -9.33301 3 -17.333 3 -24v-6c0 -30.667 -15 -54.334 -45 -71.001c-11.333 -5.33301 -23 -8 -35 -8c-36 0 -62 17.667 -78 53c-2.66699 8.66699 -4 17.667 -4 27v5
c0 35.333 18 60.333 54 75c9.33301 2.66699 17.333 4 24 4zM278.999 510.998c104.667 0 173.999 -35.6689 207.999 -107.002c15.333 -28.667 23 -71.667 23 -129v-165c0 -37.333 2.33301 -73.666 7 -108.999h-163c-2 0 -4.66699 10.667 -8 32c-2 8 -3.33301 12 -4 12h-2
c-34 -36.667 -80 -55 -138 -55c-62.667 0 -110.667 25 -144 75c-14.667 25.333 -22 51.333 -22 78v9c0 78.667 43.667 130 131 154c34 8 71.333 12 112 12h3l2 -1v-90c0 -1.33301 -6 -3 -18 -5c-34 -11.333 -51 -30.333 -51 -57c0 -23.333 11 -38.666 33 -45.999l19 -2
c24.667 0 44.334 12.667 59.001 38c4 3.33301 6 20.333 6 51v77c0 42.667 -5.66699 69 -17 79c-12.667 16.667 -36.334 25 -71.001 25c-41.333 0 -88.666 -12 -141.999 -36l-31 115c60 30 129.333 45 208 45z" />
    <glyph glyph-name="aring" unicode="&#xe5;" horiz-adv-x="548" 
d="M493 120c0 -53.333 2.66699 -93.3311 8 -119.998h-163l-9 43h-4c-31.333 -36 -76.666 -54 -135.999 -54c-48.667 0 -88.334 15.667 -119.001 47c-29.333 29.333 -44 65.333 -44 108c0 63.333 26.667 111.666 80 144.999c50 30.667 118.667 46 206 46v4
c0 12 -5.33301 21.667 -16 29c-13.333 8.66699 -35 13 -65 13c-24 0 -49.667 -3.66699 -77 -11c-23.333 -6.66699 -44 -15 -62 -25l-31 113c20.667 11.333 45.667 21 75 29c40.667 10.667 83.667 16 129 16c80 0 139 -20.667 177 -62c34 -36.667 51 -88.334 51 -155.001
v-166zM318 225.002c-76.667 0 -115 -21.333 -115 -64c0 -31.333 17 -47 51 -47c31.333 0 52 15 62 45c1.33301 5.33301 2 14 2 26v40zM278 741.002c79.333 0 119 -33.667 119 -101c0 -66.667 -40 -100 -120 -100c-80.667 0 -121 33 -121 99c0 68 40.333 102 121 102h1z
M276 686.002c-28 0 -42 -15.667 -42 -47c0 -29.333 14 -44 42 -44c29.333 0 44 15 44 45c0 30.667 -14.333 46 -43 46h-1z" />
    <glyph glyph-name="ae" unicode="&#xe6;" horiz-adv-x="828" 
d="M232 499h12c71.333 0 124.666 -23 159.999 -69h1c46 46 101 69 165 69h10c63.333 0 115.333 -24.667 156 -74c36 -48 54 -107.333 54 -178v-2c-2 -42 -4 -63 -6 -63h-248l-1 1v120l1 1h87c0 35.333 -13.333 59.333 -40 72c-9.33301 4 -19.666 6 -30.999 6
c-36 0 -59.667 -16.333 -71 -49c-3.33301 -12 -5 -26 -5 -42v-45c0 -61.333 17.333 -100.666 52 -117.999c20 -10 41.667 -15 65 -15h20c43.333 0 86.666 8.66699 129.999 26c0.666992 -0.666992 8.66699 -41.334 24 -122.001c-50 -25.333 -113 -38 -189 -38h-5
c-79.333 0 -140.333 24.333 -183 73l-4 7h-5c-8.66699 -10.667 -19.667 -21.667 -33 -33c-42 -31.333 -92 -47 -150 -47h-3c-72 0 -124.667 28 -158 84c-12.667 23.333 -19 47.666 -19 72.999v10c0 64.667 36 113.667 108 147c48.667 19.333 94.334 29.333 137.001 30h1
v-110c0 -1.33301 -8 -3.66602 -24 -6.99902c-29.333 -11.333 -44 -29 -44 -53c0 -24.667 14.667 -40.334 44 -47.001h13c28 0 46 15 54 45c2.66699 10.667 4 21.334 4 32.001v138c0 24 -12.333 40 -37 48c-15.333 4 -32.333 6 -51 6c-41.333 0 -86.333 -12.333 -135 -37v0
l-34 113c62.667 32 122 48 178 48z" />
    <glyph glyph-name="ccedilla" unicode="&#xe7;" horiz-adv-x="452" 
d="M433 10c-23.333 -11.333 -58.666 -18.001 -105.999 -20.001l-16 -32c21.333 -5.33301 38.333 -14.666 51 -27.999c15.333 -15.333 23 -34.333 23 -57c0 -34 -13.667 -59.333 -41 -76c-22.667 -14 -51.334 -21 -86.001 -21c-36.667 0 -67 6.66699 -91 20l21 69
c17.333 -9.33301 36.333 -14 57 -14c22 0 33 7.66699 33 23c0 17.333 -26.333 29 -79 35l38 86c-137.333 22.667 -206 104.667 -206 246c0 74.667 24.333 135.667 73 183c52 52 124 78 216 78c42 0 79.667 -5.66699 113 -17l-25 -132c-19.333 8 -45.333 12 -78 12
c-77.333 0 -115.333 -39 -114 -117c0 -38.667 12 -68.667 36 -90c21.333 -19.333 49 -29 83 -29c30.667 0 57 4.33301 79 13z" />
    <glyph glyph-name="egrave" unicode="&#xe8;" horiz-adv-x="551" 
d="M105 717h163.999c2 -0.666992 15.667 -25 41 -73l48 -88l-1 -1h-125c-5.33301 5.33301 -47.666 59 -126.999 161v1zM287.999 507c100 0 169.33 -43.666 207.997 -130.999c15.333 -37.333 23 -79 23 -125c-2 -44 -5 -66.667 -9 -68h-255c-11.333 20 -17 44.667 -17 74
c0 21.333 3.33301 38 10 50h102v0c0 36 -14 61 -42 75c-10 3.33301 -19.333 5 -28 5c-36.667 0 -64.667 -21 -84 -63c-10.667 -22.667 -16 -47.334 -16 -74.001v-2c0 -46 14.333 -82.333 43 -109c23.333 -16.667 53 -25 89 -25h10c38.667 0 87.334 8.66699 146.001 26
l23 -121c-53.333 -21.333 -111 -32 -173 -32h-6h-7h-6h-5c-87.333 0 -156.666 28 -207.999 84c-37.333 44.667 -56 100 -56 166v9c0 70 25.333 133.333 76 190c48.667 47.333 109.334 71 182.001 71z" />
    <glyph glyph-name="eacute" unicode="&#xe9;" horiz-adv-x="549" 
d="M466 719l-0.000976562 -1c-77.333 -99.333 -119.666 -153 -126.999 -161h-124l-1 1h-1l88 161h165zM289.999 507c102 0 171.999 -46.334 209.999 -139.001c13.333 -36.667 20 -75.667 20 -117c-2 -44.667 -5 -67.667 -9 -69h-255c-11.333 20.667 -17 45.334 -17 74.001
c0 22 3.33301 38.667 10 50h102v1c0 33.333 -12.667 57.333 -38 72c-10 5.33301 -21 8 -33 8c-41.333 0 -71.666 -27.333 -90.999 -82c-5.33301 -18.667 -8 -37 -8 -55v-1c0 -45.333 13.333 -81 40 -107c21.333 -19.333 54.333 -29 99 -29c40 0 89.667 8.66699 149 26
l23 -121c-54 -20.667 -113.667 -31 -179 -31h-14c-106.667 0 -184.667 37.333 -234 112c-22.667 41.333 -34 86.666 -34 135.999v10c0 70.667 25.667 134.334 77 191.001c48 47.333 108.667 71 182 71z" />
    <glyph glyph-name="ecircumflex" unicode="&#xea;" horiz-adv-x="551" 
d="M227 720l122.999 0.000976562c2.66699 -2.66699 33 -49.334 91 -140.001c8.66699 -12 13.334 -19.333 14.001 -22h-116c-2.66699 3.33301 -19 32 -49 86l-1 1h-1c-30 -55.333 -46.667 -84.333 -50 -87h-115l-1 1h-1zM296.999 508.001
c102 0 171.999 -46.334 209.999 -139.001c13.333 -36.667 20 -75.667 20 -117c-2 -44.667 -5 -67.667 -9 -69h-255c-11.333 20.667 -17 45.334 -17 74.001c0 22 3.33301 38.667 10 50h102v1c0 33.333 -12.667 57.333 -38 72c-10 5.33301 -21 8 -33 8
c-41.333 0 -71.666 -27.333 -90.999 -82c-5.33301 -18.667 -8 -37 -8 -55v-1c0 -45.333 13.333 -81 40 -107c21.333 -19.333 54.333 -29 99 -29c40 0 89.667 8.66699 149 26l23 -121c-54 -20.667 -113.667 -31 -179 -31h-14c-106.667 0 -184.667 37.333 -234 112
c-22.667 41.333 -34 86.666 -34 135.999v10c0 70.667 25.667 134.334 77 191.001c48 47.333 108.667 71 182 71z" />
    <glyph glyph-name="edieresis" unicode="&#xeb;" horiz-adv-x="539" 
d="M202 181c2.66699 -18.667 16.6689 -33.6689 42.002 -45.002c23.333 -10.667 51.666 -16 84.999 -16c49.333 0 94 6.33301 134 19l23 -120c-28 -10.667 -58.333 -18.667 -91 -24c-29.333 -4.66699 -60.333 -7 -93 -7c-86 0 -152.667 22.333 -200 67
c-47.333 44 -71 105.333 -71 184c0 66 20 124 60 174c21.333 27.333 47.666 48.333 78.999 63c34 16.667 72.667 25 116 25c75.333 0 133 -25 173 -75c36 -45.333 54 -104.333 54 -177c0 -13.333 -0.666992 -26.666 -2 -39.999c-1.33301 -11.333 -3 -20.666 -5 -27.999h-304
zM347.002 302.998c0 19.333 -4.66699 36.332 -14 50.999c-12 19.333 -30.667 29 -56 29c-24 0 -43 -9.33301 -57 -28c-11.333 -15.333 -18 -32.666 -20 -51.999h147zM176.002 548.997c-53.333 0 -80 26.333 -80 79s27 79 81 79c50.667 0 76 -26.333 76 -79
s-25.333 -79 -76 -79h-1zM396.002 548.997c-52 0 -78 26.333 -78 79s26.667 79 80 79c51.333 0 77 -26.333 77 -79s-25.667 -79 -77 -79h-2z" />
    <glyph glyph-name="igrave" unicode="&#xec;" horiz-adv-x="292" 
d="M55 0v492h181v-492h-181zM128 706l85 -156h-123l-122 156h160z" />
    <glyph glyph-name="iacute" unicode="&#xed;" horiz-adv-x="292" 
d="M55 0v492h181v-492h-181zM320 706l-123 -156h-122l85 156h160z" />
    <glyph glyph-name="icircumflex" unicode="&#xee;" horiz-adv-x="292" 
d="M55 0v492h181v-492h-181zM207 706l101 -156h-113l-47 84h-2l-47 -84h-114l102 156h120z" />
    <glyph glyph-name="idieresis" unicode="&#xef;" horiz-adv-x="292" 
d="M55 0v492h181v-492h-181zM36 551c-53.333 0 -80 26.333 -80 79s27 79 81 79c50.667 0 76 -26.333 76 -79s-25.333 -79 -76 -79h-1zM256 551c-52 0 -78 26.333 -78 79s26.667 79 80 79c51.333 0 77 -26.333 77 -79s-25.667 -79 -77 -79h-2z" />
    <glyph glyph-name="eth" unicode="&#xf0;" horiz-adv-x="589" 
d="M155 739c60 -20 116.334 -46.999 169.001 -80.999l149 61l34 -68v0l-107 -44v-1c110 -91.333 165 -205 165 -341c0 -120.667 -50.333 -205.334 -151 -254.001c-37.333 -14.667 -64.333 -22 -81 -22l-8 -2v1v136c31.333 19.333 47 60.333 47 123c0 64 -13 101.667 -39 113
c-10.667 7.33301 -22.667 11 -36 11h-5c-38.667 0 -64.334 -29 -77.001 -87c-2 -13.333 -3 -26.333 -3 -39v-4c0.666992 -59.333 17 -98 49 -116c6.66699 -2.66699 10 -4.33398 10 -5.00098v-132l-2 -1c-28.667 0 -64.667 8.66699 -108 26c-24 10 -51 29.667 -81 59
c-40.667 48.667 -61 104.334 -61 167.001v11c0 70 28.667 129 86 177c49.333 37.333 105 56 167 56c14.667 0 30 -3.33301 46 -10l1 1v1c-24 26.667 -42 43.667 -54 51l-21 14l-150 -61l-31 68v2l102 44v2c-29.333 15.333 -59.333 29 -90 41l-1 1v1c50 63.333 77 97 81 101z
" />
    <glyph glyph-name="ntilde" unicode="&#xf1;" horiz-adv-x="599" 
d="M55 324c0 30 -0.332031 60.667 -0.999023 92l-3 76h156l8 -63h3c5.33301 8 11.666 15.667 18.999 23c9.33301 8.66699 19.666 16.667 30.999 24c29.333 18 62 27 98 27c118.667 0 178 -71 178 -213v-290h-181v268c0 60 -21 90 -63 90c-16 0 -29.333 -4.66699 -40 -14
c-7.33301 -7.33301 -13.666 -17 -18.999 -29c-3.33301 -7.33301 -5 -19.333 -5 -36v-279h-181v324zM151.001 553c-4 96 25.332 144 87.999 144c20 0 42 -6.66699 66 -20l23 -14c8 -4 14.667 -6 20 -6c14 0 22.333 15 25 45h80c3.33301 -93.333 -26 -140 -88 -140
c-13.333 0 -26.333 2.33301 -39 7l-25 11c-2 0.666992 -4.66699 2 -8 4c-2 0.666992 -4 1.66699 -6 3l-14 8c-5.33301 2.66699 -10.666 4 -15.999 4c-15.333 0 -23.333 -15.333 -24 -46h-82z" />
    <glyph glyph-name="ograve" unicode="&#xf2;" horiz-adv-x="597" 
d="M122 720l165 0.000976562c58.667 -105.333 88 -159 88 -161h-126c-2.66699 1.33301 -45 54.666 -127 159.999v1zM490 63.001c48 46.667 72 108.999 72 186.999c0 73.333 -22.667 132.666 -68 177.999c-42.667 42.667 -98.667 66.334 -168 71.001v-130
c34.667 -14.667 52 -55.667 52 -123c0 -36 -5.66699 -65.333 -17 -88c-14 -26.667 -34.667 -40 -62 -40c-24.667 0 -43.667 13 -57 39c-11.333 22.667 -17 52.334 -17 89.001c0 71.333 18.333 113.333 55 126v127c-68 -4.66699 -123.667 -28 -167 -70
c-48 -46 -72 -108.667 -72 -188c0 -73.333 23 -133 69 -179c46.667 -46.667 108 -70 184 -70c82.667 0 148 23.667 196 71z" />
    <glyph glyph-name="oacute" unicode="&#xf3;" horiz-adv-x="601" 
d="M478 724v-0.999023c-82 -104.667 -124.333 -158.334 -127 -161.001h-124l-1 1h-1l88 161h165zM490 63.001c48 46.667 72 108.999 72 186.999c0 73.333 -22.667 132.666 -68 177.999c-42.667 42.667 -98.667 66.334 -168 71.001v-130c34.667 -14.667 52 -55.667 52 -123
c0 -36 -5.66699 -65.333 -17 -88c-14 -26.667 -34.667 -40 -62 -40c-24.667 0 -43.667 13 -57 39c-11.333 22.667 -17 52.334 -17 89.001c0 71.333 18.333 113.333 55 126v127c-68 -4.66699 -123.667 -28 -167 -70c-48 -46 -72 -108.667 -72 -188c0 -73.333 23 -133 69 -179
c46.667 -46.667 108 -70 184 -70c82.667 0 148 23.667 196 71z" />
    <glyph glyph-name="ocircumflex" unicode="&#xf4;" horiz-adv-x="600" 
d="M361 724c1.33301 -0.666992 21.667 -31 61 -91l44 -69v-1h-116l-49 86l-1 1h-1l-49 -87h-116l-2 1l105 159l1 1h123zM490.001 63c48 46.667 72 108.999 72 186.999c0 73.333 -22.667 132.666 -68 177.999c-42.667 42.667 -98.667 66.334 -168 71.001v-130
c34.667 -14.667 52 -55.667 52 -123c0 -36 -5.66699 -65.333 -17 -88c-14 -26.667 -34.667 -40 -62 -40c-24.667 0 -43.667 13 -57 39c-11.333 22.667 -17 52.334 -17 89.001c0 71.333 18.333 113.333 55 126v127c-68 -4.66699 -123.667 -28 -167 -70
c-48 -46 -72 -108.667 -72 -188c0 -73.333 23 -133 69 -179c46.667 -46.667 108 -70 184 -70c82.667 0 148 23.667 196 71z" />
    <glyph glyph-name="otilde" unicode="&#xf5;" horiz-adv-x="601" 
d="M449 720l2.00098 -0.998047v-21c0 -66.667 -21.667 -106.334 -65 -119.001c-6.66699 -2.66699 -14 -4 -22 -4h-8c-24 0 -53.667 10.667 -89 32c-5.33301 4 -12 6.33301 -20 7c-11.333 0 -19 -10.333 -23 -31l-1 -13v-3l-1 -1h-83l-1 1v23c2 62 22 102 60 120
c11.333 3.33301 21.666 5 30.999 5c26 0 56.333 -11.333 91 -34c9.33301 -4.66699 17 -7 23 -7c8.66699 0 14.667 4 18 12c2 5.33301 4.33301 16.666 7 33.999h81zM490.001 63.002c48 46.667 72 108.999 72 186.999c0 73.333 -22.667 132.666 -68 177.999
c-42.667 42.667 -98.667 66.334 -168 71.001v-130c34.667 -14.667 52 -55.667 52 -123c0 -36 -5.66699 -65.333 -17 -88c-14 -26.667 -34.667 -40 -62 -40c-24.667 0 -43.667 13 -57 39c-11.333 22.667 -17 52.334 -17 89.001c0 71.333 18.333 113.333 55 126v127
c-68 -4.66699 -123.667 -28 -167 -70c-48 -46 -72 -108.667 -72 -188c0 -73.333 23 -133 69 -179c46.667 -46.667 108 -70 184 -70c82.667 0 148 23.667 196 71z" />
    <glyph glyph-name="odieresis" unicode="&#xf6;" horiz-adv-x="601" 
d="M181 728l6 0.000976562c30 0 52.667 -15 68 -45c5.33301 -10.667 8 -21.334 8 -32.001v-9c0 -24.667 -11.333 -45.667 -34 -63c-14 -10 -29.333 -15 -46 -15c-32.667 0 -57.667 15.667 -75 47c-5.33301 10 -8 21 -8 33v5c0 35.333 18.333 60.333 55 75
c9.33301 2.66699 18 4 26 4zM410 728.001h5c32.667 0 56.667 -16.667 72 -50c3.33301 -9.33301 5 -18 5 -26v-9c0 -30.667 -15.667 -54.667 -47 -72c-12.667 -4.66699 -23.667 -7 -33 -7c-37.333 0 -63.333 18.667 -78 56c-2.66699 8 -4 16.333 -4 25v3
c0 36 18 61.333 54 76c9.33301 2.66699 18 4 26 4zM490 63.001c48 46.667 72 108.999 72 186.999c0 73.333 -22.667 132.666 -68 177.999c-42.667 42.667 -98.667 66.334 -168 71.001v-130c34.667 -14.667 52 -55.667 52 -123c0 -36 -5.66699 -65.333 -17 -88
c-14 -26.667 -34.667 -40 -62 -40c-24.667 0 -43.667 13 -57 39c-11.333 22.667 -17 52.334 -17 89.001c0 71.333 18.333 113.333 55 126v127c-68 -4.66699 -123.667 -28 -167 -70c-48 -46 -72 -108.667 -72 -188c0 -73.333 23 -133 69 -179c46.667 -46.667 108 -70 184 -70
c82.667 0 148 23.667 196 71z" />
    <glyph glyph-name="divide" unicode="&#xf7;" horiz-adv-x="596" 
d="M297 361c-53.333 0 -80 27.333 -80 82s27.333 82 82 82c52.667 0 79.667 -27.333 81 -82c0 -54.667 -27.333 -82 -82 -82h-1zM40 213v108h516v-108h-516zM297 9c-53.333 0 -80 27.333 -80 82s27.333 82 82 82c52.667 0 79.667 -27.333 81 -82
c0 -54.667 -27.333 -82 -82 -82h-1z" />
    <glyph glyph-name="oslash" unicode="&#xf8;" horiz-adv-x="589" 
d="M295 503c44.667 0 83.333 -7.66797 116 -23.001l49 73l59 -41l-47 -70c57.333 -46 86 -111.333 86 -196c0 -81.333 -27 -145.666 -81 -192.999c-48.667 -42.667 -109 -64 -181 -64c-43.333 0 -81 7.33301 -113 22l-51 -75l-57 45l46 67c-60 45.333 -90 111 -90 197
c0 76.667 24 138.667 72 186c48 48 111.667 72 191 72h1zM333.999 362.999c-12 8.66699 -25.333 13 -40 13c-30.667 0 -54 -14 -70 -42c-13.333 -24 -20 -53.333 -20 -88c0 -25.333 3.33301 -45 10 -59l2 -1zM257.999 128.999c8.66699 -8.66699 21.333 -13 38 -13
c59.333 0 89 42 89 126c0 22.667 -2.33301 42 -7 58l-3 1z" />
    <glyph glyph-name="ugrave" unicode="&#xf9;" horiz-adv-x="598" 
d="M541 168c0 -32 0.333984 -63.333 1.00098 -94c0.666992 -24 1.66699 -48.667 3 -74h-156l-8 65h-3c-13.333 -20 -29.333 -36 -48 -48c-28.667 -18.667 -62.334 -28 -101.001 -28c-116.667 0 -175 71 -175 213v290h181v-261c0 -64.667 21 -97 63 -97c28.667 0 48 14 58 42
c2.66699 6 4 14.667 4 26v290h181v-324zM288.001 706l85 -156h-123l-122 156h160z" />
    <glyph glyph-name="uacute" unicode="&#xfa;" horiz-adv-x="598" 
d="M541 168c0 -32 0.333984 -63.333 1.00098 -94c0.666992 -24 1.66699 -48.667 3 -74h-156l-8 65h-3c-13.333 -20 -29.333 -36 -48 -48c-28.667 -18.667 -62.334 -28 -101.001 -28c-116.667 0 -175 71 -175 213v290h181v-261c0 -64.667 21 -97 63 -97c28.667 0 48 14 58 42
c2.66699 6 4 14.667 4 26v290h181v-324zM473.001 706l-123 -156h-122l85 156h160z" />
    <glyph glyph-name="ucircumflex" unicode="&#xfb;" horiz-adv-x="598" 
d="M541 168c0 -32 0.333984 -63.333 1.00098 -94c0.666992 -24 1.66699 -48.667 3 -74h-156l-8 65h-3c-13.333 -20 -29.333 -36 -48 -48c-28.667 -18.667 -62.334 -28 -101.001 -28c-116.667 0 -175 71 -175 213v290h181v-261c0 -64.667 21 -97 63 -97c28.667 0 48 14 58 42
c2.66699 6 4 14.667 4 26v290h181v-324zM360.001 706l101 -156h-113l-47 84h-2l-47 -84h-114l102 156h120z" />
    <glyph glyph-name="udieresis" unicode="&#xfc;" horiz-adv-x="598" 
d="M541 168c0 -32 0.333984 -63.333 1.00098 -94c0.666992 -24 1.66699 -48.667 3 -74h-156l-8 65h-3c-13.333 -20 -29.333 -36 -48 -48c-28.667 -18.667 -62.334 -28 -101.001 -28c-116.667 0 -175 71 -175 213v290h181v-261c0 -64.667 21 -97 63 -97c28.667 0 48 14 58 42
c2.66699 6 4 14.667 4 26v290h181v-324zM192.001 551c-53.333 0 -80 26.333 -80 79s27 79 81 79c50.667 0 76 -26.333 76 -79s-25.333 -79 -76 -79h-1zM412.001 551c-52 0 -78 26.333 -78 79s26.667 79 80 79c51.333 0 77 -26.333 77 -79s-25.667 -79 -77 -79h-2z" />
    <glyph glyph-name="yacute" unicode="&#xfd;" horiz-adv-x="545" 
d="M205 492l59.002 -220.998l21 -88h4l63 309h192l-105 -313c-34.667 -97.333 -66.334 -172 -95.001 -224c-24.667 -44 -51.334 -78.667 -80.001 -104c-26 -22.667 -54.667 -40.334 -86 -53.001c-24.667 -10 -50.667 -16.333 -78 -19l-37 152
c21.333 3.33301 42 9.66602 62 18.999c22.667 8.66699 42 23.667 58 45c6 8.66699 9 16 9 22c0 3.33301 -0.333008 7 -1 11c-1.33301 4.66699 -3.33301 9.66699 -6 15l-180 449h200zM462.002 706.002l-123 -156h-122l85 156h160z" />
    <glyph glyph-name="thorn" unicode="&#xfe;" horiz-adv-x="610" 
d="M236 680v-241h2c30 42.667 76 64 138 64c54 1.33301 100.333 -19.667 139 -63c42.667 -48 64 -111.667 64 -191c0 -43.333 -7 -82.333 -21 -117c-12 -32 -29.667 -59 -53 -81c-41.333 -41.333 -90 -62 -146 -62c-54 0 -94.333 16.333 -121 49h-2v-236h-181v878h181z
M236 203c0 -19.333 5.33398 -35.333 16.001 -48c16.667 -19.333 35.667 -29 57 -29c58 0 87 40 87 120c0 77.333 -27.333 116 -82 116c-30.667 0 -53.334 -13 -68.001 -39c-6.66699 -12 -10 -24.667 -10 -38v-82z" />
    <glyph glyph-name="ydieresis" unicode="&#xff;" horiz-adv-x="545" 
d="M205 492l59.002 -220.998l21 -88h4l63 309h192l-105 -313c-34.667 -97.333 -66.334 -172 -95.001 -224c-24.667 -44 -51.334 -78.667 -80.001 -104c-26 -22.667 -54.667 -40.334 -86 -53.001c-24.667 -10 -50.667 -16.333 -78 -19l-37 152
c21.333 3.33301 42 9.66602 62 18.999c22.667 8.66699 42 23.667 58 45c6 8.66699 9 16 9 22c0 3.33301 -0.333008 7 -1 11c-1.33301 4.66699 -3.33301 9.66699 -6 15l-180 449h200zM175.002 551.002c-53.333 0 -80 26.333 -80 79s27 79 81 79c50.667 0 76 -26.333 76 -79
s-25.333 -79 -76 -79h-1zM395.002 551.002c-52 0 -78 26.333 -78 79s26.667 79 80 79c51.333 0 77 -26.333 77 -79s-25.667 -79 -77 -79h-2z" />
    <glyph glyph-name="Amacron" unicode="&#x100;" horiz-adv-x="675" 
d="M239 156l-38 -156h-187l196 674h240l201 -674h-195l-43 156h-174zM388 289l-31 121l-33 133h-2l-30 -133l-29 -121h125zM467 827v-92h-268v92h268z" />
    <glyph glyph-name="amacron" unicode="&#x101;" horiz-adv-x="548" 
d="M493 120c0 -53.333 2.66699 -93.3311 8 -119.998h-163l-9 43h-4c-31.333 -36 -76.666 -54 -135.999 -54c-48.667 0 -88.334 15.667 -119.001 47c-29.333 29.333 -44 65.333 -44 108c0 63.333 26.667 111.666 80 144.999c50 30.667 118.667 46 206 46v4
c0 12 -5.33301 21.667 -16 29c-13.333 8.66699 -35 13 -65 13c-24 0 -49.667 -3.66699 -77 -11c-23.333 -6.66699 -44 -15 -62 -25l-31 113c20.667 11.333 45.667 21 75 29c40.667 10.667 83.667 16 129 16c80 0 139 -20.667 177 -62c34 -36.667 51 -88.334 51 -155.001
v-166zM318 225.002c-76.667 0 -115 -21.333 -115 -64c0 -31.333 17 -47 51 -47c31.333 0 52 15 62 45c1.33301 5.33301 2 14 2 26v40zM405 675.002v-96h-261v96h261z" />
    <glyph glyph-name="Abreve" unicode="&#x102;" horiz-adv-x="675" 
d="M239 156l-38 -156h-187l196 674h240l201 -674h-195l-43 156h-174zM388 289l-31 121l-33 133h-2l-30 -133l-29 -121h125zM281 841c2.66699 -30 20.333 -45 53 -45c33.333 0 53 15 59 45h89c-1.33301 -90 -50.333 -135 -147 -135c-49.333 0 -86.333 12.667 -111 38
c-22.667 22.667 -34.667 55 -36 97h93z" />
    <glyph glyph-name="abreve" unicode="&#x103;" horiz-adv-x="548" 
d="M493 120c0 -53.333 2.66699 -93.3311 8 -119.998h-163l-9 43h-4c-31.333 -36 -76.666 -54 -135.999 -54c-48.667 0 -88.334 15.667 -119.001 47c-29.333 29.333 -44 65.333 -44 108c0 63.333 26.667 111.666 80 144.999c50 30.667 118.667 46 206 46v4
c0 12 -5.33301 21.667 -16 29c-13.333 8.66699 -35 13 -65 13c-24 0 -49.667 -3.66699 -77 -11c-23.333 -6.66699 -44 -15 -62 -25l-31 113c20.667 11.333 45.667 21 75 29c40.667 10.667 83.667 16 129 16c80 0 139 -20.667 177 -62c34 -36.667 51 -88.334 51 -155.001
v-166zM318 225.002c-76.667 0 -115 -21.333 -115 -64c0 -31.333 17 -47 51 -47c31.333 0 52 15 62 45c1.33301 5.33301 2 14 2 26v40zM220 697.002c5.33301 -38.667 22.998 -58 52.998 -58c36 0 54.667 19.333 56 58h90c-1.33301 -100.667 -49.666 -151 -144.999 -151
s-143.666 50.333 -144.999 151h91z" />
    <glyph glyph-name="Aogonek" unicode="&#x104;" horiz-adv-x="675" 
d="M651 0l-100 0.000976562c-8.66699 -20 -13 -39 -13 -57c0 -38.667 18.667 -58 56 -58c16.667 0 31 2 43 6l24 -81c-30.667 -23.333 -67.667 -35 -111 -35c-80.667 0 -121 38.333 -121 115c0 19.333 4 41.666 12 66.999l15 43l-43 156h-174l-38 -156h-187l196 674h240z
M388 289.001l-31 121l-33 133h-2l-30 -133l-29 -121h125z" />
    <glyph glyph-name="aogonek" unicode="&#x105;" horiz-adv-x="548" 
d="M493 120c0 -53.333 2.66602 -93.3301 7.99902 -119.997h-67c-8.66699 -21.333 -13 -41.333 -13 -60c0 -34.667 15.667 -52 47 -52c16.667 0 31.334 3 44.001 9l25 -82c-34 -26 -72.667 -39 -116 -39c-72.667 0 -109 36.333 -109 109c0 21.333 3.66699 44.666 11 69.999
l15 45l-9 43h-4c-31.333 -36 -76.666 -54 -135.999 -54c-48.667 0 -88.334 15.667 -119.001 47c-29.333 29.333 -44 65.333 -44 108c0 63.333 26.667 111.666 80 144.999c50 30.667 118.667 46 206 46v4c0 12 -5.33301 21.667 -16 29c-13.333 8.66699 -35 13 -65 13
c-24 0 -49.667 -3.66699 -77 -11c-23.333 -6.66699 -44 -15 -62 -25l-31 113c20.667 11.333 45.667 21 75 29c40.667 10.667 83.667 16 129 16c80 0 139 -20.667 177 -62c34 -36.667 51 -88.334 51 -155.001v-166zM317.999 225.003c-76.667 0 -115 -21.333 -115 -64
c0 -31.333 17 -47 51 -47c31.333 0 52 15 62 45c1.33301 5.33301 2 14 2 26v40z" />
    <glyph glyph-name="Cacute" unicode="&#x106;" horiz-adv-x="602" 
d="M566 18c-14 -7.33301 -35.333 -13.666 -64 -18.999c-32.667 -6 -67.667 -9 -105 -9c-119.333 0 -211.333 33.667 -276 101c-58 60 -87 138.333 -87 235c0 113.333 37.333 202.666 112 267.999c68.667 60 156.334 90 263.001 90c36 0 70 -3 102 -9
c28.667 -5.33301 50.667 -12 66 -20l-35 -143c-16.667 7.33301 -34.334 13 -53.001 17c-23.333 4.66699 -47.333 7 -72 7c-55.333 0 -100.333 -16 -135 -48c-38.667 -35.333 -58 -85.333 -58 -150c0 -132 65.667 -198 197 -198c48 0 88 6.33301 120 19zM551 836l-120 -126
h-144l81 126h183z" />
    <glyph glyph-name="cacute" unicode="&#x107;" horiz-adv-x="452" 
d="M433 11c-28.667 -14 -73.667 -21 -135 -21c-82 0 -147 22.667 -195 68c-48 44.667 -72 106 -72 184c0 74 24.333 135 73 183c52 51.333 124 77 216 77c42 0 79.667 -5.66699 113 -17l-25 -132c-19.333 8 -45.333 12 -78 12c-77.333 0 -115.333 -39 -114 -117
c0 -38 12 -67.667 36 -89c21.333 -19.333 49 -29 83 -29c30.667 0 57 4.33301 79 13zM446 706l-123 -156h-122l85 156h160z" />
    <glyph glyph-name="Ccircumflex" unicode="&#x108;" horiz-adv-x="602" 
d="M566 18c-14 -7.33301 -35.333 -13.666 -64 -18.999c-32.667 -6 -67.667 -9 -105 -9c-119.333 0 -211.333 33.667 -276 101c-58 60 -87 138.333 -87 235c0 113.333 37.333 202.666 112 267.999c68.667 60 156.334 90 263.001 90c36 0 70 -3 102 -9
c28.667 -5.33301 50.667 -12 66 -20l-35 -143c-16.667 7.33301 -34.334 13 -53.001 17c-23.333 4.66699 -47.333 7 -72 7c-55.333 0 -100.333 -16 -135 -48c-38.667 -35.333 -58 -85.333 -58 -150c0 -132 65.667 -198 197 -198c48 0 88 6.33301 120 19zM431 840l99 -126
h-121l-45 59h-2l-44 -59h-121l99 126h135z" />
    <glyph glyph-name="ccircumflex" unicode="&#x109;" horiz-adv-x="452" 
d="M433 11c-28.667 -14 -73.667 -21 -135 -21c-82 0 -147 22.667 -195 68c-48 44.667 -72 106 -72 184c0 74 24.333 135 73 183c52 51.333 124 77 216 77c42 0 79.667 -5.66699 113 -17l-25 -132c-19.333 8 -45.333 12 -78 12c-77.333 0 -115.333 -39 -114 -117
c0 -38 12 -67.667 36 -89c21.333 -19.333 49 -29 83 -29c30.667 0 57 4.33301 79 13zM328 706l101 -156h-113l-47 84h-2l-47 -84h-114l102 156h120z" />
    <glyph glyph-name="Cdotaccent" unicode="&#x10a;" horiz-adv-x="602" 
d="M566 18c-14 -7.33301 -35.333 -13.666 -64 -18.999c-32.667 -6 -67.667 -9 -105 -9c-119.333 0 -211.333 33.667 -276 101c-58 60 -87 138.333 -87 235c0 113.333 37.333 202.666 112 267.999c68.667 60 156.334 90 263.001 90c36 0 70 -3 102 -9
c28.667 -5.33301 50.667 -12 66 -20l-35 -143c-16.667 7.33301 -34.334 13 -53.001 17c-23.333 4.66699 -47.333 7 -72 7c-55.333 0 -100.333 -16 -135 -48c-38.667 -35.333 -58 -85.333 -58 -150c0 -132 65.667 -198 197 -198c48 0 88 6.33301 120 19zM364 709
c-52 0 -78 25.333 -78 76c0 51.333 26.333 77 79 77c50 0 75 -25.667 75 -77c0 -50.667 -25 -76 -75 -76h-1z" />
    <glyph glyph-name="cdotaccent" unicode="&#x10b;" horiz-adv-x="452" 
d="M433 11c-28.667 -14 -73.667 -21 -135 -21c-82 0 -147 22.667 -195 68c-48 44.667 -72 106 -72 184c0 74 24.333 135 73 183c52 51.333 124 77 216 77c42 0 79.667 -5.66699 113 -17l-25 -132c-19.333 8 -45.333 12 -78 12c-77.333 0 -115.333 -39 -114 -117
c0 -38 12 -67.667 36 -89c21.333 -19.333 49 -29 83 -29c30.667 0 57 4.33301 79 13zM283 551c-53.333 0 -80 26.333 -80 79s27 79 81 79c50.667 0 76 -26.333 76 -79s-25.333 -79 -76 -79h-1z" />
    <glyph glyph-name="Ccaron" unicode="&#x10c;" horiz-adv-x="602" 
d="M566 18c-14 -7.33301 -35.333 -13.666 -64 -18.999c-32.667 -6 -67.667 -9 -105 -9c-119.333 0 -211.333 33.667 -276 101c-58 60 -87 138.333 -87 235c0 113.333 37.333 202.666 112 267.999c68.667 60 156.334 90 263.001 90c36 0 70 -3 102 -9
c28.667 -5.33301 50.667 -12 66 -20l-35 -143c-16.667 7.33301 -34.334 13 -53.001 17c-23.333 4.66699 -47.333 7 -72 7c-55.333 0 -100.333 -16 -135 -48c-38.667 -35.333 -58 -85.333 -58 -150c0 -132 65.667 -198 197 -198c48 0 88 6.33301 120 19zM298 710l-99 126h121
l45 -59h2l44 59h121l-99 -126h-135z" />
    <glyph glyph-name="ccaron" unicode="&#x10d;" horiz-adv-x="452" 
d="M433 11c-28.667 -14 -73.667 -21 -135 -21c-82 0 -147 22.667 -195 68c-48 44.667 -72 106 -72 184c0 74 24.333 135 73 183c52 51.333 124 77 216 77c42 0 79.667 -5.66699 113 -17l-25 -132c-19.333 8 -45.333 12 -78 12c-77.333 0 -115.333 -39 -114 -117
c0 -38 12 -67.667 36 -89c21.333 -19.333 49 -29 83 -29c30.667 0 57 4.33301 79 13zM212 550l-101 156h113l47 -84h2l47 84h114l-102 -156h-120z" />
    <glyph glyph-name="Dcaron" unicode="&#x10e;" horiz-adv-x="710" 
d="M62 664c58 10 129.667 14.999 215 14.999c120.667 0 213 -22.333 277 -67c38.667 -26.667 68.334 -60.667 89.001 -102c22 -44.667 33 -97 33 -157c0 -65.333 -11.333 -122.666 -34 -171.999c-20 -42.667 -47.667 -78 -83 -106
c-70.667 -55.333 -176.334 -83 -317.001 -83c-40 0 -76.333 1.33301 -109 4c-27.333 2 -51 4.66699 -71 8v660zM243 133.999c4 -0.666992 10.001 -1.33398 18.001 -2.00098h20c62 -1.33301 110.667 15.334 146 50.001c38.667 37.333 58 92.333 58 165
c0 63.333 -17.667 112.333 -53 147c-32.667 31.333 -77.334 47 -134.001 47c-24.667 0 -43 -1.33301 -55 -4v-403zM260.001 709.999l-99 126h121l45 -59h2l44 59h121l-99 -126h-135z" />
    <glyph glyph-name="dcaron" unicode="&#x10f;" horiz-adv-x="620" 
d="M555 711l0.000976562 -555.999c0 -59.333 1.33301 -111 4 -155h-161l-7 66h-2c-15.333 -26 -37 -45.667 -65 -59c-25.333 -12 -53 -18 -83 -18c-58.667 0 -108 23 -148 69c-40.667 47.333 -61 108.666 -61 183.999c-0.666992 80 21.333 144.333 66 193
c41.333 45.333 92.666 68 153.999 68c58 0 98 -16 120 -48h2v256h181zM374.001 291.001c-0.666992 4 -0.998047 7.66699 -0.998047 11c-8.66699 42 -32.334 63 -71.001 63c-28.667 0 -50.667 -11.667 -66 -35c-14 -21.333 -21 -49 -21 -83c0 -76.667 28.667 -115 86 -115
c39.333 0 62.666 19.667 69.999 59c2 6.66699 3 17.667 3 33v67zM593.003 529.001c16 32 24 67.667 24 107c0 23.333 -5 46.333 -15 69l110 18c20 -16 30 -41.333 30 -76c0 -22 -3 -43 -9 -63c-5.33301 -17.333 -12.333 -33.333 -21 -48
c-6.66699 -12 -14.667 -23.333 -24 -34l-18 -18z" />
    <glyph glyph-name="Dcroat" unicode="&#x110;" horiz-adv-x="719" 
d="M4 415h66.999v252c58 10 129.667 15 215 15c124 0 216.333 -21.667 277 -65c81.333 -56 122 -143.333 122 -262c0 -65.333 -11.333 -123 -34 -173c-20 -44.667 -47.667 -80.667 -83 -108c-70 -56 -175.667 -84 -317 -84c-38 0 -74.333 1.33301 -109 4
c-13.333 0.666992 -26.666 1.66699 -39.999 3l-31 3v274h-67v141zM365.999 274h-114v-142l18 -2h20c63.333 0 112.333 17 147 51c38 36.667 57 92.667 57 168c0 66.667 -17.667 116.667 -53 150c-32 30 -76.667 45 -134 45c-24.667 0 -43 -1.33301 -55 -4v-125h114v-141z
" />
    <glyph glyph-name="dcroat" unicode="&#x111;" horiz-adv-x="610" 
d="M555 535l0.000976562 -379.999c0 -59.333 1.33301 -111 4 -155h-161l-7 66h-2c-15.333 -26 -37 -45.667 -65 -59c-25.333 -12 -53 -18 -83 -18c-58.667 0 -108 23 -148 69c-40.667 47.333 -61 108.666 -61 183.999c-0.666992 80 21.333 144.333 66 193
c41.333 45.333 92.666 68 153.999 68c58 0 98 -16 120 -48h2v80h-173v96h173v80h181v-80h82v-96h-82zM374.001 291.001c-0.666992 4 -0.998047 7.66699 -0.998047 11c-8.66699 42 -32.334 63 -71.001 63c-28.667 0 -50.667 -11.667 -66 -35c-14 -21.333 -21 -49 -21 -83
c0 -76.667 28.667 -115 86 -115c39.333 0 62.666 19.667 69.999 59c2 6.66699 3 17.667 3 33v67z" />
    <glyph glyph-name="Emacron" unicode="&#x112;" horiz-adv-x="552" 
d="M485 272h-242v-124h271v-148h-452v674h438v-148h-257v-108h242v-146zM411 827v-92h-268v92h268z" />
    <glyph glyph-name="emacron" unicode="&#x113;" horiz-adv-x="539" 
d="M202 183c2.66699 -18.667 16.6689 -33.6689 42.002 -45.002c23.333 -10.667 51.666 -16 84.999 -16c49.333 0 94 6.33301 134 19l23 -120c-28 -10.667 -58.333 -18.667 -91 -24c-29.333 -4.66699 -60.333 -7 -93 -7c-86 0 -152.667 22.333 -200 67
c-47.333 44 -71 105.333 -71 184c0 66 20 124 60 174c21.333 27.333 47.666 48.333 78.999 63c34 16.667 72.667 25 116 25c75.333 0 133 -25 173 -75c36 -45.333 54 -104.333 54 -177c0 -13.333 -0.666992 -26.666 -2 -39.999c-1.33301 -11.333 -3 -20.666 -5 -27.999h-304
zM347.002 304.998c0 19.333 -4.66699 36.332 -14 50.999c-12 19.333 -30.667 29 -56 29c-24 0 -43 -9.33301 -57 -28c-11.333 -15.333 -18 -32.666 -20 -51.999h147zM405.002 674.997v-96h-261v96h261z" />
    <glyph glyph-name="Ebreve" unicode="&#x114;" horiz-adv-x="552" 
d="M485 272h-242v-124h271v-148h-452v674h438v-148h-257v-108h242v-146zM232 842c2.66699 -30 20.333 -45 53 -45c33.333 0 53 15 59 45h89c-1.33301 -90 -50.333 -135 -147 -135c-49.333 0 -86.333 12.667 -111 38c-22.667 22.667 -34.667 55 -36 97h93z" />
    <glyph glyph-name="ebreve" unicode="&#x115;" horiz-adv-x="539" 
d="M202 183c2.66699 -18.667 16.6689 -33.6689 42.002 -45.002c23.333 -10.667 51.666 -16 84.999 -16c49.333 0 94 6.33301 134 19l23 -120c-28 -10.667 -58.333 -18.667 -91 -24c-29.333 -4.66699 -60.333 -7 -93 -7c-86 0 -152.667 22.333 -200 67
c-47.333 44 -71 105.333 -71 184c0 66 20 124 60 174c21.333 27.333 47.666 48.333 78.999 63c34 16.667 72.667 25 116 25c75.333 0 133 -25 173 -75c36 -45.333 54 -104.333 54 -177c0 -13.333 -0.666992 -26.666 -2 -39.999c-1.33301 -11.333 -3 -20.666 -5 -27.999h-304
zM347.002 304.998c0 19.333 -4.66699 36.332 -14 50.999c-12 19.333 -30.667 29 -56 29c-24 0 -43 -9.33301 -57 -28c-11.333 -15.333 -18 -32.666 -20 -51.999h147zM221.002 696.997c5.33301 -38.667 22.998 -58 52.998 -58c36 0 54.667 19.333 56 58h90
c-1.33301 -100.667 -49.666 -151 -144.999 -151s-143.666 50.333 -144.999 151h91z" />
    <glyph glyph-name="Edotaccent" unicode="&#x116;" horiz-adv-x="552" 
d="M485 272h-242v-124h271v-148h-452v674h438v-148h-257v-108h242v-146zM277 709c-52 0 -78 25.333 -78 76c0 51.333 26.333 77 79 77c50 0 75 -25.667 75 -77c0 -50.667 -25 -76 -75 -76h-1z" />
    <glyph glyph-name="edotaccent" unicode="&#x117;" horiz-adv-x="539" 
d="M202 183c2.66699 -18.667 16.6689 -33.6689 42.002 -45.002c23.333 -10.667 51.666 -16 84.999 -16c49.333 0 94 6.33301 134 19l23 -120c-28 -10.667 -58.333 -18.667 -91 -24c-29.333 -4.66699 -60.333 -7 -93 -7c-86 0 -152.667 22.333 -200 67
c-47.333 44 -71 105.333 -71 184c0 66 20 124 60 174c21.333 27.333 47.666 48.333 78.999 63c34 16.667 72.667 25 116 25c75.333 0 133 -25 173 -75c36 -45.333 54 -104.333 54 -177c0 -13.333 -0.666992 -26.666 -2 -39.999c-1.33301 -11.333 -3 -20.666 -5 -27.999h-304
zM347.002 304.998c0 19.333 -4.66699 36.332 -14 50.999c-12 19.333 -30.667 29 -56 29c-24 0 -43 -9.33301 -57 -28c-11.333 -15.333 -18 -32.666 -20 -51.999h147zM278.002 550.997c-53.333 0 -80 26.333 -80 79s27 79 81 79c50.667 0 76 -26.333 76 -79
s-25.333 -79 -76 -79h-1z" />
    <glyph glyph-name="Eogonek" unicode="&#x118;" horiz-adv-x="552" 
d="M522 -189c-30.667 -24 -70.667 -36 -120 -36c-72.667 0 -109 32.667 -109 98c0 26.667 7.33301 52 22 76c11.333 19.333 26.333 36.333 45 51h-298v674h437v-148h-256v-108h242v-146h-242v-124h270v-148h-29c-16.667 -11.333 -30.667 -24.333 -42 -39
c-13.333 -17.333 -20 -33 -20 -47c0 -19.333 11.333 -29 34 -29c13.333 0 27 2.66699 41 8z" />
    <glyph glyph-name="eogonek" unicode="&#x119;" horiz-adv-x="539" 
d="M463 -187c-31.333 -25.333 -70.3311 -38.0039 -116.998 -38.0039c-72 0 -108 29.667 -108 89c0 24.667 7.66699 49.334 23 74.001c10.667 18 24.667 35 42 51v1h-7c-83.333 0.666992 -148.333 23.334 -195 68.001c-46.667 44 -70 105 -70 183c0 66 20 124 60 174
c21.333 27.333 47.666 48.333 78.999 63c34 16.667 72.667 25 116 25c75.333 0 133 -25 173 -75c36 -45.333 54 -104.333 54 -177c0 -13.333 -0.666992 -26.666 -2 -39.999c-1.33301 -11.333 -3 -20.666 -5 -27.999h-304c2.66699 -18.667 16.667 -33.667 42 -45
c23.333 -10.667 51.666 -16 84.999 -16c49.333 0 94 6.33301 134 19l23 -120l-42 -15c-18.667 -9.33301 -36.667 -23 -54 -41c-18.667 -19.333 -28 -36.333 -28 -51c0 -19.333 10.667 -29 32 -29c14.667 0 29 3.33301 43 10zM347.002 304.996
c0 19.333 -4.33203 36.332 -12.999 50.999c-12.667 19.333 -31.334 29 -56.001 29c-24 0 -43.333 -9.33301 -58 -28c-11.333 -15.333 -18 -32.666 -20 -51.999h147z" />
    <glyph glyph-name="Ecaron" unicode="&#x11a;" horiz-adv-x="552" 
d="M485 272h-242v-124h271v-148h-452v674h438v-148h-257v-108h242v-146zM209 710l-99 126h121l45 -59h2l44 59h121l-99 -126h-135z" />
    <glyph glyph-name="ecaron" unicode="&#x11b;" horiz-adv-x="539" 
d="M202 183c2.66699 -18.667 16.6689 -33.6689 42.002 -45.002c23.333 -10.667 51.666 -16 84.999 -16c49.333 0 94 6.33301 134 19l23 -120c-28 -10.667 -58.333 -18.667 -91 -24c-29.333 -4.66699 -60.333 -7 -93 -7c-86 0 -152.667 22.333 -200 67
c-47.333 44 -71 105.333 -71 184c0 66 20 124 60 174c21.333 27.333 47.666 48.333 78.999 63c34 16.667 72.667 25 116 25c75.333 0 133 -25 173 -75c36 -45.333 54 -104.333 54 -177c0 -13.333 -0.666992 -26.666 -2 -39.999c-1.33301 -11.333 -3 -20.666 -5 -27.999h-304
zM347.002 304.998c0 19.333 -4.66699 36.332 -14 50.999c-12 19.333 -30.667 29 -56 29c-24 0 -43 -9.33301 -57 -28c-11.333 -15.333 -18 -32.666 -20 -51.999h147zM214.002 549.997l-101 156h113l47 -84h2l47 84h114l-102 -156h-120z" />
    <glyph glyph-name="Gcircumflex" unicode="&#x11c;" horiz-adv-x="697" 
d="M646 31c-30 -10 -64.335 -18.332 -103.002 -24.999c-46.667 -8.66699 -90 -13 -130 -13c-124.667 0 -219 30.333 -283 91s-96 141.667 -96 243c0.666992 113.333 39.334 201.666 116.001 264.999c71.333 59.333 164 89 278 89c42.667 0 82.334 -3.33301 119.001 -10
c31.333 -6 56.666 -13.667 75.999 -23l-36 -145c-20.667 9.33301 -42.667 16.333 -66 21c-27.333 5.33301 -58.666 8 -93.999 8c-59.333 0 -107 -15.333 -143 -46c-40 -34 -60 -83.667 -60 -149c0 -61.333 18 -110.333 54 -147c35.333 -34.667 81 -52 137 -52
c29.333 0 48.333 2 57 6v116h-90v140h264v-369zM447.998 840.001l99 -126h-121l-45 59h-2l-44 -59h-121l99 126h135z" />
    <glyph glyph-name="gcircumflex" unicode="&#x11d;" horiz-adv-x="596" 
d="M540 72c0 -47.333 -5.33301 -88.334 -16 -123.001c-12.667 -40.667 -33 -73 -61 -97c-26 -22.667 -58 -38.667 -96 -48c-32 -8.66699 -69 -13 -111 -13c-74.667 0 -135.667 12.333 -183 37l34 136c16.667 -9.33301 37 -17.333 61 -24c28 -8 55 -12 81 -12
c76 0 114 37 114 111v22h-2c-30 -36.667 -71 -55 -123 -55c-60.667 0 -110 22 -148 66c-39.333 44.667 -59 102.334 -59 173.001c0 76 21.667 138.333 65 187c42.667 47.333 95.334 71 158.001 71c57.333 0 99.666 -21.333 126.999 -64h2l6 53h155
c-1.33301 -18.667 -2.33301 -38 -3 -58c-0.666992 -26.667 -1 -57.667 -1 -93v-269zM360 288.999c0 3.33301 -0.333008 7.33301 -1 12c0 3.33301 -0.333008 7 -1 11c-8 37.333 -29.333 56 -64 56c-53.333 0 -80 -40 -80 -120c0 -74 26.667 -111 80 -111
c34.667 0 55.667 16.333 63 49c1.33301 4.66699 2.33301 10.667 3 18v85zM361 705.999l101 -156h-113l-47 84h-2l-47 -84h-114l102 156h120z" />
    <glyph glyph-name="Gbreve" unicode="&#x11e;" horiz-adv-x="697" 
d="M646 31c-30 -10 -64.335 -18.332 -103.002 -24.999c-46.667 -8.66699 -90 -13 -130 -13c-124.667 0 -219 30.333 -283 91s-96 141.667 -96 243c0.666992 113.333 39.334 201.666 116.001 264.999c71.333 59.333 164 89 278 89c42.667 0 82.334 -3.33301 119.001 -10
c31.333 -6 56.666 -13.667 75.999 -23l-36 -145c-20.667 9.33301 -42.667 16.333 -66 21c-27.333 5.33301 -58.666 8 -93.999 8c-59.333 0 -107 -15.333 -143 -46c-40 -34 -60 -83.667 -60 -149c0 -61.333 18 -110.333 54 -147c35.333 -34.667 81 -52 137 -52
c29.333 0 48.333 2 57 6v116h-90v140h264v-369zM333.998 847.001c2.66699 -30 20.333 -45 53 -45c33.333 0 53 15 59 45h89c-1.33301 -90 -50.333 -135 -147 -135c-49.333 0 -86.333 12.667 -111 38c-22.667 22.667 -34.667 55 -36 97h93z" />
    <glyph glyph-name="gbreve" unicode="&#x11f;" horiz-adv-x="596" 
d="M540 72c0 -47.333 -5.33301 -88.334 -16 -123.001c-12.667 -40.667 -33 -73 -61 -97c-26 -22.667 -58 -38.667 -96 -48c-32 -8.66699 -69 -13 -111 -13c-74.667 0 -135.667 12.333 -183 37l34 136c16.667 -9.33301 37 -17.333 61 -24c28 -8 55 -12 81 -12
c76 0 114 37 114 111v22h-2c-30 -36.667 -71 -55 -123 -55c-60.667 0 -110 22 -148 66c-39.333 44.667 -59 102.334 -59 173.001c0 76 21.667 138.333 65 187c42.667 47.333 95.334 71 158.001 71c57.333 0 99.666 -21.333 126.999 -64h2l6 53h155
c-1.33301 -18.667 -2.33301 -38 -3 -58c-0.666992 -26.667 -1 -57.667 -1 -93v-269zM360 288.999c0 3.33301 -0.333008 7.33301 -1 12c0 3.33301 -0.333008 7 -1 11c-8 37.333 -29.333 56 -64 56c-53.333 0 -80 -40 -80 -120c0 -74 26.667 -111 80 -111
c34.667 0 55.667 16.333 63 49c1.33301 4.66699 2.33301 10.667 3 18v85zM247 696.999c5.33301 -38.667 22.998 -58 52.998 -58c36 0 54.667 19.333 56 58h90c-1.33301 -100.667 -49.666 -151 -144.999 -151s-143.666 50.333 -144.999 151h91z" />
    <glyph glyph-name="Gdotaccent" unicode="&#x120;" horiz-adv-x="697" 
d="M646 31c-30 -10 -64.335 -18.332 -103.002 -24.999c-46.667 -8.66699 -90 -13 -130 -13c-124.667 0 -219 30.333 -283 91s-96 141.667 -96 243c0.666992 113.333 39.334 201.666 116.001 264.999c71.333 59.333 164 89 278 89c42.667 0 82.334 -3.33301 119.001 -10
c31.333 -6 56.666 -13.667 75.999 -23l-36 -145c-20.667 9.33301 -42.667 16.333 -66 21c-27.333 5.33301 -58.666 8 -93.999 8c-59.333 0 -107 -15.333 -143 -46c-40 -34 -60 -83.667 -60 -149c0 -61.333 18 -110.333 54 -147c35.333 -34.667 81 -52 137 -52
c29.333 0 48.333 2 57 6v116h-90v140h264v-369zM381.998 709.001c-52 0 -78 25.333 -78 76c0 51.333 26.333 77 79 77c50 0 75 -25.667 75 -77c0 -50.667 -25 -76 -75 -76h-1z" />
    <glyph glyph-name="gdotaccent" unicode="&#x121;" horiz-adv-x="596" 
d="M540 72c0 -47.333 -5.33301 -88.334 -16 -123.001c-12.667 -40.667 -33 -73 -61 -97c-26 -22.667 -58 -38.667 -96 -48c-32 -8.66699 -69 -13 -111 -13c-74.667 0 -135.667 12.333 -183 37l34 136c16.667 -9.33301 37 -17.333 61 -24c28 -8 55 -12 81 -12
c76 0 114 37 114 111v22h-2c-30 -36.667 -71 -55 -123 -55c-60.667 0 -110 22 -148 66c-39.333 44.667 -59 102.334 -59 173.001c0 76 21.667 138.333 65 187c42.667 47.333 95.334 71 158.001 71c57.333 0 99.666 -21.333 126.999 -64h2l6 53h155
c-1.33301 -18.667 -2.33301 -38 -3 -58c-0.666992 -26.667 -1 -57.667 -1 -93v-269zM360 288.999c0 3.33301 -0.333008 7.33301 -1 12c0 3.33301 -0.333008 7 -1 11c-8 37.333 -29.333 56 -64 56c-53.333 0 -80 -40 -80 -120c0 -74 26.667 -111 80 -111
c34.667 0 55.667 16.333 63 49c1.33301 4.66699 2.33301 10.667 3 18v85zM296 550.999c-53.333 0 -80 26.333 -80 79s27 79 81 79c50.667 0 76 -26.333 76 -79s-25.333 -79 -76 -79h-1z" />
    <glyph glyph-name="Gcommaaccent" unicode="&#x122;" horiz-adv-x="697" 
d="M646 31c-30 -10 -64.335 -18.332 -103.002 -24.999c-46.667 -8.66699 -90 -13 -130 -13c-124.667 0 -219 30.333 -283 91s-96 141.667 -96 243c0.666992 113.333 39.334 201.666 116.001 264.999c71.333 59.333 164 89 278 89c42.667 0 82.334 -3.33301 119.001 -10
c31.333 -6 56.666 -13.667 75.999 -23l-36 -145c-20.667 9.33301 -42.667 16.333 -66 21c-27.333 5.33301 -58.666 8 -93.999 8c-59.333 0 -107 -15.333 -143 -46c-40 -34 -60 -83.667 -60 -149c0 -61.333 18 -110.333 54 -147c35.333 -34.667 81 -52 137 -52
c29.333 0 48.333 2 57 6v116h-90v140h264v-369zM258.998 -174.999c41.333 9.33301 62 28.999 62 58.999c0 10 -3 21 -9 33l-18 26l123 19c26 -19.333 39 -46.333 39 -81c0 -42 -16.333 -74.333 -49 -97c-30 -21.333 -71 -32.666 -123 -33.999z" />
    <glyph glyph-name="gcommaaccent" unicode="&#x123;" horiz-adv-x="596" 
d="M540 72c0 -47.333 -5.33105 -88.333 -15.998 -123c-12.667 -40.667 -33 -73 -61 -97c-26 -22.667 -58 -38.667 -96 -48c-31.333 -8.66699 -68.333 -13 -111 -13c-74.667 0 -135.667 12.333 -183 37l34 136c16.667 -9.33301 37 -17.333 61 -24c28 -8 55 -12 81 -12
c76 0 114 37 114 111v22h-2c-28.667 -36.667 -69.334 -55 -122.001 -55c-60.667 0 -110.334 22 -149.001 66c-39.333 44 -59 101.667 -59 173c0 76 22 138.333 66 187c42 47.333 94.667 71 158 71c56.667 0 98.667 -21.333 126 -64h2l6 53h155
c-1.33301 -18.667 -2.33301 -38 -3 -58c-0.666992 -26.667 -1 -57.667 -1 -93v-269zM360.002 289c0 3.33301 -0.333008 7.33301 -1 12c0 3.33301 -0.333008 7 -1 11c-8 37.333 -29.333 56 -64 56c-53.333 0 -80 -40 -80 -120c0 -74 26.667 -111 80 -111
c34.667 0 55.667 16.333 63 49c1.33301 4.66699 2.33301 10.667 3 18v85zM403.002 669c-46.667 -6.66699 -70 -26 -70 -58c0 -9.33301 3.33301 -19 10 -29c4 -7.33301 10 -15.333 18 -24l-115 -17c-26 18 -39 42 -39 72c0 38 16.333 67 49 87
c29.333 18.667 70 28.667 122 30z" />
    <glyph glyph-name="Hcircumflex" unicode="&#x124;" horiz-adv-x="705" 
d="M243 674v-250h219v250h181v-674h-181v266h-219v-266h-181v674h181zM421 836l99 -126h-121l-45 59h-2l-44 -59h-121l99 126h135z" />
    <glyph glyph-name="hcircumflex" unicode="&#x125;" horiz-adv-x="599" 
d="M55 711h181.001v-271h2c15.333 18.667 34.666 34 57.999 46c22.667 11.333 47.667 17 75 17c115.333 0 173 -72.667 173 -218v-285h-181v265c0 62 -21.333 93 -64 93c-27.333 0 -47 -13 -59 -39c-2.66699 -7.33301 -4 -17 -4 -29v-290h-181v711zM219.001 863l99 -126
h-121l-45 59h-2l-44 -59h-121l99 126h135z" />
    <glyph glyph-name="Hbar" unicode="&#x126;" horiz-adv-x="720" 
d="M650 468v-468h-181v236h-218v-236h-181v468h-67v104h67v102h181v-102h218v102h181v-102h67v-104h-67zM469 468h-218v-74h218v74z" />
    <glyph glyph-name="hbar" unicode="&#x127;" horiz-adv-x="599" 
d="M363 0l0.000976562 265c0 62 -21.333 93 -64 93c-27.333 0 -47 -13 -59 -39c-2.66699 -7.33301 -4 -17 -4 -29v-290h-181v535h-79v96h79v80h181v-80h178v-96h-178v-95h2c15.333 18.667 34.666 34 57.999 46c24.667 11.333 49.667 17 75 17
c115.333 0 173 -72.667 173 -218v-285h-181z" />
    <glyph glyph-name="Itilde" unicode="&#x128;" horiz-adv-x="305" 
d="M247 674v-674h-181v674h181zM10 714c-2.66699 92.667 24.332 139 80.999 139c13.333 0 26 -2 38 -6c8 -3.33301 17.333 -8 28 -14c20.667 -13.333 35 -20 43 -20c14.667 0 23.667 14.667 27 44h78c2.66699 -90.667 -25.333 -136 -84 -136c-23.333 0 -45.666 6 -66.999 18
l-22 13c-6.66699 3.33301 -13 5 -19 5c-13.333 0 -21 -14.333 -23 -43h-80z" />
    <glyph glyph-name="itilde" unicode="&#x129;" horiz-adv-x="292" 
d="M60 0v492h181v-492h-181zM1 553c-4 96 25.333 144 88 144c20 0 42 -6.66699 66 -20l24 -14c7.33301 -4 13.666 -6 18.999 -6c14 0 22.333 15 25 45h80c4 -93.333 -25.333 -140 -88 -140c-13.333 0 -26.333 2.33301 -39 7l-25 11c-2 0.666992 -4.66699 2 -8 4
c-2 0.666992 -4 1.66699 -6 3l-14 8c-5.33301 2.66699 -10.666 4 -15.999 4c-14.667 0 -22.667 -15.333 -24 -46h-82z" />
    <glyph glyph-name="Imacron" unicode="&#x12a;" horiz-adv-x="305" 
d="M243 674v-674h-181v674h181zM288 827v-92h-268v92h268z" />
    <glyph glyph-name="imacron" unicode="&#x12b;" horiz-adv-x="292" 
d="M55 0v492h181v-492h-181zM277 675v-96h-261v96h261z" />
    <glyph glyph-name="Ibreve" unicode="&#x12c;" horiz-adv-x="305" 
d="M243 674v-674h-181v674h181zM99 846c2.66699 -30 20.333 -45 53 -45c33.333 0 53 15 59 45h89c-1.33301 -90 -50.333 -135 -147 -135c-49.333 0 -86.333 12.667 -111 38c-22.667 22.667 -34.667 55 -36 97h93z" />
    <glyph glyph-name="ibreve" unicode="&#x12d;" horiz-adv-x="292" 
d="M55 0v492h181v-492h-181zM92 697c5.33301 -38.667 22.998 -58 52.998 -58c36 0 54.667 19.333 56 58h90c-1.33301 -100.667 -49.666 -151 -144.999 -151s-143.666 50.333 -144.999 151h91z" />
    <glyph glyph-name="Iogonek" unicode="&#x12e;" horiz-adv-x="305" 
d="M243 0h-86.001c-8.66699 -20 -13 -38.667 -13 -56c0 -39.333 18.667 -59 56 -59c16.667 0 31 2 43 6l25 -81c-31.333 -23.333 -68.666 -35 -111.999 -35c-80.667 0 -121 38 -121 114c0 20 4 42.667 12 68l15 43v674h181v-674z" />
    <glyph glyph-name="iogonek" unicode="&#x12f;" horiz-adv-x="292" 
d="M144 542c-62.667 0 -94 29.667 -94 89s31.667 89 95 89c64 0 96 -29.667 96 -89s-32 -89 -96 -89h-1zM236 0l-86.001 0.000976562c-8.66699 -20 -13 -39 -13 -57c0 -38.667 18.667 -58 56 -58c16.667 0 31 2 43 6l25 -81c-31.333 -23.333 -68.666 -35 -111.999 -35
c-80 0 -120 38.333 -120 115c0 19.333 4 41.666 12 66.999l14 43v492h181v-492z" />
    <glyph glyph-name="Idotaccent" unicode="&#x130;" horiz-adv-x="305" 
d="M243 674v-674h-181v674h181zM154 709c-52 0 -78 25.333 -78 76c0 51.333 26.333 77 79 77c50 0 75 -25.667 75 -77c0 -50.667 -25 -76 -75 -76h-1z" />
    <glyph glyph-name="dotlessi" unicode="&#x131;" horiz-adv-x="292" 
d="M55 0v492h181v-492h-181z" />
    <glyph glyph-name="IJ" unicode="&#x132;" horiz-adv-x="734" 
d="M243 674v-674h-181v674h181zM496 674h181.001v-416c0 -94.667 -22.333 -164 -67 -208c-42 -40.667 -105 -61 -189 -61c-47.333 0 -87 5.33301 -119 16l19 145c26.667 -7.33301 53 -11 79 -11c31.333 0 54.666 8.33301 69.999 25c17.333 18.667 26 50 26 94v416z" />
    <glyph glyph-name="ij" unicode="&#x133;" horiz-adv-x="604" 
d="M55 0v492h181v-492h-181zM145 543c-60.667 0 -91 28.333 -91 85c0 57.333 30.667 86 92 86c60 0 90.667 -28.667 92 -86c0 -56.667 -30.667 -85 -92 -85h-1zM255 -76c41.333 3.33301 70.333 13.332 87 29.999c19.333 18.667 29 68.667 29 150v388h181v-426
c0 -103.333 -24.667 -176.666 -74 -219.999c-47.333 -41.333 -116 -62 -206 -62zM460 542.999c-60.667 0 -91 28.333 -91 85c0 57.333 30.667 86 92 86c60 0 90.667 -28.667 92 -86c0 -56.667 -30.667 -85 -92 -85h-1z" />
    <glyph glyph-name="Jcircumflex" unicode="&#x134;" horiz-adv-x="429" 
d="M191 674h181.001v-416c0 -94.667 -22.333 -164 -67 -208c-42 -40.667 -105 -61 -189 -61c-47.333 0 -87 5.33301 -119 16l19 145c26.667 -7.33301 53 -11 79 -11c31.333 0 54.666 8.33301 69.999 25c17.333 18.667 26 50 26 94v416zM349.001 836l99 -126h-121l-45 59h-2
l-44 -59h-121l99 126h135z" />
    <glyph glyph-name="jcircumflex" unicode="&#x135;" horiz-adv-x="312" 
d="M-37 -76c41.333 3.33301 70.333 13.332 87 29.999c19.333 18.667 29 68.667 29 150v388h181v-426c0 -103.333 -24.667 -176.666 -74 -219.999c-47.333 -41.333 -116 -62 -206 -62zM217 705.999l101 -156h-109l-47 83h-2l-46 -83h-109l100 156h112z" />
    <glyph glyph-name="Kcommaaccent" unicode="&#x136;" horiz-adv-x="646" 
d="M62 674h179v-286h2l38 65l135 221h222l-214 -287l222 -387h-209l-142 273l-54 -69v-204h-179v674zM227 -175c41.333 9.33301 62 28.999 62 58.999c0 10 -3 21 -9 33l-18 26l123 19c26 -19.333 39 -46.333 39 -81c0 -42 -16.333 -74.333 -49 -97
c-30 -21.333 -71 -32.666 -123 -33.999z" />
    <glyph glyph-name="kcommaaccent" unicode="&#x137;" horiz-adv-x="575" 
d="M236 292h2l16 32l97 168h215l-170 -198l195 -294h-222l-97 188l-36 -48v-140h-181v711h181v-419zM189 -176c41.333 8 62 27.666 62 58.999c0 10 -3 21 -9 33l-18 26l123 19c26 -19.333 39 -46.333 39 -81c0 -42 -16.333 -74.333 -49 -97
c-30 -21.333 -71 -32.666 -123 -33.999z" />
    <glyph glyph-name="kgreenlandic" unicode="&#x138;" horiz-adv-x="575" 
d="M236 292h2l16 32l97 168h215l-170 -198l195 -294h-222l-97 188l-36 -48v-140h-181v492h181v-200z" />
    <glyph glyph-name="Lacute" unicode="&#x139;" horiz-adv-x="528" 
d="M62 674h181v-523h259v-151h-440v674zM342 836l-120 -126h-144l81 126h183z" />
    <glyph glyph-name="lacute" unicode="&#x13a;" horiz-adv-x="292" 
d="M55 711h181v-711h-181v711zM325 866l-120 -126h-144l81 126h183z" />
    <glyph glyph-name="Lcommaaccent" unicode="&#x13b;" horiz-adv-x="528" 
d="M62 674h181v-523h259v-151h-440v674zM166 -175c41.333 9.33301 62 28.999 62 58.999c0 10 -3 21 -9 33l-18 26l123 19c26 -19.333 39 -46.333 39 -81c0 -42 -16.333 -74.333 -49 -97c-30 -21.333 -71 -32.666 -123 -33.999z" />
    <glyph glyph-name="lcommaaccent" unicode="&#x13c;" horiz-adv-x="292" 
d="M55 711h181v-711h-181v711zM36 -176c41.333 8 62 27.666 62 58.999c0 10 -3 21 -9 33l-18 26l123 19c26 -19.333 39 -46.333 39 -81c0 -42 -16.333 -74.333 -49 -97c-30 -21.333 -71 -32.666 -123 -33.999z" />
    <glyph glyph-name="Lcaron" unicode="&#x13d;" horiz-adv-x="528" 
d="M62 674h181v-523h259v-151h-440v674zM284 552c41.333 9.33301 62 28.999 62 58.999c0 10 -3 21 -9 33l-18 26l123 19c26 -19.333 39 -46.333 39 -81c0 -42 -16.333 -74.333 -49 -97c-30 -21.333 -71 -32.666 -123 -33.999z" />
    <glyph glyph-name="lcaron" unicode="&#x13e;" horiz-adv-x="302" 
d="M55 711h181v-711h-181v711zM271 529c16 36.667 24 72.333 24 107c0 23.333 -5 46.333 -15 69l110 18c20 -17.333 30 -44.666 30 -81.999c0 -38 -8.66699 -73 -26 -105c-6 -10.667 -13.333 -21.334 -22 -32.001l-17 -20z" />
    <glyph glyph-name="Ldot" unicode="&#x13f;" horiz-adv-x="528" 
d="M62 674h181v-523h259v-151h-440v674zM402 305c-52 0 -78 25.333 -78 76c0 51.333 26.333 77 79 77c50 0 75 -25.667 75 -77c0 -50.667 -25 -76 -75 -76h-1z" />
    <glyph glyph-name="ldot" unicode="&#x140;" horiz-adv-x="389" 
d="M55 711h181v-711h-181v711zM342 324c-48 0 -72 25.333 -72 76s24.333 76 73 76c46 0 69 -25.333 69 -76s-23 -76 -69 -76h-1z" />
    <glyph glyph-name="Lslash" unicode="&#x141;" horiz-adv-x="535" 
d="M70 0v220l-72 -47v122l72 47v332h181v-213l122 80v-122l-122 -80v-188h259v-151h-440z" />
    <glyph glyph-name="lslash" unicode="&#x142;" horiz-adv-x="307" 
d="M63 0v204l-63 -49v126l63 49v381h181v-248l71 55v-126l-71 -55v-337h-181z" />
    <glyph glyph-name="Nacute" unicode="&#x143;" horiz-adv-x="705" 
d="M62 0v674.002h213l107 -207c17.333 -32 36 -69.667 56 -113c17.333 -40 34 -81 50 -123h3c-9.33301 83.333 -14 177.666 -14 282.999v160h165v-674h-190l-115 224c-20.667 39.333 -40 78.666 -58 117.999c-22 45.333 -40.333 87 -55 125h-4
c4.66699 -84.667 7 -185 7 -301v-166h-165zM529 836.002l-120 -126h-144l81 126h183z" />
    <glyph glyph-name="nacute" unicode="&#x144;" horiz-adv-x="599" 
d="M55 324c0 30 -0.332031 60.667 -0.999023 92l-3 76h156l8 -63h3c5.33301 8 11.666 15.667 18.999 23c9.33301 8.66699 19.666 16.667 30.999 24c29.333 18 62 27 98 27c118.667 0 178 -71 178 -213v-290h-181v268c0 60 -21 90 -63 90c-16 0 -29.333 -4.66699 -40 -14
c-7.33301 -7.33301 -13.666 -17 -18.999 -29c-3.33301 -7.33301 -5 -19.333 -5 -36v-279h-181v324zM459.001 706l-123 -156h-122l85 156h160z" />
    <glyph glyph-name="Ncommaaccent" unicode="&#x145;" horiz-adv-x="705" 
d="M62 0v674.002h213l107 -207c17.333 -32 36 -69.667 56 -113c17.333 -40 34 -81 50 -123h3c-9.33301 83.333 -14 177.666 -14 282.999v160h165v-674h-190l-115 224c-20.667 39.333 -40 78.666 -58 117.999c-22 45.333 -40.333 87 -55 125h-4
c4.66699 -84.667 7 -185 7 -301v-166h-165zM255 -171.998c41.333 9.33301 62 28.999 62 58.999c0 10 -3 21 -9 33l-18 26l123 19c26 -19.333 39 -46.333 39 -81c0 -42 -16.333 -74.333 -49 -97c-30 -21.333 -71 -32.666 -123 -33.999z" />
    <glyph glyph-name="ncommaaccent" unicode="&#x146;" horiz-adv-x="599" 
d="M55 324c0 30 -0.332031 60.667 -0.999023 92l-3 76h156l8 -63h3c5.33301 8 11.666 15.667 18.999 23c9.33301 8.66699 19.666 16.667 30.999 24c29.333 18 62 27 98 27c118.667 0 178 -71 178 -213v-290h-181v268c0 60 -21 90 -63 90c-16 0 -29.333 -4.66699 -40 -14
c-7.33301 -7.33301 -13.666 -17 -18.999 -29c-3.33301 -7.33301 -5 -19.333 -5 -36v-279h-181v324zM201.001 -176c41.333 8 62 27.666 62 58.999c0 10 -3 21 -9 33l-18 26l123 19c26 -19.333 39 -46.333 39 -81c0 -42 -16.333 -74.333 -49 -97
c-30 -21.333 -71 -32.666 -123 -33.999z" />
    <glyph glyph-name="Ncaron" unicode="&#x147;" horiz-adv-x="705" 
d="M62 0v674.002h213l107 -207c17.333 -32 36 -69.667 56 -113c17.333 -40 34 -81 50 -123h3c-9.33301 83.333 -14 177.666 -14 282.999v160h165v-674h-190l-115 224c-20.667 39.333 -40 78.666 -58 117.999c-22 45.333 -40.333 87 -55 125h-4
c4.66699 -84.667 7 -185 7 -301v-166h-165zM290 710.002l-99 126h121l45 -59h2l44 59h121l-99 -126h-135z" />
    <glyph glyph-name="ncaron" unicode="&#x148;" horiz-adv-x="599" 
d="M55 324c0 30 -0.332031 60.667 -0.999023 92l-3 76h156l8 -63h3c5.33301 8 11.666 15.667 18.999 23c9.33301 8.66699 19.666 16.667 30.999 24c29.333 18 62 27 98 27c118.667 0 178 -71 178 -213v-290h-181v268c0 60 -21 90 -63 90c-16 0 -29.333 -4.66699 -40 -14
c-7.33301 -7.33301 -13.666 -17 -18.999 -29c-3.33301 -7.33301 -5 -19.333 -5 -36v-279h-181v324zM239.001 550l-101 156h113l47 -84h2l47 84h114l-102 -156h-120z" />
    <glyph glyph-name="napostrophe" unicode="&#x149;" horiz-adv-x="599" 
d="M55 324c0 30 -0.332031 60.667 -0.999023 92l-3 76h156l8 -63h3c5.33301 8 11.666 15.667 18.999 23c9.33301 8.66699 19.666 16.667 30.999 24c29.333 18 62 27 98 27c118.667 0 178 -71 178 -213v-290h-181v268c0 60 -21 90 -63 90c-16 0 -29.333 -4.66699 -40 -14
c-7.33301 -7.33301 -13.666 -17 -18.999 -29c-3.33301 -7.33301 -5 -19.333 -5 -36v-279h-181v324zM4.00098 565c18.667 32 28 61.667 28 89c0 19.333 -5 37 -15 53l112 29c7.33301 -5.33301 14 -14.333 20 -27c6.66699 -15.333 10 -32 10 -50
c0 -31.333 -10 -61.333 -30 -90c-6.66699 -10.667 -14.667 -21 -24 -31l-21 -19z" />
    <glyph glyph-name="Eng" unicode="&#x14a;" horiz-adv-x="705" 
d="M62 0v674.001h213l107 -207c17.333 -32 36 -69.667 56 -113c17.333 -40 34 -81 50 -123h3c-9.33301 83.333 -14 177.666 -14 282.999v160h165v-621c0 -88 -23 -155.333 -69 -202c-40.667 -41.333 -98.667 -65.666 -174 -72.999l-40 136c60.667 16 95.667 38.333 105 67
l-127 243c-20.667 39.333 -40 78.666 -58 117.999c-22 45.333 -40.333 87 -55 125h-4c4.66699 -84.667 7 -185 7 -301v-166h-165z" />
    <glyph glyph-name="eng" unicode="&#x14b;" horiz-adv-x="599" 
d="M55 324c0 30 -0.331055 60.667 -0.998047 92l-3 76h156l8 -63h3c5.33301 8 11.666 15.667 18.999 23c9.33301 8.66699 19.666 16.667 30.999 24c29.333 18 62 27 98 27c118.667 0 178 -71 178 -213v-231c0 -87.333 -21 -152.666 -63 -195.999
c-34.667 -36 -85.334 -57.667 -152.001 -65l-36 139c46.667 7.33301 70 37.666 70 90.999v240c0 60 -21 90 -63 90c-16 0 -29.333 -4.66699 -40 -14c-7.33301 -7.33301 -13.666 -17 -18.999 -29c-3.33301 -7.33301 -5 -19.333 -5 -36v-279h-181v324z" />
    <glyph glyph-name="Omacron" unicode="&#x14c;" horiz-adv-x="730" 
d="M358 -11c-100.667 0 -180.667 34 -240 102c-56 63.333 -84 144 -84 242c0 100.667 30 184 90 250c62 68 143.667 102 245 102c103.333 0 185 -34.333 245 -103c54.667 -62.667 82 -142 82 -238c0 -108.667 -30.333 -195 -91 -259s-142.667 -96 -246 -96h-1zM367 132
c42.667 0 76.668 18.999 102.001 56.999c24 37.333 36 87 36 149c0 59.333 -12.333 108 -37 146c-25.333 38.667 -59.666 58 -102.999 58c-42.667 0 -77 -19.667 -103 -59c-24.667 -37.333 -37 -86 -37 -146c-0.666992 -61.333 11.666 -110.666 36.999 -147.999
c25.333 -38 59.666 -57 102.999 -57h2zM500.001 826.999v-92h-268v92h268z" />
    <glyph glyph-name="omacron" unicode="&#x14d;" horiz-adv-x="589" 
d="M292 -11c-76 0 -138 22.334 -186 67.001c-50 46 -75 108 -75 186c0 79.333 24.333 142.333 73 189c48.667 48 114.667 72 198 72c76.667 0 138.667 -23.333 186 -70c46.667 -46.667 70 -107.334 70 -182.001c0 -84.667 -27 -150.667 -81 -198
c-48.667 -42.667 -110 -64 -184 -64h-1zM297 116.001c50 0 75 43.335 75 130.002c0 37.333 -6 67.666 -18 90.999c-13.333 26 -32.333 39 -57 39c-28 0 -48.667 -13.667 -62 -41c-12 -22.667 -18 -52.334 -18 -89.001c0 -86.667 26.333 -130 79 -130h1zM426 675.003v-96
h-261v96h261z" />
    <glyph glyph-name="Obreve" unicode="&#x14e;" horiz-adv-x="730" 
d="M358 -11c-100.667 0 -180.667 34 -240 102c-56 63.333 -84 144 -84 242c0 100.667 30 184 90 250c62 68 143.667 102 245 102c103.333 0 185 -34.333 245 -103c54.667 -62.667 82 -142 82 -238c0 -108.667 -30.333 -195 -91 -259s-142.667 -96 -246 -96h-1zM367 132
c42.667 0 76.668 18.999 102.001 56.999c24 37.333 36 87 36 149c0 59.333 -12.333 108 -37 146c-25.333 38.667 -59.666 58 -102.999 58c-42.667 0 -77 -19.667 -103 -59c-24.667 -37.333 -37 -86 -37 -146c-0.666992 -61.333 11.666 -110.666 36.999 -147.999
c25.333 -38 59.666 -57 102.999 -57h2zM311.001 848.999c2.66699 -30 20.333 -45 53 -45c33.333 0 53 15 59 45h89c-1.33301 -90 -50.333 -135 -147 -135c-49.333 0 -86.333 12.667 -111 38c-22.667 22.667 -34.667 55 -36 97h93z" />
    <glyph glyph-name="obreve" unicode="&#x14f;" horiz-adv-x="589" 
d="M241 697c5.33301 -38.667 22.998 -58 52.998 -58c36 0 54.667 19.333 56 58h90c-1.33301 -100.667 -49.666 -151 -144.999 -151s-143.666 50.333 -144.999 151h91zM482.998 63c47.333 46 71 107.666 71 184.999c0 72 -22.333 130.333 -67 175
c-42 42.667 -97.333 66.334 -166 71.001v-128c34 -14.667 51 -55.334 51 -122.001c0 -36 -5.66699 -65.333 -17 -88c-13.333 -26 -33.666 -39 -60.999 -39c-24.667 0 -43.334 12.667 -56.001 38c-11.333 22.667 -17 52.334 -17 89.001c0 70.667 18 112 54 124v126
c-67.333 -4.66699 -122.333 -27.667 -165 -69c-47.333 -46 -71 -108 -71 -186c0 -72.667 23 -132 69 -178c46 -45.333 106.333 -68 181 -68c81.333 0 146 23.333 194 70z" />
    <glyph glyph-name="Ohungarumlaut" unicode="&#x150;" horiz-adv-x="730" 
d="M358 -11c-100.667 0 -180.667 34 -240 102c-56 63.333 -84 144 -84 242c0 100.667 30 184 90 250c62 68 143.667 102 245 102c103.333 0 185 -34.333 245 -103c54.667 -62.667 82 -142 82 -238c0 -108.667 -30.333 -195 -91 -259s-142.667 -96 -246 -96h-1zM367 132
c42.667 0 76.668 18.999 102.001 56.999c24 37.333 36 87 36 149c0 59.333 -12.333 108 -37 146c-25.333 38.667 -59.666 58 -102.999 58c-42.667 0 -77 -19.667 -103 -59c-24.667 -37.333 -37 -86 -37 -146c-0.666992 -61.333 11.666 -110.666 36.999 -147.999
c25.333 -38 59.666 -57 102.999 -57h2zM427.001 837.999l-98 -118h-122l59 118h161zM623.001 837.999l-97 -118h-123l59 118h161z" />
    <glyph glyph-name="ohungarumlaut" unicode="&#x151;" horiz-adv-x="589" 
d="M292 -11c-76 0 -138 22.334 -186 67.001c-50 46 -75 108 -75 186c0 79.333 24.333 142.333 73 189c48.667 48 114.667 72 198 72c76.667 0 138.667 -23.333 186 -70c46.667 -46.667 70 -107.334 70 -182.001c0 -84.667 -27 -150.667 -81 -198
c-48.667 -42.667 -110 -64 -184 -64h-1zM297 116.001c50 0 75 43.335 75 130.002c0 37.333 -6 67.666 -18 90.999c-13.333 26 -32.333 39 -57 39c-28 0 -48.667 -13.667 -62 -41c-12 -22.667 -18 -52.334 -18 -89.001c0 -86.667 26.333 -130 79 -130h1zM319 705.003
l-92 -155h-99l57 155h134zM505 705.003l-92 -155h-99l56 155h135z" />
    <glyph glyph-name="OE" unicode="&#x152;" horiz-adv-x="952" 
d="M367 694h13c22 0 69 -3.33301 141 -10l21 -1h360l1 -2v-147l-1 -1h-259v-109h243l2 -2v-145l-2 -1h-243v-126h273l2 -1v-148l-2 -1h-402l-54 -4l-1 1v540c-22 8 -44.333 12 -67 12c-56 0 -102 -24 -138 -72c-24 -36.667 -36 -82.667 -36 -138
c0 -82 28.667 -141.667 86 -179c28 -17.333 61.667 -26 101 -26h5l2 -1v-141c0 -2 -13.667 -3 -41 -3c-140.667 0 -241.667 53.333 -303 160c-29.333 55.333 -44 116 -44 182v12c0 92.667 28 173 84 241c68 73.333 154.333 110 259 110z" />
    <glyph glyph-name="oe" unicode="&#x153;" horiz-adv-x="898" 
d="M289 500l9.00586 0.00195312c68 0 122 -23 162 -69c45.333 46 100.333 69 165 69h9c77.333 0 136.666 -35.667 177.999 -107c22 -44 33 -91.667 33 -143v-6c-2 -40.667 -4 -61 -6 -61h-248l-1 1v120l1 1h87c0 38.667 -15.667 63.667 -47 75c-8 2 -16 3 -24 3
c-51.333 0 -77 -31.333 -77 -94v-41c0 -64 19 -104.333 57 -121c20 -8.66699 40.333 -13 61 -13h20c43.333 0 86.666 8.66699 129.999 26c1.33301 -3.33301 9.33301 -44 24 -122c-50 -25.333 -113 -38 -189 -38h-5c-72 0 -130 20.667 -174 62
c-43.333 -41.333 -99 -62 -167 -62h-5c-81.333 0 -147 31.667 -197 95c-24.667 34 -40 71.667 -46 113c-2 14 -3 25.333 -3 34l1 1h186c1.33301 0 2.66602 -9 3.99902 -27c11.333 -58.667 36.666 -88 75.999 -88c42.667 0 68 33.333 76 100l2 32
c0 65.333 -17 107.666 -51 126.999c-8.66699 3.33301 -17.334 5 -26.001 5c-34 0 -57.333 -20.667 -70 -62c-3.33301 -10 -6 -23 -8 -39l-1 -1h-187v1h-1c2 34 13 70.333 33 109c29.333 49.333 72.666 84.666 129.999 105.999c31.333 9.33301 61 14 89 14z" />
    <glyph glyph-name="Racute" unicode="&#x154;" horiz-adv-x="617" 
d="M62 664c28 4.66699 59.332 8.33203 93.999 10.999c40.667 2.66699 82 4 124 4c106 0 182 -17.667 228 -53c44 -34 66 -82.667 66 -146c0 -38.667 -12.667 -73.667 -38 -105c-21.333 -27.333 -47 -46.666 -77 -57.999v-3c38.667 -18 67.334 -58.333 86.001 -121l23 -85
c3.33301 -12 5.66602 -21.333 6.99902 -28c5.33301 -20.667 10 -37 14 -49c4.66699 -14.667 8.33398 -25 11.001 -31h-184c-6 11.333 -12.667 29.333 -20 54c-9.33301 29.333 -18.333 63.333 -27 102s-20.334 65 -35.001 79c-13.333 12 -34.666 18 -63.999 18h-29v-253h-179
v664zM240.999 382.998h46.999c71.333 0 107 27.667 107 83c0 52.667 -31 79 -93 79c-15.333 0 -28.666 -0.333008 -39.999 -1c-8.66699 -0.666992 -15.667 -1.66699 -21 -3v-158zM476.998 835.998l-120 -126h-144l81 126h183z" />
    <glyph glyph-name="racute" unicode="&#x155;" horiz-adv-x="403" 
d="M55 326c0 74 -1.33301 129.333 -4 166h154l7 -89h4c12 34 31.667 60 59 78c22.667 14.667 46.667 22 72 22c15.333 0 27.333 -1 36 -3v-169c-14.667 3.33301 -30 5 -46 5c-55.333 0 -88.333 -20.667 -99 -62c-1.33301 -10.667 -2 -21 -2 -31v-243h-181v326zM370 706
l-123 -156h-122l85 156h160z" />
    <glyph glyph-name="Rcommaaccent" unicode="&#x156;" horiz-adv-x="617" 
d="M62 664c28 4.66699 59.332 8.33203 93.999 10.999c40.667 2.66699 82 4 124 4c106 0 182 -17.667 228 -53c44 -34 66 -82.667 66 -146c0 -38.667 -12.667 -73.667 -38 -105c-21.333 -27.333 -47 -46.666 -77 -57.999v-3c38.667 -18 67.334 -58.333 86.001 -121l23 -85
c3.33301 -12 5.66602 -21.333 6.99902 -28c5.33301 -20.667 10 -37 14 -49c4.66699 -14.667 8.33398 -25 11.001 -31h-184c-6 11.333 -12.667 29.333 -20 54c-9.33301 29.333 -18.333 63.333 -27 102s-20.334 65 -35.001 79c-13.333 12 -34.666 18 -63.999 18h-29v-253h-179
v664zM240.999 382.998h46.999c71.333 0 107 27.667 107 83c0 52.667 -31 79 -93 79c-15.333 0 -28.666 -0.333008 -39.999 -1c-8.66699 -0.666992 -15.667 -1.66699 -21 -3v-158zM209.998 -175.002c41.333 9.33301 62 28.999 62 58.999c0 10 -3 21 -9 33l-18 26l123 19
c26 -19.333 39 -46.333 39 -81c0 -42 -16.333 -74.333 -49 -97c-30 -21.333 -71 -32.666 -123 -33.999z" />
    <glyph glyph-name="rcommaaccent" unicode="&#x157;" horiz-adv-x="403" 
d="M55 326c0 74 -1.33301 129.333 -4 166h154l7 -89h4c12 34 31.667 60 59 78c22.667 14.667 46.667 22 72 22c15.333 0 27.333 -1 36 -3v-169c-14.667 3.33301 -30 5 -46 5c-55.333 0 -88.333 -20.667 -99 -62c-1.33301 -10.667 -2 -21 -2 -31v-243h-181v326zM43 -176
c41.333 8 62 27.666 62 58.999c0 10 -3 21 -9 33l-18 26l123 19c26 -19.333 39 -46.333 39 -81c0 -42 -16.333 -74.333 -49 -97c-30 -21.333 -71 -32.666 -123 -33.999z" />
    <glyph glyph-name="Rcaron" unicode="&#x158;" horiz-adv-x="617" 
d="M62 664c28 4.66699 59.332 8.33203 93.999 10.999c40.667 2.66699 82 4 124 4c106 0 182 -17.667 228 -53c44 -34 66 -82.667 66 -146c0 -38.667 -12.667 -73.667 -38 -105c-21.333 -27.333 -47 -46.666 -77 -57.999v-3c38.667 -18 67.334 -58.333 86.001 -121l23 -85
c3.33301 -12 5.66602 -21.333 6.99902 -28c5.33301 -20.667 10 -37 14 -49c4.66699 -14.667 8.33398 -25 11.001 -31h-184c-6 11.333 -12.667 29.333 -20 54c-9.33301 29.333 -18.333 63.333 -27 102s-20.334 65 -35.001 79c-13.333 12 -34.666 18 -63.999 18h-29v-253h-179
v664zM240.999 382.998h46.999c71.333 0 107 27.667 107 83c0 52.667 -31 79 -93 79c-15.333 0 -28.666 -0.333008 -39.999 -1c-8.66699 -0.666992 -15.667 -1.66699 -21 -3v-158zM235.998 709.998l-99 126h121l45 -59h2l44 59h121l-99 -126h-135z" />
    <glyph glyph-name="rcaron" unicode="&#x159;" horiz-adv-x="403" 
d="M55 326c0 74 -1.33301 129.333 -4 166h154l7 -89h4c12 34 31.667 60 59 78c22.667 14.667 46.667 22 72 22c15.333 0 27.333 -1 36 -3v-169c-14.667 3.33301 -30 5 -46 5c-55.333 0 -88.333 -20.667 -99 -62c-1.33301 -10.667 -2 -21 -2 -31v-243h-181v326zM149 550
l-101 156h113l47 -84h2l47 84h114l-102 -156h-120z" />
    <glyph glyph-name="Sacute" unicode="&#x15a;" horiz-adv-x="561" 
d="M74 180c22.667 -12 48.3359 -21.668 77.0029 -29.001c34 -8.66699 66.667 -13 98 -13c61.333 0 92 18.333 92 55c0 27.333 -35.333 53 -106 77c-60.667 22 -106.667 48.333 -138 79c-34.667 34.667 -52 76 -52 124c0 61.333 24 111.333 72 150
c49.333 40.667 115.666 61 198.999 61c37.333 0 72.333 -3.33301 105 -10c27.333 -5.33301 53 -13.333 77 -24l-38 -145c-4 2 -8 3.66699 -12 5c-4.66699 2 -9.33398 3.66699 -14.001 5c-10.667 4.66699 -21.667 8.33398 -33 11.001c-28.667 7.33301 -57.667 11 -87 11
c-56.667 0 -85 -16.667 -85 -50c0 -22 40.333 -48.333 121 -79c116.667 -43.333 175 -111 175 -203c0 -62 -23.333 -112.333 -70 -151c-50.667 -42.667 -123 -64 -217 -64c-38 0 -76.333 4.33301 -115 13c-34.667 8 -62.334 17.333 -83.001 28zM475.002 835.999l-120 -126
h-144l81 126h183z" />
    <glyph glyph-name="sacute" unicode="&#x15b;" horiz-adv-x="451" 
d="M60 152c40.667 -24.667 85.998 -36.999 135.998 -36.999c36 0 54 9 54 27c0 14 -21.333 28 -64 42c-51.333 16 -89.333 38 -114 66c-21.333 24.667 -31.666 52.667 -30.999 84c0 49.333 19.333 89.666 58 120.999c40 32 92 48 156 48c28 0 56 -3 84 -9
c23.333 -4.66699 44 -11 62 -19l-29 -122c-14 6.66699 -30 12.667 -48 18c-22.667 6 -43 9 -61 9c-32.667 0 -49 -9.33301 -49 -28c0 -14 24.667 -29 74 -45c88.667 -28.667 133.667 -79.334 135 -152.001c0 -49.333 -18.333 -88.666 -55 -117.999
c-40 -31.333 -96.667 -47 -170 -47c-67.333 0 -123.666 11.667 -168.999 35zM402.998 706.001l-123 -156h-122l85 156h160z" />
    <glyph glyph-name="Scircumflex" unicode="&#x15c;" horiz-adv-x="561" 
d="M74 180c22.667 -12 48.3359 -21.668 77.0029 -29.001c34 -8.66699 66.667 -13 98 -13c61.333 0 92 18.333 92 55c0 27.333 -35.333 53 -106 77c-60.667 22 -106.667 48.333 -138 79c-34.667 34.667 -52 76 -52 124c0 61.333 24 111.333 72 150
c49.333 40.667 115.666 61 198.999 61c37.333 0 72.333 -3.33301 105 -10c27.333 -5.33301 53 -13.333 77 -24l-38 -145c-4 2 -8 3.66699 -12 5c-4.66699 2 -9.33398 3.66699 -14.001 5c-10.667 4.66699 -21.667 8.33398 -33 11.001c-28.667 7.33301 -57.667 11 -87 11
c-56.667 0 -85 -16.667 -85 -50c0 -22 40.333 -48.333 121 -79c116.667 -43.333 175 -111 175 -203c0 -62 -23.333 -112.333 -70 -151c-50.667 -42.667 -123 -64 -217 -64c-38 0 -76.333 4.33301 -115 13c-34.667 8 -62.334 17.333 -83.001 28zM352.002 835.999l99 -126
h-121l-45 59h-2l-44 -59h-121l99 126h135z" />
    <glyph glyph-name="scircumflex" unicode="&#x15d;" horiz-adv-x="451" 
d="M60 152c40.667 -24.667 85.998 -36.999 135.998 -36.999c36 0 54 9 54 27c0 14 -21.333 28 -64 42c-51.333 16 -89.333 38 -114 66c-21.333 24.667 -31.666 52.667 -30.999 84c0 49.333 19.333 89.666 58 120.999c40 32 92 48 156 48c28 0 56 -3 84 -9
c23.333 -4.66699 44 -11 62 -19l-29 -122c-14 6.66699 -30 12.667 -48 18c-22.667 6 -43 9 -61 9c-32.667 0 -49 -9.33301 -49 -28c0 -14 24.667 -29 74 -45c88.667 -28.667 133.667 -79.334 135 -152.001c0 -49.333 -18.333 -88.666 -55 -117.999
c-40 -31.333 -96.667 -47 -170 -47c-67.333 0 -123.666 11.667 -168.999 35zM289.998 706.001l101 -156h-113l-47 84h-2l-47 -84h-114l102 156h120z" />
    <glyph glyph-name="Scedilla" unicode="&#x15e;" horiz-adv-x="561" 
d="M74 180c22.667 -12 48.333 -21.668 77 -29.001c34 -8.66699 66.667 -13 98 -13c62 0 93 18.333 93 55c0 26.667 -35.667 52.334 -107 77.001c-60.667 22 -106.667 48.333 -138 79c-34.667 34.667 -52 76 -52 124c0 61.333 24 111.333 72 150c50 40.667 116.667 61 200 61
c36.667 0 71.334 -3.33301 104.001 -10c27.333 -5.33301 53 -13.333 77 -24l-38 -145c-4 2 -8 3.66699 -12 5l-13 5c-11.333 4.66699 -22.333 8.33398 -33 11.001c-28.667 7.33301 -57.667 11 -87 11c-57.333 0 -86 -16.667 -86 -50c0 -22 40.333 -48.333 121 -79
c116.667 -43.333 175 -111 175 -203c0 -50.667 -16 -94 -48 -130c-35.333 -39.333 -85.666 -65 -150.999 -77l-20 -39c48.667 -5.33301 73 -29 73 -71c0 -32 -13.333 -56 -40 -72c-22.667 -14 -52.334 -21 -89.001 -21c-34.667 0 -63.334 7 -86.001 21l22 62
c20.667 -11.333 39 -17 55 -17c22 0 33 7.66699 33 23c0 19.333 -26 30.666 -78 33.999l34 72h-1c-71.333 0 -134.333 13.667 -189 41z" />
    <glyph glyph-name="Scedilla" unicode="&#xf6c1;" horiz-adv-x="561" 
d="M74 180c22.667 -12 48.333 -21.668 77 -29.001c34 -8.66699 66.667 -13 98 -13c62 0 93 18.333 93 55c0 26.667 -35.667 52.334 -107 77.001c-60.667 22 -106.667 48.333 -138 79c-34.667 34.667 -52 76 -52 124c0 61.333 24 111.333 72 150c50 40.667 116.667 61 200 61
c36.667 0 71.334 -3.33301 104.001 -10c27.333 -5.33301 53 -13.333 77 -24l-38 -145c-4 2 -8 3.66699 -12 5l-13 5c-11.333 4.66699 -22.333 8.33398 -33 11.001c-28.667 7.33301 -57.667 11 -87 11c-57.333 0 -86 -16.667 -86 -50c0 -22 40.333 -48.333 121 -79
c116.667 -43.333 175 -111 175 -203c0 -50.667 -16 -94 -48 -130c-35.333 -39.333 -85.666 -65 -150.999 -77l-20 -39c48.667 -5.33301 73 -29 73 -71c0 -32 -13.333 -56 -40 -72c-22.667 -14 -52.334 -21 -89.001 -21c-34.667 0 -63.334 7 -86.001 21l22 62
c20.667 -11.333 39 -17 55 -17c22 0 33 7.66699 33 23c0 19.333 -26 30.666 -78 33.999l34 72h-1c-71.333 0 -134.333 13.667 -189 41z" />
    <glyph glyph-name="scedilla" unicode="&#x15f;" horiz-adv-x="451" 
d="M60 151c40.667 -24.667 85.999 -36.9971 135.999 -36.9971c36 0 54 9 54 27c0 15.333 -21.333 29.333 -64 42c-51.333 16.667 -89 39 -113 67c-21.333 24.667 -32 52.667 -32 84c0.666992 49.333 20.334 89.666 59.001 120.999c39.333 32 91 48 155 48c28 0 56 -3 84 -9
c23.333 -4.66699 44 -11 62 -19l-29 -122c-14 6.66699 -30 12.667 -48 18c-22.667 6 -43 9 -61 9c-32.667 0 -49 -9.33301 -49 -28c0 -14 24.667 -29 74 -45c90 -30 135 -81 135 -153c0 -87.333 -51.667 -140.333 -155 -159l-20 -36c48.667 -6.66699 73 -31.334 73 -74.001
c0 -32 -13 -55.333 -39 -70c-22 -13.333 -52 -20 -90 -20c-36 0 -64.667 7 -86 21l22 62c20.667 -11.333 39 -17 55 -17c22 0 33 7.66699 33 23c0 19.333 -26 30.666 -78 33.999l34 72h-1c-16 0 -35.667 2.33301 -59 7c-31.333 6 -59 15 -83 27z" />
    <glyph glyph-name="scedilla" unicode="&#xf6c2;" horiz-adv-x="451" 
d="M60 151c40.667 -24.667 85.999 -36.9971 135.999 -36.9971c36 0 54 9 54 27c0 15.333 -21.333 29.333 -64 42c-51.333 16.667 -89 39 -113 67c-21.333 24.667 -32 52.667 -32 84c0.666992 49.333 20.334 89.666 59.001 120.999c39.333 32 91 48 155 48c28 0 56 -3 84 -9
c23.333 -4.66699 44 -11 62 -19l-29 -122c-14 6.66699 -30 12.667 -48 18c-22.667 6 -43 9 -61 9c-32.667 0 -49 -9.33301 -49 -28c0 -14 24.667 -29 74 -45c90 -30 135 -81 135 -153c0 -87.333 -51.667 -140.333 -155 -159l-20 -36c48.667 -6.66699 73 -31.334 73 -74.001
c0 -32 -13 -55.333 -39 -70c-22 -13.333 -52 -20 -90 -20c-36 0 -64.667 7 -86 21l22 62c20.667 -11.333 39 -17 55 -17c22 0 33 7.66699 33 23c0 19.333 -26 30.666 -78 33.999l34 72h-1c-16 0 -35.667 2.33301 -59 7c-31.333 6 -59 15 -83 27z" />
    <glyph glyph-name="Scaron" unicode="&#x160;" horiz-adv-x="561" 
d="M74 180c22.667 -12 48.3359 -21.668 77.0029 -29.001c34 -8.66699 66.667 -13 98 -13c61.333 0 92 18.333 92 55c0 27.333 -35.333 53 -106 77c-60.667 22 -106.667 48.333 -138 79c-34.667 34.667 -52 76 -52 124c0 61.333 24 111.333 72 150
c49.333 40.667 115.666 61 198.999 61c37.333 0 72.333 -3.33301 105 -10c27.333 -5.33301 53 -13.333 77 -24l-38 -145c-4 2 -8 3.66699 -12 5c-4.66699 2 -9.33398 3.66699 -14.001 5c-10.667 4.66699 -21.667 8.33398 -33 11.001c-28.667 7.33301 -57.667 11 -87 11
c-56.667 0 -85 -16.667 -85 -50c0 -22 40.333 -48.333 121 -79c116.667 -43.333 175 -111 175 -203c0 -62 -23.333 -112.333 -70 -151c-50.667 -42.667 -123 -64 -217 -64c-38 0 -76.333 4.33301 -115 13c-34.667 8 -62.334 17.333 -83.001 28zM222.002 709.999l-99 126h121
l45 -59h2l44 59h121l-99 -126h-135z" />
    <glyph glyph-name="scaron" unicode="&#x161;" horiz-adv-x="451" 
d="M60 152c40.667 -24.667 85.998 -36.999 135.998 -36.999c36 0 54 9 54 27c0 14 -21.333 28 -64 42c-51.333 16 -89.333 38 -114 66c-21.333 24.667 -31.666 52.667 -30.999 84c0 49.333 19.333 89.666 58 120.999c40 32 92 48 156 48c28 0 56 -3 84 -9
c23.333 -4.66699 44 -11 62 -19l-29 -122c-14 6.66699 -30 12.667 -48 18c-22.667 6 -43 9 -61 9c-32.667 0 -49 -9.33301 -49 -28c0 -14 24.667 -29 74 -45c88.667 -28.667 133.667 -79.334 135 -152.001c0 -49.333 -18.333 -88.666 -55 -117.999
c-40 -31.333 -96.667 -47 -170 -47c-67.333 0 -123.666 11.667 -168.999 35zM167.998 550.001l-101 156h113l47 -84h2l47 84h114l-102 -156h-120z" />
    <glyph glyph-name="Tcommaaccent" unicode="&#x162;" horiz-adv-x="570" 
d="M193 522h-172v152h528v-152h-175v-522h-181v522zM172 -175c41.333 9.33301 62 28.999 62 58.999c0 10 -3 21 -9 33l-18 26l123 19c26 -19.333 39 -46.333 39 -81c0 -42 -16.333 -74.333 -49 -97c-30 -21.333 -71 -32.666 -123 -33.999z" />
    <glyph glyph-name="Tcommaaccent" unicode="&#x21a;" horiz-adv-x="570" 
d="M193 522h-172v152h528v-152h-175v-522h-181v522zM172 -175c41.333 9.33301 62 28.999 62 58.999c0 10 -3 21 -9 33l-18 26l123 19c26 -19.333 39 -46.333 39 -81c0 -42 -16.333 -74.333 -49 -97c-30 -21.333 -71 -32.666 -123 -33.999z" />
    <glyph glyph-name="tcommaaccent" unicode="&#x163;" horiz-adv-x="383" 
d="M253 632l0.000976562 -140h102v-132h-102v-141c0 -54.667 19 -82 57 -82c18.667 0 33 1.33301 43 4v-137c-24.667 -9.33301 -60.334 -14 -107.001 -14c-52 0 -93 15 -123 45c-30.667 30.667 -46 81.667 -46 153v172h-61v132h61v92zM103.001 -176
c41.333 8 62 27.666 62 58.999c0 10 -3 21 -9 33l-18 26l123 19c26 -19.333 39 -46.333 39 -81c0 -42 -16.333 -74.333 -49 -97c-30 -21.333 -71 -32.666 -123 -33.999z" />
    <glyph glyph-name="tcommaaccent" unicode="&#x21b;" horiz-adv-x="383" 
d="M253 632l0.000976562 -140h102v-132h-102v-141c0 -54.667 19 -82 57 -82c18.667 0 33 1.33301 43 4v-137c-24.667 -9.33301 -60.334 -14 -107.001 -14c-52 0 -93 15 -123 45c-30.667 30.667 -46 81.667 -46 153v172h-61v132h61v92zM103.001 -176
c41.333 8 62 27.666 62 58.999c0 10 -3 21 -9 33l-18 26l123 19c26 -19.333 39 -46.333 39 -81c0 -42 -16.333 -74.333 -49 -97c-30 -21.333 -71 -32.666 -123 -33.999z" />
    <glyph glyph-name="Tcaron" unicode="&#x164;" horiz-adv-x="570" 
d="M193 522h-172v152h528v-152h-175v-522h-181v522zM217 710l-99 126h121l45 -59h2l44 59h121l-99 -126h-135z" />
    <glyph glyph-name="tcaron" unicode="&#x165;" horiz-adv-x="385" 
d="M253 632l0.000976562 -140h102v-132h-102v-141c0 -54.667 19 -82 57 -82c18.667 0 33 1.33301 43 4v-137c-24.667 -9.33301 -60.334 -14 -107.001 -14c-52 0 -93 15 -123 45c-30.667 30.667 -46 81.667 -46 153v172h-61v132h61v93zM309.001 600
c20.667 13.333 31 35 31 65c0 18 -4.33301 35.667 -13 53l112 17c20 -16 30 -39 30 -69c0 -35.333 -13.667 -65.333 -41 -90c-22.667 -20.667 -48.667 -34 -78 -40z" />
    <glyph glyph-name="Tbar" unicode="&#x166;" horiz-adv-x="570" 
d="M374 522v-141h110v-104h-110v-277h-181v277h-112v104h112v141h-172v152h528v-152h-175z" />
    <glyph glyph-name="tbar" unicode="&#x167;" horiz-adv-x="383" 
d="M253 360l0.000976562 -51h76v-91h-76v-13c0 -45.333 19 -68 57 -68c18.667 0 33 1.33301 43 4v-137c-24.667 -9.33301 -60.334 -14 -107.001 -14c-52 0 -93 15 -123 45c-30.667 30.667 -46 81.667 -46 153v30h-61v91h61v51h-61v132h61v92l176 48v-140h102v-132h-102z" />
    <glyph glyph-name="Utilde" unicode="&#x168;" horiz-adv-x="697" 
d="M242 674v-383c0 -106 35.333 -159 106 -159c71.333 0 107 53 107 159v383h181v-372c0 -208.667 -97.667 -313 -293 -313c-188 0 -282 105.667 -282 317v368h181zM202 714c-2.66699 92.667 24.332 139 80.999 139c13.333 0 26 -2 38 -6c8 -3.33301 17.333 -8 28 -14
c20.667 -13.333 35 -20 43 -20c14.667 0 23.667 14.667 27 44h78c2.66699 -90.667 -25.333 -136 -84 -136c-23.333 0 -45.666 6 -66.999 18l-22 13c-6.66699 3.33301 -13 5 -19 5c-13.333 0 -21 -14.333 -23 -43h-80z" />
    <glyph glyph-name="utilde" unicode="&#x169;" horiz-adv-x="598" 
d="M541 168c0 -32 0.333984 -63.333 1.00098 -94c0.666992 -24 1.66699 -48.667 3 -74h-156l-8 65h-3c-13.333 -20 -29.333 -36 -48 -48c-28.667 -18.667 -62.334 -28 -101.001 -28c-116.667 0 -175 71 -175 213v290h181v-261c0 -64.667 21 -97 63 -97c28.667 0 48 14 58 42
c2.66699 6 4 14.667 4 26v290h181v-324zM149.001 553c-4 96 25.332 144 87.999 144c20 0 42 -6.66699 66 -20l23 -14c8 -4 14.667 -6 20 -6c14 0 22.333 15 25 45h80c3.33301 -93.333 -26 -140 -88 -140c-13.333 0 -26.333 2.33301 -39 7l-25 11
c-2 0.666992 -4.66699 2 -8 4c-2 0.666992 -4 1.66699 -6 3l-14 8c-5.33301 2.66699 -10.666 4 -15.999 4c-15.333 0 -23.333 -15.333 -24 -46h-82z" />
    <glyph glyph-name="Umacron" unicode="&#x16a;" horiz-adv-x="697" 
d="M242 674v-383c0 -106 35.333 -159 106 -159c71.333 0 107 53 107 159v383h181v-372c0 -208.667 -97.667 -313 -293 -313c-188 0 -282 105.667 -282 317v368h181zM484 827v-92h-268v92h268z" />
    <glyph glyph-name="umacron" unicode="&#x16b;" horiz-adv-x="598" 
d="M541 168c0 -32 0.333984 -63.333 1.00098 -94c0.666992 -24 1.66699 -48.667 3 -74h-156l-8 65h-3c-13.333 -20 -29.333 -36 -48 -48c-28.667 -18.667 -62.334 -28 -101.001 -28c-116.667 0 -175 71 -175 213v290h181v-261c0 -64.667 21 -97 63 -97c28.667 0 48 14 58 42
c2.66699 6 4 14.667 4 26v290h181v-324zM430.001 675v-96h-261v96h261z" />
    <glyph glyph-name="Ubreve" unicode="&#x16c;" horiz-adv-x="697" 
d="M242 674v-383c0 -106 35.333 -159 106 -159c71.333 0 107 53 107 159v383h181v-372c0 -208.667 -97.667 -313 -293 -313c-188 0 -282 105.667 -282 317v368h181zM295 840c2.66699 -30 20.333 -45 53 -45c33.333 0 53 15 59 45h89c-1.33301 -90 -50.333 -135 -147 -135
c-49.333 0 -86.333 12.667 -111 38c-22.667 22.667 -34.667 55 -36 97h93z" />
    <glyph glyph-name="ubreve" unicode="&#x16d;" horiz-adv-x="598" 
d="M541 168c0 -32 0.333984 -63.333 1.00098 -94c0.666992 -24 1.66699 -48.667 3 -74h-156l-8 65h-3c-13.333 -20 -29.333 -36 -48 -48c-28.667 -18.667 -62.334 -28 -101.001 -28c-116.667 0 -175 71 -175 213v290h181v-261c0 -64.667 21 -97 63 -97c28.667 0 48 14 58 42
c2.66699 6 4 14.667 4 26v290h181v-324zM245.001 697c5.33301 -38.667 22.998 -58 52.998 -58c36 0 54.667 19.333 56 58h90c-1.33301 -100.667 -49.666 -151 -144.999 -151s-143.666 50.333 -144.999 151h91z" />
    <glyph glyph-name="Uring" unicode="&#x16e;" horiz-adv-x="697" 
d="M242 674v-383c0 -106 35.333 -159 106 -159c71.333 0 107 53 107 159v383h181v-372c0 -208.667 -97.667 -313 -293 -313c-188 0 -282 105.667 -282 317v368h181zM351 891c80 0 120 -34 120 -102c0 -66.667 -40.333 -100 -121 -100c-81.333 0 -122 33 -122 99
c0 68.667 40.667 103 122 103h1zM347 834c-27.333 0 -41 -15 -41 -45c0 -28.667 14 -43 42 -43c29.333 0 44 14.333 44 43c0 30 -14.667 45 -44 45h-1z" />
    <glyph glyph-name="uring" unicode="&#x16f;" horiz-adv-x="598" 
d="M541 168c0 -32 0.333984 -63.333 1.00098 -94c0.666992 -24 1.66699 -48.667 3 -74h-156l-8 65h-3c-13.333 -20 -29.333 -36 -48 -48c-28.667 -18.667 -62.334 -28 -101.001 -28c-116.667 0 -175 71 -175 213v290h181v-261c0 -64.667 21 -97 63 -97c28.667 0 48 14 58 42
c2.66699 6 4 14.667 4 26v290h181v-324zM301.001 741c79.333 0 119 -33.667 119 -101c0 -66.667 -40 -100 -120 -100c-80.667 0 -121 33 -121 99c0 68 40.333 102 121 102h1zM299.001 686c-28 0 -42 -15.667 -42 -47c0 -29.333 14 -44 42 -44c29.333 0 44 15 44 45
c0 30.667 -14.333 46 -43 46h-1z" />
    <glyph glyph-name="Uhungarumlaut" unicode="&#x170;" horiz-adv-x="697" 
d="M242 674v-383c0 -106 35.333 -159 106 -159c71.333 0 107 53 107 159v383h181v-372c0 -208.667 -97.667 -313 -293 -313c-188 0 -282 105.667 -282 317v368h181zM409 838l-98 -118h-122l59 118h161zM605 838l-97 -118h-123l59 118h161z" />
    <glyph glyph-name="uhungarumlaut" unicode="&#x171;" horiz-adv-x="598" 
d="M541 168c0 -32 0.333984 -63.333 1.00098 -94c0.666992 -24 1.66699 -48.667 3 -74h-156l-8 65h-3c-13.333 -20 -29.333 -36 -48 -48c-28.667 -18.667 -62.334 -28 -101.001 -28c-116.667 0 -175 71 -175 213v290h181v-261c0 -64.667 21 -97 63 -97c28.667 0 48 14 58 42
c2.66699 6 4 14.667 4 26v290h181v-324zM344.001 705l-92 -155h-99l57 155h134zM530.001 705l-92 -155h-99l56 155h135z" />
    <glyph glyph-name="Uogonek" unicode="&#x172;" horiz-adv-x="697" 
d="M494 -189c-34.667 -24 -74.667 -35.998 -120 -35.998c-72.667 0 -109 31 -109 93c0 24 6.66699 48 20 72c9.33301 16.667 22 33.667 38 51h-6c-170.667 7.33301 -256 112.666 -256 315.999v367h181v-382c0 -106 35.333 -159 106 -159c71.333 0 107 53 107 159v382h181
v-371c0 -170.667 -65.667 -271.334 -197 -302.001c-14 -12.667 -25.333 -25.667 -34 -39c-10.667 -16 -16 -30.333 -16 -43c0 -22.667 12.667 -34 38 -34c13.333 0 27.333 2.66699 42 8z" />
    <glyph glyph-name="uogonek" unicode="&#x173;" horiz-adv-x="598" 
d="M541 168c0 -32 0.333984 -63.332 1.00098 -93.999c0.666992 -24 1.66699 -48.667 3 -74h-60c-8.66699 -20 -13 -39 -13 -57c0 -38.667 18.667 -58 56 -58c16.667 0 31 2 43 6l24 -81c-30.667 -23.333 -67.667 -35 -111 -35c-80.667 0 -121 38.333 -121 115
c0 19.333 4 41.666 12 66.999l14 43l-8 65h-3c-13.333 -20 -29.333 -36 -48 -48c-28.667 -18.667 -62.334 -28 -101.001 -28c-116.667 0 -175 71 -175 213v290h181v-261c0 -64.667 21 -97 63 -97c28.667 0 48 14 58 42c2.66699 6 4 14.667 4 26v290h181v-324z" />
    <glyph glyph-name="Wcircumflex" unicode="&#x174;" horiz-adv-x="906" 
d="M170 0l-155 673.999h194l57 -371l16 -116h2c5.33301 35.333 11.666 74.333 18.999 117c5.33301 35.333 12.333 76.333 21 123l43 247h193l42 -259c6 -37.333 11.333 -74.666 16 -111.999c4.66699 -33.333 9.33398 -70.333 14.001 -111h2l34 235l40 247h183l-166 -674
h-197l-45 264c-10.667 62 -20 129.333 -28 202h-2l-8 -57c-2.66699 -19.333 -5.33398 -36.333 -8.00098 -51c-5.33301 -36 -10.666 -67.333 -15.999 -94l-51 -264h-200zM528 835.999l99 -126h-121l-45 59h-2l-44 -59h-121l99 126h135z" />
    <glyph glyph-name="wcircumflex" unicode="&#x175;" horiz-adv-x="769" 
d="M192 492l27.999 -181l6 -38c2.66699 -14.667 4.66699 -28 6 -40c4.66699 -30.667 8.66699 -59 12 -85h2c4 24 9.33301 52.333 16 85l56 259h141l44 -206l3 -10l8 -42c6.66699 -33.333 11.667 -62 15 -86h2c2.66699 27.333 6.33398 56 11.001 86
c4 26 8.66699 54.333 14 85l29 173h176l-147 -492h-170l-34 146c-8 36 -17 86 -27 150h-2c-6 -54 -14.333 -103.333 -25 -148l-37 -148h-170l-141 492h184zM445.999 706l101 -156h-113l-47 84h-2l-47 -84h-114l102 156h120z" />
    <glyph glyph-name="Ycircumflex" unicode="&#x176;" horiz-adv-x="629" 
d="M219 0v271.999l-212 402h207l57 -152c11.333 -28.667 19.333 -50 24 -64c8 -20.667 15.333 -41 22 -61h2c12.667 40.667 27 82.334 43 125.001l55 152h204l-221 -395v-279h-181zM383 835.999l99 -126h-121l-45 59h-2l-44 -59h-121l99 126h135z" />
    <glyph glyph-name="ycircumflex" unicode="&#x177;" horiz-adv-x="545" 
d="M205 492l59.002 -220.998l21 -88h4l63 309h192l-105 -313c-34.667 -97.333 -66.334 -172 -95.001 -224c-24.667 -44 -51.334 -78.667 -80.001 -104c-26 -22.667 -54.667 -40.334 -86 -53.001c-24.667 -10 -50.667 -16.333 -78 -19l-37 152
c21.333 3.33301 42 9.66602 62 18.999c22.667 8.66699 42 23.667 58 45c6 8.66699 9 16 9 22c0 3.33301 -0.333008 7 -1 11c-1.33301 4.66699 -3.33301 9.66699 -6 15l-180 449h200zM341.002 706.002l101 -156h-113l-47 84h-2l-47 -84h-114l102 156h120z" />
    <glyph glyph-name="Ydieresis" unicode="&#x178;" horiz-adv-x="629" 
d="M219 0v271.999l-212 402h207l57 -152c11.333 -28.667 19.333 -50 24 -64c8 -20.667 15.333 -41 22 -61h2c12.667 40.667 27 82.334 43 125.001l55 152h204l-221 -395v-279h-181zM216 708.999c-51.333 0 -77 25.667 -77 77c0 50.667 26 76 78 76
c49.333 0 74 -25.333 74 -76c0 -51.333 -24.667 -77 -74 -77h-1zM433 708.999c-50.667 0 -76 25.667 -76 77c0 50.667 25.667 76 77 76c50 0 75 -25.333 75 -76c0 -51.333 -25 -77 -75 -77h-1z" />
    <glyph glyph-name="Zacute" unicode="&#x179;" horiz-adv-x="588" 
d="M21 96l298 425v4h-270v149h504v-103l-289 -418v-4h294v-149h-537v96zM470 836l-120 -126h-144l81 126h183z" />
    <glyph glyph-name="zacute" unicode="&#x17a;" horiz-adv-x="486" 
d="M24 103l126 153.001c29.333 33.333 57.333 63.666 84 90.999v2h-194v143h414v-108l-129 -156l-32 -37c-16 -18 -30.667 -33.333 -44 -46v-2h214v-143h-439v103zM417 706.001l-123 -156h-122l85 156h160z" />
    <glyph glyph-name="Zdotaccent" unicode="&#x17b;" horiz-adv-x="588" 
d="M21 96l298 425v4h-270v149h504v-103l-289 -418v-4h294v-149h-537v96zM298 709c-52 0 -78 25.333 -78 76c0 51.333 26.333 77 79 77c50 0 75 -25.667 75 -77c0 -50.667 -25 -76 -75 -76h-1z" />
    <glyph glyph-name="zdotaccent" unicode="&#x17c;" horiz-adv-x="486" 
d="M24 103l126 153.001c29.333 33.333 57.333 63.666 84 90.999v2h-194v143h414v-108l-129 -156l-32 -37c-16 -18 -30.667 -33.333 -44 -46v-2h214v-143h-439v103zM248 551.001c-53.333 0 -80 26.333 -80 79s27 79 81 79c50.667 0 76 -26.333 76 -79s-25.333 -79 -76 -79h-1
z" />
    <glyph glyph-name="Zcaron" unicode="&#x17d;" horiz-adv-x="588" 
d="M21 96l298 425v4h-270v149h504v-103l-289 -418v-4h294v-149h-537v96zM231 710l-99 126h121l45 -59h2l44 59h121l-99 -126h-135z" />
    <glyph glyph-name="zcaron" unicode="&#x17e;" horiz-adv-x="486" 
d="M24 103l126 153.001c29.333 33.333 57.333 63.666 84 90.999v2h-194v143h414v-108l-129 -156l-32 -37c-16 -18 -30.667 -33.333 -44 -46v-2h214v-143h-439v103zM185 550.001l-101 156h113l47 -84h2l47 84h114l-102 -156h-120z" />
    <glyph glyph-name="florin" unicode="&#x192;" horiz-adv-x="573" 
d="M115 416h88l3 27c0.666992 8 1.66699 16.333 3 25c2 10.667 4.66699 21 8 31c8 27.333 19.333 51.666 34 72.999c18 26.667 40.667 47.334 68 62.001c32 18 70 27 114 27c38 0 67.667 -5.66699 89 -17l-28 -126c-12 5.33301 -27 8 -45 8c-39.333 0 -62 -23 -68 -69
l-6 -41h94v-124h-109l-21 -167c-4 -32.667 -9.66699 -60.667 -17 -84c-9.33301 -27.333 -21.333 -50.333 -36 -69c-33.333 -43.333 -85 -65 -155 -65c-45.333 1.33301 -77.666 7 -96.999 17l24 124c11.333 -3.33301 25.666 -5.66602 42.999 -6.99902
c22.667 0.666992 38.667 8.66699 48 24c10 17.333 18.667 54.666 26 111.999l13 115h-73v124z" />
    <glyph glyph-name="AEacute" unicode="&#x1fc;" horiz-adv-x="66" 
d="M331 1152h188v-1l-124 -129h-148v0c53.333 84.667 81.333 128 84 130zM782 945l1 -2v-147l-1 -2h-275l15 -112h257l2 -2v-146l-2 -1h-234l17 -121h261l1 -2v-147l-1 -1h-417c-1.33301 0 -4 18.667 -8 56l-15 107h-144l-1 1h-1l53 145h72l-31 245h-3
c-21.333 -71.333 -49.333 -152 -84 -242l-114 -312h-1h-186h-1h-1l282 683h559z" />
    <glyph glyph-name="aeacute" unicode="&#x1fd;" horiz-adv-x="816" 
d="M482 190c6 -46 46.665 -69 121.998 -69c48.667 0 95 8.66699 139 26l23 -120c-28 -14 -59.667 -24.333 -95 -31c-28.667 -4.66699 -60 -7 -94 -7c-87.333 0 -149.666 26.333 -186.999 79h-4c-22 -24.667 -47 -43.667 -75 -57c-31.333 -14.667 -67.333 -22 -108 -22
c-53.333 0 -96.333 15.667 -129 47c-31.333 29.333 -47 67 -47 113c0 59.333 27 105 81 137c50.667 30 119.334 45 206.001 45v12c0 2.66699 -1.33301 6 -4 10s-7 8 -13 12c-15.333 10 -38 15 -68 15c-23.333 0 -48 -4 -74 -12c-20.667 -6.66699 -40.334 -15 -59.001 -25
l-33 113l31 14c13.333 6 27 11.333 41 16c36.667 11.333 73 17 109 17c75.333 0 130 -23 164 -69h2c42.667 46 98 69 166 69c68.667 0 122.334 -25 161.001 -75c34.667 -46 52 -105 52 -177c0 -8 -0.666992 -19.333 -2 -34l-2 -27h-303zM318.998 223
c-77.333 0 -116 -20.333 -116 -61c0 -32 17.667 -48 53 -48c25.333 0 45 12.667 59 38c2.66699 4.66699 4 14 4 28v43zM623.998 310v9.99902l-2 12c-2 10 -5.33301 18.667 -10 26c-11.333 19.333 -30.333 29 -57 29c-24 0 -43 -9.33301 -57 -28
c-11.333 -15.333 -17 -31.666 -17 -48.999h143zM566.998 705.999l-123 -156h-122l85 156h160z" />
    <glyph glyph-name="Oslashacute" unicode="&#x1fe;" horiz-adv-x="730" 
d="M75 0l55 84c-64 64 -96 148.667 -96 254c0 98 30 179.667 90 245c62 68 142.667 102 242 102c50 0 96.667 -9 140 -27l54 80l101 -67l-54 -84c59.333 -63.333 89 -145.333 89 -246c0 -106.667 -30.667 -192 -92 -256c-60 -64 -139.667 -96 -239 -96
c-46.667 0 -91 8.33301 -133 25l-60 -90zM423 530c-16 10 -35.334 15 -58.001 15c-45.333 0 -81.666 -18.333 -108.999 -55c-27.333 -38 -41 -88.667 -41 -152c0 -34.667 5.33301 -68 16 -100h1zM314.999 142c12.667 -8.66699 29.333 -12.999 50 -12.999
c100 0 150 69.667 150 209c0 27.333 -3.66699 56.666 -11 87.999l-2 1zM540.998 840.001l-120 -126h-144l81 126h183z" />
    <glyph glyph-name="oslashacute" unicode="&#x1ff;" horiz-adv-x="589" 
d="M295 503c44.667 0 83.333 -7.66797 116 -23.001l49 73l59 -41l-47 -70c57.333 -46 86 -111.333 86 -196c0 -81.333 -27 -145.666 -81 -192.999c-48.667 -42.667 -109 -64 -181 -64c-43.333 0 -81 7.33301 -113 22l-51 -75l-57 45l46 67c-60 45.333 -90 111 -90 197
c0 76.667 24 138.667 72 186c48 48 111.667 72 191 72h1zM333.999 362.999c-12 8.66699 -25.333 13 -40 13c-30.667 0 -54 -14 -70 -42c-13.333 -24 -20 -53.333 -20 -88c0 -25.333 3.33301 -45 10 -59l2 -1zM257.999 128.999c8.66699 -8.66699 21.333 -13 38 -13
c59.333 0 89 42 89 126c0 22.667 -2.33301 42 -7 58l-3 1zM458.998 705.999l-123 -156h-122l85 156h160z" />
    <glyph glyph-name="Scommaaccent" unicode="&#x218;" horiz-adv-x="561" 
d="M74 180c22.667 -12 48.3359 -21.668 77.0029 -29.001c34 -8.66699 66.667 -13 98 -13c61.333 0 92 18.333 92 55c0 27.333 -35.333 53 -106 77c-60.667 22 -106.667 48.333 -138 79c-34.667 34.667 -52 76 -52 124c0 61.333 24 111.333 72 150
c49.333 40.667 115.666 61 198.999 61c37.333 0 72.333 -3.33301 105 -10c27.333 -5.33301 53 -13.333 77 -24l-38 -145c-4 2 -8 3.66699 -12 5c-4.66699 2 -9.33398 3.66699 -14.001 5c-10.667 4.66699 -21.667 8.33398 -33 11.001c-28.667 7.33301 -57.667 11 -87 11
c-56.667 0 -85 -16.667 -85 -50c0 -22 40.333 -48.333 121 -79c116.667 -43.333 175 -111 175 -203c0 -62 -23.333 -112.333 -70 -151c-50.667 -42.667 -123 -64 -217 -64c-38 0 -76.333 4.33301 -115 13c-34.667 8 -62.334 17.333 -83.001 28zM180.002 -175.001
c41.333 9.33301 62 28.999 62 58.999c0 10 -3 21 -9 33l-18 26l123 19c26 -19.333 39 -46.333 39 -81c0 -42 -16.333 -74.333 -49 -97c-30 -21.333 -71 -32.666 -123 -33.999z" />
    <glyph glyph-name="scommaaccent" unicode="&#x219;" horiz-adv-x="451" 
d="M60 152c40.667 -24.667 85.998 -36.999 135.998 -36.999c36 0 54 9 54 27c0 14 -21.333 28 -64 42c-51.333 16 -89.333 38 -114 66c-21.333 24.667 -31.666 52.667 -30.999 84c0 49.333 19.333 89.666 58 120.999c40 32 92 48 156 48c28 0 56 -3 84 -9
c23.333 -4.66699 44 -11 62 -19l-29 -122c-14 6.66699 -30 12.667 -48 18c-22.667 6 -43 9 -61 9c-32.667 0 -49 -9.33301 -49 -28c0 -14 24.667 -29 74 -45c88.667 -28.667 133.667 -79.334 135 -152.001c0 -49.333 -18.333 -88.666 -55 -117.999
c-40 -31.333 -96.667 -47 -170 -47c-67.333 0 -123.666 11.667 -168.999 35zM123.998 -175.999c41.333 8 62 27.666 62 58.999c0 10 -3 21 -9 33l-18 26l123 19c26 -19.333 39 -46.333 39 -81c0 -42 -16.333 -74.333 -49 -97c-30 -21.333 -71 -32.666 -123 -33.999z" />
    <glyph glyph-name="circumflex" unicode="&#x2c6;" 
d="M211 706l101 -156h-113l-47 84h-2l-47 -84h-114l102 156h120z" />
    <glyph glyph-name="caron" unicode="&#x2c7;" 
d="M89 550l-101 156h113l47 -84h2l47 84h114l-102 -156h-120z" />
    <glyph glyph-name="breve" unicode="&#x2d8;" 
d="M96 697c5.33301 -38.667 22.998 -58 52.998 -58c36 0 54.667 19.333 56 58h90c-1.33301 -100.667 -49.666 -151 -144.999 -151s-143.666 50.333 -144.999 151h91z" />
    <glyph glyph-name="dotaccent" unicode="&#x2d9;" 
d="M114 551c-53.333 0 -80 26.333 -80 79s27 79 81 79c50.667 0 76 -26.333 76 -79s-25.333 -79 -76 -79h-1z" />
    <glyph glyph-name="ring" unicode="&#x2da;" horiz-adv-x="400" 
d="M202 741c79.333 0 119 -33.667 119 -101c0 -66.667 -40 -100 -120 -100c-80.667 0 -121 33 -121 99c0 68 40.333 102 121 102h1zM200 686c-28 0 -42 -15.667 -42 -47c0 -29.333 14 -44 42 -44c29.333 0 44 15 44 45c0 30.667 -14.333 46 -43 46h-1z" />
    <glyph glyph-name="ogonek" unicode="&#x2db;" 
d="M156 1c-8.66699 -20 -13.002 -40.668 -13.002 -62.001c0 -36 18 -54 54 -54c8.66699 0 17.334 1 26.001 3l11 2c2.66699 1.33301 5.33398 2.33301 8.00098 3l24 -83c-30.667 -23.333 -67.667 -35 -111 -35c-80.667 0 -121 38.333 -121 115c0 20 4 42.333 12 67
c2.66699 8.66699 6 17.334 10 26.001l4 11l4 7h92z" />
    <glyph glyph-name="tilde" unicode="&#x2dc;" 
d="M5 553c-4 96 25.333 144 88 144c20 0 42 -6.66699 66 -20l24 -14c7.33301 -4 13.666 -6 18.999 -6c14 0 22.333 15 25 45h80c4 -93.333 -25.333 -140 -88 -140c-13.333 0 -26.333 2.33301 -39 7l-25 11c-2 0.666992 -4.66699 2 -8 4c-2 0.666992 -4 1.66699 -6 3l-14 8
c-5.33301 2.66699 -10.666 4 -15.999 4c-14.667 0 -22.667 -15.333 -24 -46h-82z" />
    <glyph glyph-name="hungarumlaut" unicode="&#x2dd;" 
d="M169 705l-92 -155h-99l57 155h134zM355 705l-92 -155h-99l56 155h135z" />
    <glyph glyph-name="uni037E" unicode="&#x37e;" horiz-adv-x="303" 
d="M21 -118c14 55.333 25.332 106 33.999 152c10 52.667 16.667 100.667 20 144l178 5c-27.333 -98 -65.666 -195 -114.999 -291zM157.999 269c-71.333 0 -107 37 -107 111c0 72.667 36 109 108 109s108 -36.333 108 -109c0 -74 -36 -111 -108 -111h-1z" />
    <glyph glyph-name="tonos" unicode="&#x384;" horiz-adv-x="304" 
d="M280 706l-80 -156h-116l43 156h153z" />
    <glyph glyph-name="dieresistonos" unicode="&#x385;" horiz-adv-x="474" 
d="M320 738l-58 -183h-92l22 183h128zM76 560c-46.667 0 -70 23 -70 69s23.667 69 71 69c44.667 0 67 -23 67 -69s-22.333 -69 -67 -69h-1zM394 560c-45.333 0 -68 23 -68 69s23 69 69 69s69 -23 69 -69s-23 -69 -69 -69h-1z" />
    <glyph glyph-name="Alphatonos" unicode="&#x386;" horiz-adv-x="685" 
d="M249 156l-38 -156h-187l196 674h240l201 -674h-195l-43 156h-174zM398 289l-31 121l-33 133h-2l-30 -133l-29 -121h125zM140 674l-37 -182h-102l-1 182h140z" />
    <glyph glyph-name="anoteleia" unicode="&#x387;" horiz-adv-x="303" 
d="M150 198c-32.667 0 -59.332 11 -79.999 33c-21.333 21.333 -32 49 -32 83c0 33.333 10.667 61 32 83c21.333 21.333 48.666 32 81.999 32c74 0 111.667 -38.333 113 -115c0 -77.333 -38 -116 -114 -116h-1z" />
    <glyph glyph-name="Epsilontonos" unicode="&#x388;" horiz-adv-x="677" 
d="M610 272h-242v-124h271v-148h-452v674h438v-148h-257v-108h242v-146zM140 674l-38 -182h-102v182h140z" />
    <glyph glyph-name="Etatonos" unicode="&#x389;" horiz-adv-x="829" 
d="M368 674v-250h218v250h181v-674h-181v266h-218v-266h-181v674h181zM140 674l-37 -182h-102l-1 182h140z" />
    <glyph glyph-name="Iotatonos" unicode="&#x38a;" horiz-adv-x="430" 
d="M368 674v-674h-181v674h181zM140 674l-38 -182h-102v182h140z" />
    <glyph glyph-name="Omicrontonos" unicode="&#x38c;" horiz-adv-x="820" 
d="M448 -11c-100.667 0 -180.667 34 -240 102c-56 63.333 -84 144 -84 242c0 100.667 30 184 90 250c62 68 143.667 102 245 102c103.333 0 185 -34.333 245 -103c54.667 -62.667 82 -142 82 -238c0 -108.667 -30.333 -195 -91 -259s-142.667 -96 -246 -96h-1zM457 132
c42.667 0 76.668 18.999 102.001 56.999c24 37.333 36 87 36 149c0 59.333 -12.333 108 -37 146c-25.333 38.667 -59.666 58 -102.999 58c-42.667 0 -77 -19.667 -103 -59c-24.667 -37.333 -37 -86 -37 -146c-0.666992 -61.333 11.666 -110.666 36.999 -147.999
c25.333 -38 59.666 -57 102.999 -57h2zM141.001 673.999l-38 -182h-102v182h140z" />
    <glyph glyph-name="Upsilontonos" unicode="&#x38e;" horiz-adv-x="810" 
d="M200 680c34.667 0 69.333 -6.66699 104 -20c41.333 -16 76 -39.333 104 -70c45.333 -47.333 72.333 -115 81 -203h8c10 77.333 38.667 142.333 86 195c59.333 65.333 122.333 98 189 98l27 -154c-50 -12.667 -95 -44 -135 -94c-36.667 -46.667 -62 -99.667 -76 -159
c-10.667 -48.667 -16 -94.667 -16 -138v-135h-181v135c0 46 -3 89.667 -9 131c-11.333 70.667 -32 127.667 -62 171c-36 52 -85 83.333 -147 94zM139.999 674l-38 -182h-102v182h140z" />
    <glyph glyph-name="Omegatonos" unicode="&#x38f;" horiz-adv-x="846" 
d="M683 136l130.002 -0.000976562v-136h-317v104c18 14 33.333 28 46 42c14.667 16.667 27.334 34 38.001 52c23.333 42.667 35 93.334 35 152.001c0 55.333 -13.333 101 -40 137c-28 36.667 -63.667 55 -107 55c-44 0 -80 -18 -108 -54c-28.667 -36.667 -43 -83 -43 -139
c0 -54.667 11.667 -104.667 35 -150c21.333 -42 49.333 -73.667 84 -95v-104h-318v136h127v4c-31.333 24.667 -57 54.667 -77 90c-25.333 44 -38 92 -38 144c0 86 31.333 159 94 219c64.667 61.333 147 92 247 92c52 0 99.667 -8.66699 143 -26
c39.333 -16 73.666 -38.667 102.999 -68c56 -57.333 84 -125.666 84 -204.999c0 -30 -4 -58.667 -12 -86c-6.66699 -24 -16.334 -47 -29.001 -69c-10.667 -18.667 -23.334 -36.334 -38.001 -53.001c-12 -13.333 -25 -26 -39 -38v-4zM140.002 673.999l-37 -182h-102l-1 182
h140z" />
    <glyph glyph-name="iotadieresistonos" unicode="&#x390;" horiz-adv-x="299" 
d="M237 168c0 -32 15 -46.333 45 -43l-9 -124c-14 -8 -39 -12 -75 -12c-48 0 -83 11.333 -105 34c-24.667 25.333 -37 68 -37 128v341h181v-324zM239 728l-58 -180h-90l21 180h127zM-3 551c-46 0 -69 23 -69 69c0 45.333 23.333 68 70 68c44.667 0 67 -22.667 67 -68
c0 -46 -22.333 -69 -67 -69h-1zM312 551c-45.333 0 -68 23 -68 69c0 45.333 23 68 69 68c45.333 0 68 -22.667 68 -68c0 -46 -22.667 -69 -68 -69h-1z" />
    <glyph glyph-name="Alpha" unicode="&#x391;" horiz-adv-x="675" 
d="M239 156l-38 -156h-187l196 674h240l201 -674h-195l-43 156h-174zM388 289l-31 121l-33 133h-2l-30 -133l-29 -121h125z" />
    <glyph glyph-name="Beta" unicode="&#x392;" horiz-adv-x="631" 
d="M62 664c51.333 10 122.331 15.001 212.998 15.001c93.333 0 162 -11 206 -33c60.667 -28.667 91 -75 91 -139c0 -30 -8.33301 -56.667 -25 -80c-19.333 -26.667 -47.666 -47 -84.999 -61v-2c88 -24.667 132 -79.334 132 -164.001c0 -60.667 -25.333 -110 -76 -148
c-26 -20 -60.667 -34.667 -104 -44c-46 -10.667 -104 -16 -174 -16c-77.333 0 -136.666 4 -177.999 12v660zM240.998 415.001h36c76 0 114 23.333 114 70c0 42.667 -30.333 64 -91 64c-13.333 0 -25.333 -0.333008 -36 -1l-23 -3v-130zM240.998 126.001
c8.66699 -1.33301 26 -2 52 -2c32.667 0 58.667 6.66699 78 20c22 14.667 33 36 33 64c0 52.667 -40 79 -120 79h-43v-161z" />
    <glyph glyph-name="Gamma" unicode="&#x393;" horiz-adv-x="495" 
d="M492 674v-151h-249v-523h-181v674h430z" />
    <glyph glyph-name="Delta" unicode="&#x394;" horiz-adv-x="661" 
d="M12 88l208 586h223l202 -585v-89h-633v88zM437 148l-77.001 243.001c-13.333 43.333 -25.666 90.666 -36.999 141.999h-4l-34 -135l-77 -250h229z" />
    <glyph glyph-name="Delta" unicode="&#xe000;" horiz-adv-x="661" 
d="M12 88l208 586h223l202 -585v-89h-633v88zM437 148l-77.001 243.001c-13.333 43.333 -25.666 90.666 -36.999 141.999h-4l-34 -135l-77 -250h229z" />
    <glyph glyph-name="Epsilon" unicode="&#x395;" horiz-adv-x="552" 
d="M485 272h-242v-124h271v-148h-452v674h438v-148h-257v-108h242v-146z" />
    <glyph glyph-name="Zeta" unicode="&#x396;" horiz-adv-x="588" 
d="M21 96l298 425v4h-270v149h504v-103l-289 -418v-4h294v-149h-537v96z" />
    <glyph glyph-name="Eta" unicode="&#x397;" horiz-adv-x="705" 
d="M243 674v-250h219v250h181v-674h-181v266h-219v-266h-181v674h181z" />
    <glyph glyph-name="Theta" unicode="&#x398;" horiz-adv-x="733" 
d="M359 -11c-101.333 0 -181.668 34 -241.001 102c-56 63.333 -84 144 -84 242c0 100.667 30 184 90 250c62.667 68 144.667 102 246 102c103.333 0 185 -34.333 245 -103c55.333 -63.333 83 -143 83 -239c0 -108 -30.333 -194 -91 -258
c-61.333 -64 -143.666 -96 -246.999 -96h-1zM367.998 132c43.333 0 77.667 18.999 103 56.999c24.667 37.333 37 87 37 149c0 59.333 -12.333 108 -37 146c-26 38.667 -60.667 58 -104 58s-78.333 -19.667 -105 -59c-25.333 -37.333 -38 -86 -38 -146
c0 -61.333 12.667 -110.666 38 -147.999c26 -38 61 -57 105 -57h1zM456.999 413.999v-145h-183v145h183z" />
    <glyph glyph-name="Iota" unicode="&#x399;" horiz-adv-x="305" 
d="M243 674v-674h-181v674h181z" />
    <glyph glyph-name="Kappa" unicode="&#x39a;" horiz-adv-x="646" 
d="M62 674h179v-286h2l38 65l135 221h222l-214 -287l222 -387h-209l-142 273l-54 -69v-204h-179v674z" />
    <glyph glyph-name="Lambda" unicode="&#x39b;" horiz-adv-x="665" 
d="M455 0l-98 378c-11.333 51.333 -23 101.333 -35 150h-2l-29 -151l-88 -377h-189l196 674h238l205 -674h-198z" />
    <glyph glyph-name="Mu" unicode="&#x39c;" horiz-adv-x="865" 
d="M633 242c-1.33301 36.667 -2.33301 78.332 -3 124.999c-0.666992 42 -1 90.667 -1 146h-3l-35 -138l-36 -126l-67 -235h-141l-56 235c-8.66699 34.667 -18 76.334 -28 125.001c-9.33301 44.667 -18 91 -26 139h-2l-10 -271l-11 -242h-166l42 674h243l44 -182
c10 -38.667 19.333 -78.667 28 -120c10 -44.667 18.333 -86.667 25 -126h3l30 128c12 48.667 22.333 88.667 31 120l51 180h237l34 -674h-175z" />
    <glyph glyph-name="Nu" unicode="&#x39d;" horiz-adv-x="705" 
d="M62 0v674.002h213l107 -207c17.333 -32 36 -69.667 56 -113c17.333 -40 34 -81 50 -123h3c-9.33301 83.333 -14 177.666 -14 282.999v160h165v-674h-190l-115 224c-20.667 39.333 -40 78.666 -58 117.999c-22 45.333 -40.333 87 -55 125h-4
c4.66699 -84.667 7 -185 7 -301v-166h-165z" />
    <glyph glyph-name="Xi" unicode="&#x39e;" horiz-adv-x="589" 
d="M536 674v-146h-478v146h478zM505 417v-146h-417v146h417zM552 148v-148h-510v148h510z" />
    <glyph glyph-name="Omicron" unicode="&#x39f;" horiz-adv-x="730" 
d="M358 -11c-100.667 0 -180.667 34 -240 102c-56 63.333 -84 144 -84 242c0 100.667 30 184 90 250c62 68 143.667 102 245 102c103.333 0 185 -34.333 245 -103c54.667 -62.667 82 -142 82 -238c0 -108.667 -30.333 -195 -91 -259s-142.667 -96 -246 -96h-1zM367 132
c42.667 0 76.668 18.999 102.001 56.999c24 37.333 36 87 36 149c0 59.333 -12.333 108 -37 146c-25.333 38.667 -59.666 58 -102.999 58c-42.667 0 -77 -19.667 -103 -59c-24.667 -37.333 -37 -86 -37 -146c-0.666992 -61.333 11.666 -110.666 36.999 -147.999
c25.333 -38 59.666 -57 102.999 -57h2z" />
    <glyph glyph-name="Pi" unicode="&#x3a0;" horiz-adv-x="681" 
d="M619 0h-181v522h-195v-522h-181v674h557v-674z" />
    <glyph glyph-name="Rho" unicode="&#x3a1;" horiz-adv-x="602" 
d="M62 664c27.333 4.66699 57.668 8.33301 91.001 11c40 2.66699 83.667 4 131 4c96 0 167.333 -18 214 -54c51.333 -38 77 -92 77 -162c0 -70.667 -22 -126 -66 -166c-52.667 -46.667 -127.334 -70 -224.001 -70l-44 2v-229h-179v664zM241.002 366.999
c2.66699 0 5.33301 -0.333008 8 -1l33 -1c76 0 114 31.333 114 94c0 56 -34 84 -102 84c-23.333 0 -41 -1.33301 -53 -4v-172z" />
    <glyph glyph-name="Sigma" unicode="&#x3a3;" horiz-adv-x="590" 
d="M261 148h293v-148h-522v101l185 233l-175 223v117h489v-148h-260v-4l139 -181l-149 -189v-4z" />
    <glyph glyph-name="Tau" unicode="&#x3a4;" horiz-adv-x="570" 
d="M193 522h-172v152h528v-152h-175v-522h-181v522z" />
    <glyph glyph-name="Upsilon" unicode="&#x3a5;" horiz-adv-x="642" 
d="M35 680c34.667 0 69.333 -6.66699 104 -20c41.333 -16 76 -39.333 104 -70c45.333 -47.333 72.333 -115 81 -203h8c10 77.333 38.667 142.333 86 195c59.333 65.333 122.333 98 189 98l27 -154c-50 -12.667 -95 -44 -135 -94c-36.667 -46.667 -62 -99.667 -76 -159
c-10.667 -48.667 -16 -94.667 -16 -138v-135h-181v135c0 46 -3 89.667 -9 131c-11.333 70.667 -32 127.667 -62 171c-36 52 -85 83.333 -147 94z" />
    <glyph glyph-name="Phi" unicode="&#x3a6;" horiz-adv-x="815" 
d="M490 -29l-167.999 0.00292969v56c-81.333 10.667 -148 40.667 -200 90c-59.333 55.333 -89 127.666 -89 216.999c0 47.333 9 91 27 131c16.667 35.333 40 66.666 70 93.999c26.667 24.667 58 45 94 61c32 14.667 65.333 24.667 100 30v53h168v-53
c80 -11.333 146.333 -41.333 199 -90c28 -26.667 49.667 -57.667 65 -93c16.667 -38 25 -80 25 -126c0 -88.667 -29.333 -161.334 -88 -218.001c-52.667 -50.667 -120.334 -82.667 -203.001 -96v-56zM323.001 526.003c-29.333 -8 -54 -26.668 -74 -56.001
c-23.333 -35.333 -35 -80.666 -35 -135.999c0 -49.333 12.333 -91.333 37 -126c20.667 -30.667 44.667 -49 72 -55v373zM491.001 153.002c28.667 7.33301 52.667 23.999 72 49.999c24.667 32.667 37 76.667 37 132c0 57.333 -11.667 103.333 -35 138
c-20 28.667 -44.667 46.334 -74 53.001v-373z" />
    <glyph glyph-name="Chi" unicode="&#x3a7;" horiz-adv-x="631" 
d="M410 0l-49.001 109.999l-52 117h-2c-5.33301 -16.667 -12 -35.667 -20 -57l-69 -170h-205l190 341l-183 333h207l46 -107l45 -112h2l20 58c6.66699 18.667 13.334 36.334 20.001 53.001l41 108h206l-183 -329l195 -345h-209z" />
    <glyph glyph-name="Psi" unicode="&#x3a8;" horiz-adv-x="767" 
d="M729 479c0 -99.333 -26.334 -175.335 -79.001 -228.002c-44.667 -45.333 -106 -70.666 -184 -75.999v-175h-164v175c-77.333 5.33301 -138.666 28.333 -183.999 69c-52 46.667 -78 113 -78 199v231h173v-204c0 -57.333 8.66699 -98.666 26 -123.999
c14 -21.333 35 -33 63 -35v363h164v-365c28.667 2.66699 50 16.667 64 42c17.333 32 26 83.667 26 155v168h173v-195z" />
    <glyph glyph-name="Omega" unicode="&#x3a9;" horiz-adv-x="761" 
d="M598 136l130.003 -0.000976562v-136h-317v104c36 28.667 64 61.334 84 98.001c23.333 44 35 93.333 35 148c0 55.333 -13.333 101 -40 137c-28 36.667 -63.667 55 -107 55c-44 0 -80 -18 -108 -54c-28.667 -36.667 -43 -83 -43 -139c0 -50 11.667 -98.333 35 -145
c22.667 -46 50.667 -79.333 84 -100v-104h-318v136h127v4c-31.333 24.667 -57 54.667 -77 90c-25.333 44 -38 92 -38 144c0 86 31.333 159 94 219c64.667 61.333 147 92 247 92c52 0 99.667 -8.66699 143 -26c39.333 -16 73.666 -38.667 102.999 -68
c56 -57.333 84 -125.666 84 -204.999c0 -30 -4 -58.667 -12 -86c-6.66699 -24 -16.334 -47 -29.001 -69c-10.667 -18.667 -23.334 -36.334 -38.001 -53.001c-12 -13.333 -25 -26 -39 -38v-4z" />
    <glyph glyph-name="Omega" unicode="&#x2126;" horiz-adv-x="761" 
d="M598 136l130.003 -0.000976562v-136h-317v104c36 28.667 64 61.334 84 98.001c23.333 44 35 93.333 35 148c0 55.333 -13.333 101 -40 137c-28 36.667 -63.667 55 -107 55c-44 0 -80 -18 -108 -54c-28.667 -36.667 -43 -83 -43 -139c0 -50 11.667 -98.333 35 -145
c22.667 -46 50.667 -79.333 84 -100v-104h-318v136h127v4c-31.333 24.667 -57 54.667 -77 90c-25.333 44 -38 92 -38 144c0 86 31.333 159 94 219c64.667 61.333 147 92 247 92c52 0 99.667 -8.66699 143 -26c39.333 -16 73.666 -38.667 102.999 -68
c56 -57.333 84 -125.666 84 -204.999c0 -30 -4 -58.667 -12 -86c-6.66699 -24 -16.334 -47 -29.001 -69c-10.667 -18.667 -23.334 -36.334 -38.001 -53.001c-12 -13.333 -25 -26 -39 -38v-4z" />
    <glyph glyph-name="Iotadieresis" unicode="&#x3aa;" horiz-adv-x="305" 
d="M46 715c-51.333 0 -77 25.333 -77 76s26 76 78 76c48.667 0 73 -25.333 73 -76s-24.333 -76 -73 -76h-1zM259 715c-50 0 -75 25.333 -75 76s25.333 76 76 76c50 0 75 -25.333 75 -76s-25 -76 -75 -76h-1zM243 674v-674h-181v674h181z" />
    <glyph glyph-name="Upsilondieresis" unicode="&#x3ab;" horiz-adv-x="642" 
d="M218 698c-51.333 0 -77 25.333 -77 76s26 76 78 76c48.667 0 73 -25.333 73 -76s-24.333 -76 -73 -76h-1zM431 698c-50 0 -75 25.333 -75 76s25.333 76 76 76c50 0 75 -25.333 75 -76s-25 -76 -75 -76h-1zM35 680c34.667 0 69.333 -6.66699 104 -20
c41.333 -16 76 -39.333 104 -70c45.333 -47.333 72.333 -115 81 -203h8c10 77.333 38.667 142.333 86 195c59.333 65.333 122.333 98 189 98l27 -154c-50 -12.667 -95 -44 -135 -94c-36.667 -46.667 -62 -99.667 -76 -159c-10.667 -48.667 -16 -94.667 -16 -138v-135h-181
v135c0 46 -3 89.667 -9 131c-11.333 70.667 -32 127.667 -62 171c-36 52 -85 83.333 -147 94z" />
    <glyph glyph-name="alphatonos" unicode="&#x3ac;" horiz-adv-x="597" 
d="M441 706l-80 -156h-116l42 156h154zM551 492c-4 -48.667 -7.33301 -99.333 -10 -152c-2.66699 -60.667 -4 -112.667 -4 -156c0 -44 14.667 -64 44 -60l-9 -124c-10.667 -7.33301 -31.667 -11 -63 -11c-60 0 -98.667 28 -116 84h-2c-32.667 -56 -84 -84 -154 -84
c-58 0 -106.333 22 -145 66c-40.667 46.667 -61 106.667 -61 180c0 80 23.667 145.667 71 197c44 47.333 95.333 71 154 71s101 -22 127 -66h4l13 55h151zM214 244.001c0 -75.333 24.667 -113.001 74 -113.001c40 0 63.667 26 71 78c2 14 3 27.333 3 40
c0 16.667 -0.333008 28.334 -1 35.001c-8 54.667 -31 82 -69 82c-24 0 -43.333 -12.333 -58 -37c-13.333 -22.667 -20 -50.667 -20 -84v-1z" />
    <glyph glyph-name="epsilontonos" unicode="&#x3ad;" horiz-adv-x="481" 
d="M394 706l-79 -156h-117l43 156h153zM133 262c-53.333 19.333 -80 53.334 -80 102.001c0 37.333 17.667 69 53 95c40.667 29.333 97 44 169 44c68 0 125 -12.333 171 -37l-30 -113c-34.667 17.333 -72 26 -112 26c-46.667 0 -70 -11.667 -70 -35
c0 -20.667 34.333 -31.334 103 -32.001h43v-115h-42c-36.667 -0.666992 -63.334 -3 -80.001 -7c-21.333 -5.33301 -32 -14.333 -32 -27c0 -14.667 8.66699 -25.667 26 -33c14.667 -6 33.667 -9 57 -9c44 0 86.333 9.33301 127 28l23 -115
c-26.667 -16.667 -60 -28.667 -100 -36c-31.333 -6 -64.333 -9 -99 -9c-63.333 0 -115.333 11.333 -156 34c-48.667 26.667 -73 66 -73 118c0 29.333 10.333 55 31 77c18.667 19.333 42.334 32.333 71.001 39v5z" />
    <glyph glyph-name="etatonos" unicode="&#x3ae;" horiz-adv-x="599" 
d="M437 706l-80 -156h-117l43 156h154zM218 429c5.33301 8 11.667 15.665 19 22.998c9.33301 8.66699 19.666 16.667 30.999 24c29.333 18 62 27 98 27c118.667 0 178 -71 178 -213v-366c0 -17.333 0.333008 -32.666 1 -45.999c1.33301 -34.667 4.33301 -60 9 -76h-172
c-6.66699 10 -11.667 33 -15 69c-2.66699 28 -4 62 -4 102v295c0 60 -21 90 -63 90c-16 0 -29.333 -4.66699 -40 -14c-7.33301 -7.33301 -13.666 -17 -18.999 -29c-3.33301 -7.33301 -5 -19.666 -5 -36.999v-278h-181v324c0 76.667 -5.33301 132.667 -16 168h158
c11.333 -20 17.333 -41 18 -63h3z" />
    <glyph glyph-name="iotatonos" unicode="&#x3af;" horiz-adv-x="299" 
d="M285 707l-80 -156h-119l43 156h156zM236 168c0 -32 15 -46.333 45 -43l-9 -124c-14 -8 -39 -12 -75 -12c-48 0 -83 11.333 -105 34c-24.667 25.333 -37 68 -37 128v341h181v-324z" />
    <glyph glyph-name="upsilondieresistonos" unicode="&#x3b0;" horiz-adv-x="573" 
d="M500 492c10 -20.667 18.332 -45.335 24.999 -74.002c8 -35.333 12 -72.666 12 -111.999c0 -41.333 -4.33301 -80 -13 -116c-10 -39.333 -24.667 -73 -44 -101c-22 -31.333 -49 -55.666 -81 -72.999c-35.333 -18 -76.666 -27 -123.999 -27
c-66.667 0 -120.667 17.667 -162 53c-44 38.667 -66 93.334 -66 164.001v123c0 38.667 -0.666992 70 -2 94c-2 30 -5.66699 53 -11 69h177c11.333 -12 17 -44.667 17 -98v-178c0 -54.667 20.667 -82 62 -82c25.333 0 44 17 56 51c10 27.333 15 64.333 15 111
c0 37.333 -3.33301 76.666 -10 117.999c-5.33301 33.333 -11.333 59.333 -18 78h167zM364.999 725.999l-58 -180h-90l22 180h126zM121.999 548.999c-46 0 -69 23 -69 69c0 45.333 23.333 68 70 68c44.667 0 67 -22.667 67 -68c0 -46 -22.333 -69 -67 -69h-1z
M438.999 548.999c-44.667 0 -67 23 -67 69c0 45.333 22.667 68 68 68s68 -22.667 68 -68c0 -46 -22.667 -69 -68 -69h-1z" />
    <glyph glyph-name="alpha" unicode="&#x3b1;" horiz-adv-x="596" 
d="M551 492c-4 -48.667 -7.33301 -99.333 -10 -152c-2.66699 -60.667 -4 -112.667 -4 -156c0 -44 14.667 -64 44 -60l-9 -124c-10.667 -7.33301 -31.667 -11 -63 -11c-60 0 -98.667 28 -116 84h-2c-32.667 -56 -84 -84 -154 -84c-58 0 -106.333 22 -145 66
c-40.667 46.667 -61 106.667 -61 180c0 80 23.667 145.667 71 197c44 47.333 95.333 71 154 71s101 -22 127 -66h4l13 55h151zM214 244.001c0 -75.333 24.667 -113.001 74 -113.001c40 0 63.667 26 71 78c2 14 3 27.333 3 40c0 16.667 -0.333008 28.334 -1 35.001
c-8 54.667 -31 82 -69 82c-24 0 -43.333 -12.333 -58 -37c-13.333 -22.667 -20 -50.667 -20 -84v-1z" />
    <glyph glyph-name="beta" unicode="&#x3b2;" horiz-adv-x="599" 
d="M227 26l-0.000976562 -53c0 -37.333 0.666992 -68.333 2 -93c2 -33.333 5.66699 -59.333 11 -78h-168c-6.66699 13.333 -11.667 37 -15 71c-3.33301 30 -5 63.333 -5 100v432c0 68.667 7.66699 124.334 23 167.001c12.667 34.667 32 63.667 58 87
c21.333 19.333 45 34 71 44c30.667 12 64.667 18 102 18c66.667 0 119.334 -18.667 158.001 -56c34.667 -34.667 52 -78.334 52 -131.001c0 -27.333 -6 -54 -18 -80c-14 -30.667 -33.667 -52.667 -59 -66v-6c34.667 -8.66699 64.667 -29.667 90 -63
c26 -34.667 39 -73.667 39 -117c0 -62 -20 -113 -60 -153s-91.333 -60 -154 -60c-53.333 0 -95 12.333 -125 37h-2zM225.999 161c22.667 -25.333 49 -38.001 79 -38.001c28 0 49 9.33301 63 28c12 15.333 18 35 18 59c0 56 -29.333 87.667 -88 95
c-2.66699 0.666992 -6 0.666992 -10 0h-10v108c4.66699 0 10 1 16 3c40.667 10.667 61 40.334 61 89.001c0 51.333 -19.333 77 -58 77c-22 0 -38.667 -9.66699 -50 -29c-14 -23.333 -21 -61 -21 -113v-279z" />
    <glyph glyph-name="gamma" unicode="&#x3b3;" horiz-adv-x="536" 
d="M168 -198c0.666992 26.667 0.999023 50.334 0.999023 71.001c0 24.667 -0.666992 47.667 -2 69c-2.66699 48.667 -8 94.334 -16 137.001c-7.33301 38.667 -18 78.667 -32 120c-12 36.667 -26 74 -42 112c-14.667 32.667 -30.667 65.667 -48 99
c-14 27.333 -29 54.666 -45 81.999h199c44.667 -68.667 79.334 -174.334 104.001 -317.001h5c16 40.667 28.667 82.334 38 125.001c11.333 51.333 17 99.333 17 144l-1 48h171l2 -20v-20c0 -61.333 -15.667 -131 -47 -209c-30 -74.667 -72 -150.334 -126 -227.001
c-4.66699 -5.33301 -7 -13.333 -7 -24l3 -190h-174z" />
    <glyph glyph-name="delta" unicode="&#x3b4;" horiz-adv-x="589" 
d="M472 561c-12 7.33301 -28.333 14.334 -49 21.001c-27.333 8.66699 -52 13 -74 13c-28 0 -42 -6 -42 -18c0 -6.66699 16.333 -23.334 49 -50.001l82 -66c79.333 -64 119 -136.667 119 -218c0 -76 -26 -137.667 -78 -185c-50.667 -46 -114 -69 -190 -69
c-74 0 -135.333 22.333 -184 67c-49.333 46 -74 104.333 -74 175c0 55.333 17 104 51 146c14.667 17.333 31.667 33.333 51 48c16.667 12 34.667 22.667 54 32v4l-32 33c-6.66699 8 -12 15.667 -16 23c-13.333 20.667 -20 41.667 -20 63c0 37.333 18.333 69.333 55 96
c39.333 30 91.333 45 156 45c40 0 78.333 -5.66699 115 -17c29.333 -8.66699 53.333 -19.667 72 -33zM283 373.001c-44.667 -29.333 -67 -75.668 -67 -139.001c0 -31.333 7.66699 -58.333 23 -81c16 -24.667 36.333 -37 61 -37c50.667 0 76 37 76 111
c0 42.667 -17 79.334 -51 110.001z" />
    <glyph glyph-name="epsilon" unicode="&#x3b5;" horiz-adv-x="481" 
d="M133 262c-53.333 19.333 -80 53.334 -80 102.001c0 37.333 17.667 69 53 95c40.667 29.333 97 44 169 44c69.333 0 126.333 -12.333 171 -37l-30 -113c-34.667 17.333 -72 26 -112 26c-46.667 0 -70 -11.667 -70 -35c0 -20.667 34.333 -31.334 103 -32.001h43v-115h-42
c-36.667 -0.666992 -63.334 -3 -80.001 -7c-21.333 -5.33301 -32 -14.333 -32 -27c0 -14.667 8.66699 -25.667 26 -33c14.667 -6 33.667 -9 57 -9c44 0 86.333 9.33301 127 28l23 -115c-26.667 -16.667 -60 -28.667 -100 -36c-31.333 -6 -64.333 -9 -99 -9
c-63.333 0 -115.333 11.333 -156 34c-48.667 26.667 -73 66 -73 118c0 29.333 10.333 55 31 77c18.667 19.333 42.334 32.333 71.001 39v5z" />
    <glyph glyph-name="zeta" unicode="&#x3b6;" horiz-adv-x="456" 
d="M260 -121c14 34.667 21.668 66.001 23.001 94.001c-17.333 3.33301 -34 7 -50 11c-21.333 5.33301 -41 11.666 -59 18.999c-40.667 16.667 -73 40.667 -97 72c-29.333 38.667 -44 87.334 -44 146.001c0 128 61.333 246.333 184 355v5h-37c-48.667 0 -85 4.66699 -109 14
l16 113c14 -1.33301 34.667 -2.33301 62 -3h279l25 -116c-61.333 -25.333 -115.333 -70 -162 -134c-48.667 -67.333 -73 -134 -73 -200c0 -60.667 22.667 -103 68 -127c18.667 -10.667 42.667 -19.334 72 -26.001c11.333 -3.33301 24.666 -6.33301 39.999 -9l39 -6
c7.33301 -1.33301 11 -6.33301 11 -15c0 -87.333 -26.333 -163.333 -79 -228z" />
    <glyph glyph-name="eta" unicode="&#x3b7;" horiz-adv-x="599" 
d="M218 429c5.33301 8 11.667 15.665 19 22.998c9.33301 8.66699 19.666 16.667 30.999 24c29.333 18 62 27 98 27c118.667 0 178 -71 178 -213v-366c0 -17.333 0.333008 -32.666 1 -45.999c1.33301 -34.667 4.33301 -60 9 -76h-172c-6.66699 10 -11.667 33 -15 69
c-2.66699 28 -4 62 -4 102v295c0 60 -21 90 -63 90c-16 0 -29.333 -4.66699 -40 -14c-7.33301 -7.33301 -13.666 -17 -18.999 -29c-3.33301 -7.33301 -5 -19.666 -5 -36.999v-278h-181v324c0 76.667 -5.33301 132.667 -16 168h158c11.333 -20 17.333 -41 18 -63h3z" />
    <glyph glyph-name="theta" unicode="&#x3b8;" horiz-adv-x="586" 
d="M291 -11c-173.333 0 -260.002 123.667 -260.002 371c0 106.667 22.333 192.334 67 257.001c48 69.333 115.333 104 202 104c84.667 0 149.334 -33.667 194.001 -101c40.667 -62.667 61 -149.334 61 -260.001c0 -115.333 -21.333 -205 -64 -269
c-45.333 -68 -111.666 -102 -198.999 -102h-1zM375.998 423c0 52 -7 93.667 -21 125c-14.667 32.667 -34.667 49 -60 49c-28 0 -49.667 -16.333 -65 -49c-14 -31.333 -21 -73 -21 -125h167zM209.998 296c0 -56.667 6.66602 -100.667 19.999 -132
c14.667 -34 36.334 -51 65.001 -51s50 17 64 51c13.333 30.667 20 74.667 20 132h-169z" />
    <glyph glyph-name="iota" unicode="&#x3b9;" horiz-adv-x="299" 
d="M236 168c0 -32 15 -46.333 45 -43l-9 -124c-14 -8 -39 -12 -75 -12c-48 0 -83 11.333 -105 34c-24.667 25.333 -37 68 -37 128v341h181v-324z" />
    <glyph glyph-name="kappa" unicode="&#x3ba;" horiz-adv-x="571" 
d="M386 265c20.667 -5.33301 39.999 -19.668 57.999 -43.001c12.667 -17.333 28.667 -44.666 48 -81.999l75 -140h-207l-45 96c-29.333 62.667 -53.666 95 -72.999 97h-6v-193h-181v359c0 28 -1.33301 54.667 -4 80c-2.66699 28 -6 45.667 -10 53h177c12 -12 18 -42 18 -90
v-109h2c18 26.667 39 60 63 100l57 99h202v-6l-130 -162l-44 -54v-5z" />
    <glyph glyph-name="lambda" unicode="&#x3bb;" horiz-adv-x="538" 
d="M291 198c-7.33301 25.333 -16.001 59.668 -26.001 103.001h-6c-5.33301 -33.333 -12 -67 -20 -101l-49 -200h-188l170 450c2 6 3.33301 11.333 4 16c0.666992 3.33301 1 6.66602 1 9.99902s-0.666992 7.33301 -2 12c-0.666992 4 -2 8.66699 -4 14
c-18 48 -48.667 72 -92 72h-24l16 137c14.667 4 33.667 6 57 6c54.667 0 101.334 -21.667 140.001 -65c16.667 -18.667 32.667 -42 48 -70c12.667 -24 25 -52.667 37 -86l184 -496h-192z" />
    <glyph glyph-name="mu.001" unicode="&#x3bc;" horiz-adv-x="598" 
d="M382 64c-8 -19.333 -21 -35.332 -39 -47.999c-21.333 -14.667 -45.666 -22 -72.999 -22c-20.667 0 -38.334 6.33301 -53.001 19v-35c0 -30.667 0.666992 -62 2 -94c2 -38 4.66699 -65.333 8 -82h-159c-4 10 -7.33301 33.333 -10 70c-2 32 -3 67.333 -3 106v514h181v-268
c0 -61.333 19.333 -92 58 -92c31.333 0 52.333 14 63 42c2.66699 7.33301 4 16.666 4 27.999v290h181v-322c0 -30 13 -45.667 39 -47l-9 -122c-12.667 -8 -34.334 -12 -65.001 -12c-61.333 0 -101.666 25 -120.999 75h-4z" />
    <glyph glyph-name="nu" unicode="&#x3bd;" horiz-adv-x="529" 
d="M191 492l53.999 -209l26 -118h5c20 44.667 35.333 91.334 46 140.001c12 51.333 18 101.333 18 150c0 15.333 -0.333008 27.666 -1 36.999h170c1.33301 -8.66699 2 -21.667 2 -39c0 -64.667 -17 -138.667 -51 -222c-15.333 -36.667 -33.666 -75.334 -54.999 -116.001
c-18.667 -35.333 -40.667 -73.666 -66 -114.999h-175l-167 492h194z" />
    <glyph glyph-name="xi" unicode="&#x3be;" horiz-adv-x="489" 
d="M411 317l-27.9971 0.00292969c-106.667 0 -160 -33.667 -160 -101c0 -49.333 40.667 -84.333 122 -105c39.333 -9.33301 80.666 -17.333 123.999 -24c8.66699 -0.666992 13 -5.33398 13 -14.001c0 -32.667 -7.66699 -72 -23 -118c-16 -47.333 -34.667 -84 -56 -110
l-110 35c12 28 18.667 59 20 93c-16.667 2.66699 -31.334 5.33398 -44.001 8.00098c-17.333 3.33301 -33 7 -47 11c-36 10 -66.667 22.333 -92 37c-30.667 17.333 -54.334 38.666 -71.001 63.999c-18.667 28.667 -28 62.667 -28 102c0 102 50 167.333 150 196v6
c-68 28 -102 75.667 -102 143c0 51.333 20.333 93.666 61 126.999c44 36 104 54 180 54c31.333 0 59.333 -2.33301 84 -7c20 -4.66699 40.667 -11.334 62 -20.001l-27 -115c-28 11.333 -56.667 17 -86 17c-62 0 -93 -26 -93 -78c0 -46 41.333 -72.667 124 -80
c6 -0.666992 15 -1 27 -1v-120z" />
    <glyph glyph-name="omicron" unicode="&#x3bf;" horiz-adv-x="589" 
d="M292 -11c-76 0 -138 22.334 -186 67.001c-50 46 -75 108 -75 186c0 79.333 24.333 142.333 73 189c48.667 48 114.667 72 198 72c76.667 0 138.667 -23.333 186 -70c46.667 -46.667 70 -107.334 70 -182.001c0 -84.667 -27 -150.667 -81 -198
c-48.667 -42.667 -110 -64 -184 -64h-1zM297 116.001c50 0 75 43.335 75 130.002c0 37.333 -6 67.666 -18 90.999c-13.333 26 -32.333 39 -57 39c-28 0 -48.667 -13.667 -62 -41c-12 -22.667 -18 -52.334 -18 -89.001c0 -86.667 26.333 -130 79 -130h1z" />
    <glyph glyph-name="pi" unicode="&#x3c0;" horiz-adv-x="620" 
d="M534 356l0.00292969 -199.002c0 -64 3.66699 -116.333 11 -157h-172c-6.66699 9.33301 -11.334 29 -14.001 59c-2.66699 24.667 -4 53.334 -4 86.001v211h-82c-0.666992 -59.333 -5.33398 -122.666 -14.001 -189.999c-9.33301 -75.333 -21 -130.666 -35 -165.999h-173
c14 50.667 25.667 110.667 35 180c9.33301 72 13.333 130.667 12 176h-19c-8 0 -15.333 -0.333008 -22 -1c-16.667 -0.666992 -30.667 -2.33398 -42 -5.00098l-17 105c23.333 24.667 86.666 37 189.999 37h418l-16 -136h-56z" />
    <glyph glyph-name="rho" unicode="&#x3c1;" horiz-adv-x="604" 
d="M232 27l-0.00292969 -103.003c0 -17.333 0.333008 -32.666 1 -45.999c0.666992 -34.667 2.33398 -60 5.00098 -76h-175c-3.33301 10.667 -6.33301 33.667 -9 69c-2 33.333 -3 67.333 -3 102v221c0 68.667 11 125.334 33 170.001c8.66699 18.667 19.667 35.334 33 50.001
c10.667 12.667 23.334 24.667 38.001 36c48 35.333 103.667 53 167 53c75.333 0 136 -23.667 182 -71s69 -109.333 69 -186c0 -80.667 -24.667 -145 -74 -193c-44 -42.667 -96 -64 -156 -64c-49.333 0 -85.666 12.667 -108.999 38h-2zM231.997 197.997
c0 -8.66699 1 -17.667 3 -27c12 -30 35.333 -45 70 -45c56.667 0 85 39 85 117c0 74.667 -26 112 -78 112c-53.333 0 -80 -40.667 -80 -122v-35z" />
    <glyph glyph-name="sigma1" unicode="&#x3c2;" horiz-adv-x="475" 
d="M425 351c-28.667 11.333 -57.668 16.999 -87.001 16.999c-80.667 0 -121 -43.667 -121 -131c0 -56 29.333 -94 88 -114c20 -6.66699 43.667 -13 71 -19l74 -15c5.33301 -1.33301 8 -6 8 -14c0 -38 -7.66699 -80.667 -23 -128c-16 -47.333 -34 -82 -54 -104l-111 36
c4.66699 9.33301 9.33398 24.333 14.001 45c4 18 7 34 9 48l-29 7c-13.333 2.66699 -25.666 6 -36.999 10c-58.667 16 -104.334 41.667 -137.001 77c-39.333 41.333 -59 95 -59 161c0 74.667 25.667 138.334 77 191.001c55.333 56.667 128.666 85 219.999 85
c52.667 0 96.334 -8.66699 131.001 -26z" />
    <glyph glyph-name="sigma" unicode="&#x3c3;" horiz-adv-x="612" 
d="M496 376c17.333 -17.333 31 -39.666 41 -66.999c8 -23.333 12 -46 12 -68c0 -82.667 -25.667 -146.334 -77 -191.001c-46 -40.667 -105.667 -61 -179 -61c-76.667 0 -138.667 21.667 -186 65c-50.667 45.333 -76 107 -76 185c0 80 24.667 143.667 74 191
c50 48.667 118.667 73 206 73h292l-8 -129c-28 0 -60.333 2.33301 -97 7zM297 116c50 0 75.001 43.335 75.001 130.002c0 37.333 -5.33301 67.666 -16 90.999c-12.667 26 -31.334 39 -56.001 39c-29.333 0 -51 -13.667 -65 -41c-12 -22.667 -18 -52.334 -18 -89.001
c0 -86.667 26.333 -130 79 -130h1z" />
    <glyph glyph-name="tau" unicode="&#x3c4;" horiz-adv-x="469" 
d="M377 2c-16 -8.66699 -42.333 -13.001 -79 -13.001c-59.333 0 -101.666 15.667 -126.999 47c-22.667 28 -34 73.333 -34 136v184h-36c-38 0 -67.667 -2 -89 -6l-23 106c3.33301 2.66699 6.66602 4.66699 9.99902 6c4 2.66699 8 5 12 7
c10 4.66699 21.667 8.33398 35 11.001c32 8 76.333 12 133 12h281l-17 -136h-125v-170c0 -39.333 15.667 -59 47 -59h19z" />
    <glyph glyph-name="upsilon" unicode="&#x3c5;" horiz-adv-x="573" 
d="M500 492c10 -20.667 18.332 -45.335 24.999 -74.002c8 -35.333 12 -72.666 12 -111.999c0 -41.333 -4.33301 -80 -13 -116c-10 -39.333 -24.667 -73 -44 -101c-22 -31.333 -49 -55.666 -81 -72.999c-35.333 -18 -76.666 -27 -123.999 -27
c-66.667 0 -120.667 17.667 -162 53c-44 38.667 -66 93.334 -66 164.001v123c0 38.667 -0.666992 70 -2 94c-2 30 -5.66699 53 -11 69h177c11.333 -12 17 -44.667 17 -98v-178c0 -54.667 20.667 -82 62 -82c25.333 0 44 17 56 51c10 27.333 15 64.333 15 111
c0 37.333 -3.33301 76.666 -10 117.999c-5.33301 33.333 -11.333 59.333 -18 78h167z" />
    <glyph glyph-name="phi" unicode="&#x3c6;" horiz-adv-x="741" 
d="M282 409c-20 -15.333 -36.333 -35.333 -49 -60c-15.333 -29.333 -23 -61.333 -23 -96c0 -79.333 28.333 -127 85 -143v206c0 64 19 112.667 57 146c33.333 29.333 74.666 43 123.999 41c64 -2 118.333 -25 163 -69c46.667 -47.333 70 -106.666 70 -177.999
c0 -77.333 -27.333 -141 -82 -191c-48.667 -44 -106.667 -69.333 -174 -76v-187h-158v187c-73.333 6.66699 -133.666 30.334 -180.999 71.001c-55.333 47.333 -83 110.666 -83 189.999c0 33.333 6.33301 65.333 19 96c10.667 27.333 26 52.666 46 75.999
c36 42 76 69.333 120 82zM452 108c58.667 14.667 88 62.667 88 144c0 36.667 -7.33301 68 -22 94c-14 24 -29.333 36 -46 36c-13.333 0 -20 -9 -20 -27v-247z" />
    <glyph glyph-name="chi" unicode="&#x3c7;" horiz-adv-x="524" 
d="M192 492l83 -204h4c6 17.333 15.333 43 28 77l49 127h170l-168 -335l167 -350l-171 -38l-103 237h-6l-17 -49l-80 -188l-153 39l172 349l-168 335h193z" />
    <glyph glyph-name="psi" unicode="&#x3c8;" horiz-adv-x="758" 
d="M305 -11c-35.333 2.66699 -66.999 8.66895 -94.999 18.002c-31.333 10.667 -58.333 25.667 -81 45c-24.667 22 -43.667 49.667 -57 83c-14 36 -21 78.667 -21 128v98c0 29.333 -0.333008 53.333 -1 72c-1.33301 22.667 -3.33301 42.334 -6 59.001h164
c10 -11.333 15 -44 15 -98v-117c0 -57.333 8 -99.333 24 -126c13.333 -22.667 32.666 -35.334 57.999 -38.001v507h158v-507c30.667 0.666992 54 20 70 58c13.333 31.333 20 70.666 20 117.999c0 44 -3.66699 87.333 -11 130l-10 45
c-3.33301 11.333 -6.33301 20.666 -9 27.999h159c12 -24 21.333 -49.667 28 -77c8.66699 -34.667 13 -73 13 -115c0 -84 -19.333 -153 -58 -207c-44.667 -63.333 -112 -98 -202 -104v-187h-158v187z" />
    <glyph glyph-name="omega" unicode="&#x3c9;" horiz-adv-x="750" 
d="M454 206c0 -44 11.333 -66.001 34 -66.001c37.333 0 56 44.333 56 133c0 40 -5.33301 78.667 -16 116c-11.333 40.667 -27.666 74 -48.999 100v3h162c20 -20 37.333 -49 52 -87c17.333 -45.333 26 -92.333 26 -141c0 -84 -20.333 -151.333 -61 -202
c-39.333 -48.667 -90 -73 -152 -73c-64 0 -108.333 24.667 -133 74h-4c-32.667 -49.333 -77 -74 -133 -74c-56.667 0 -104.334 22.333 -143.001 67c-41.333 48 -62 112.667 -62 194c0 52.667 8.66699 101.667 26 147c13.333 36 31.333 67.667 54 95h161v-3
c-44.667 -61.333 -67 -136.666 -67 -225.999c0 -82 17.667 -123 53 -123c23.333 0 34.333 22 33 66l-2 173h168z" />
    <glyph glyph-name="iotadieresis" unicode="&#x3ca;" horiz-adv-x="299" 
d="M44 543c-52 0 -78 25.667 -78 77s26.333 77 79 77c49.333 0 74 -25.667 74 -77s-24.667 -77 -74 -77h-1zM257 543c-50 0 -75 25.667 -75 77s25.333 77 76 77s76 -25.667 76 -77s-25.333 -77 -76 -77h-1zM237 168c0 -32 15 -46.333 45 -43l-9 -124c-14 -8 -39 -12 -75 -12
c-48 0 -83 11.333 -105 34c-24.667 25.333 -37 68 -37 128v341h181v-324z" />
    <glyph glyph-name="upsilondieresis" unicode="&#x3cb;" horiz-adv-x="573" 
d="M171 543c-51.333 0 -77 25.667 -77 77s26 77 78 77c49.333 0 74 -25.667 74 -77s-24.667 -77 -74 -77h-1zM384 543c-50.667 0 -76 25.667 -76 77s25.667 77 77 77c50.667 0 76 -25.667 76 -77s-25.333 -77 -76 -77h-1zM500 492c10 -20.667 18.332 -45.335 24.999 -74.002
c8 -35.333 12 -72.666 12 -111.999c0 -41.333 -4.33301 -80 -13 -116c-10 -39.333 -24.667 -73 -44 -101c-22 -31.333 -49 -55.666 -81 -72.999c-35.333 -18 -76.666 -27 -123.999 -27c-66.667 0 -120.667 17.667 -162 53c-44 38.667 -66 93.334 -66 164.001v123
c0 38.667 -0.666992 70 -2 94c-2 30 -5.66699 53 -11 69h177c11.333 -12 17 -44.667 17 -98v-178c0 -54.667 20.667 -82 62 -82c25.333 0 44 17 56 51c10 27.333 15 64.333 15 111c0 37.333 -3.33301 76.666 -10 117.999c-5.33301 33.333 -11.333 59.333 -18 78h167z" />
    <glyph glyph-name="omicrontonos" unicode="&#x3cc;" horiz-adv-x="589" 
d="M433 706l-79 -156h-117l43 156h153zM292 -11c-76 0 -138 22.334 -186 67.001c-50 46 -75 108 -75 186c0 79.333 24.333 142.333 73 189c48.667 48 114.667 72 198 72c76.667 0 138.667 -23.333 186 -70c46.667 -46.667 70 -107.334 70 -182.001
c0 -84.667 -27 -150.667 -81 -198c-48.667 -42.667 -110 -64 -184 -64h-1zM297 116.001c50 0 75 43.335 75 130.002c0 37.333 -6 67.666 -18 90.999c-13.333 26 -32.333 39 -57 39c-28 0 -48.667 -13.667 -62 -41c-12 -22.667 -18 -52.334 -18 -89.001
c0 -86.667 26.333 -130 79 -130h1z" />
    <glyph glyph-name="upsilontonos" unicode="&#x3cd;" horiz-adv-x="573" 
d="M419 707l-79 -156h-118l42 156h155zM500 492c10 -20.667 18.332 -45.335 24.999 -74.002c8 -35.333 12 -72.666 12 -111.999c0 -41.333 -4.33301 -80 -13 -116c-10 -39.333 -24.667 -73 -44 -101c-22 -31.333 -49 -55.666 -81 -72.999
c-35.333 -18 -76.666 -27 -123.999 -27c-66.667 0 -120.667 17.667 -162 53c-44 38.667 -66 93.334 -66 164.001v123c0 38.667 -0.666992 70 -2 94c-2 30 -5.66699 53 -11 69h177c11.333 -12 17 -44.667 17 -98v-178c0 -54.667 20.667 -82 62 -82c25.333 0 44 17 56 51
c10 27.333 15 64.333 15 111c0 37.333 -3.33301 76.666 -10 117.999c-5.33301 33.333 -11.333 59.333 -18 78h167z" />
    <glyph glyph-name="omegatonos" unicode="&#x3ce;" horiz-adv-x="750" 
d="M514 706l-80 -156h-116l43 156h153zM455 206c0 -44 11.333 -66 34 -66c37.333 0 56 44.333 56 133c0 40 -5.33301 78.667 -16 116c-11.333 40.667 -27.666 74 -48.999 100v3h162c20 -20 37.333 -49 52 -87c17.333 -45.333 26 -92.333 26 -141
c0 -84 -20.333 -151.333 -61 -202c-39.333 -48.667 -90 -73 -152 -73c-64 0 -108.333 24.667 -133 74h-4c-14.667 -22 -32.667 -39.333 -54 -52c-24 -14.667 -50.667 -22 -80 -22c-56.667 0 -104.334 22.333 -143.001 67c-41.333 48 -62 112.667 -62 194
c0 52.667 8.66699 101.667 26 147c13.333 36 31.333 67.667 54 95h162v-3c-45.333 -60.667 -68 -136 -68 -226c0 -82 18 -123 54 -123c23.333 0 34.333 22 33 66l-2 173h168z" />
    <glyph glyph-name="afii10023" unicode="&#x401;" horiz-adv-x="552" 
d="M485 272h-242v-124h271v-148h-452v674h438v-148h-257v-108h242v-146zM171 709c-51.333 0 -77 25.667 -77 77c0 50.667 26 76 78 76c49.333 0 74 -25.333 74 -76c0 -51.333 -24.667 -77 -74 -77h-1zM388 709c-50.667 0 -76 25.667 -76 77c0 50.667 25.667 76 77 76
c50 0 75 -25.333 75 -76c0 -51.333 -25 -77 -75 -77h-1z" />
    <glyph glyph-name="afii10051" unicode="&#x402;" horiz-adv-x="747" 
d="M601 674l-0.000976562 -148.002h-229v-98h4c29.333 16 66.333 24 111 24c36.667 0 69.334 -7.33301 98.001 -22c24.667 -13.333 47 -32.666 67 -57.999c41.333 -49.333 62 -116.666 62 -201.999c0 -142.667 -54.667 -238 -164 -286c-38 -24 -77 -37.667 -117 -41l-27 149
c16.667 4 31 8.66699 43 14c14.667 6.66699 26.667 15 36 25c26 24.667 39 67 39 127c0 54 -9.33301 92.667 -28 116c-16.667 21.333 -39.334 32 -68.001 32c-11.333 0 -22.333 -1.66699 -33 -5l-13 -6c-3.33301 -1.33301 -6.66602 -3 -9.99902 -5v-290h-181v526h-169v148
h579z" />
    <glyph glyph-name="afii10052" unicode="&#x403;" horiz-adv-x="514" 
d="M492 674v-148h-249v-526h-181v674h430zM454 836l-120 -126h-144l81 126h183z" />
    <glyph glyph-name="afii10053" unicode="&#x404;" horiz-adv-x="603" 
d="M542 513c-16.667 7.33301 -35.667 13.332 -57 17.999c-25.333 6 -51 9 -77 9c-50.667 0 -92 -12.667 -124 -38c-28 -23.333 -46.667 -54.333 -56 -93h289v-140h-287c12.667 -88 76.667 -132 192 -132c45.333 0 85.666 7 120.999 21l26 -136
c-17.333 -8.66699 -40 -16 -68 -22c-34.667 -7.33301 -69.667 -11 -105 -11c-115.333 0 -205 31.667 -269 95c-62 60.667 -93 144.334 -93 251.001c0 96 29.333 176.333 88 241c31.333 34 69.333 60.333 114 79c48.667 20 103.334 30 164.001 30c38 0 74.667 -4 110 -12
c26 -6 48.333 -13.667 67 -23z" />
    <glyph glyph-name="afii10054" unicode="&#x405;" horiz-adv-x="561" 
d="M74 180c22.667 -12 48.3359 -21.668 77.0029 -29.001c34 -8.66699 66.667 -13 98 -13c61.333 0 92 18.333 92 55c0 27.333 -35.333 53 -106 77c-60.667 22 -106.667 48.333 -138 79c-34.667 34.667 -52 76 -52 124c0 61.333 24 111.333 72 150
c49.333 40.667 115.666 61 198.999 61c37.333 0 72.333 -3.33301 105 -10c27.333 -5.33301 53 -13.333 77 -24l-38 -145c-4 2 -8 3.66699 -12 5c-4.66699 2 -9.33398 3.66699 -14.001 5c-10.667 4.66699 -21.667 8.33398 -33 11.001c-28.667 7.33301 -57.667 11 -87 11
c-56.667 0 -85 -16.667 -85 -50c0 -22 40.333 -48.333 121 -79c116.667 -43.333 175 -111 175 -203c0 -62 -23.333 -112.333 -70 -151c-50.667 -42.667 -123 -64 -217 -64c-38 0 -76.333 4.33301 -115 13c-34.667 8 -62.334 17.333 -83.001 28z" />
    <glyph glyph-name="uni0406" unicode="&#x406;" horiz-adv-x="305" 
d="M243 674v-674h-181v674h181z" />
    <glyph glyph-name="afii10056" unicode="&#x407;" horiz-adv-x="305" 
d="M243 674v-674h-181v674h181zM45 709c-51.333 0 -77 25.667 -77 77c0 50.667 26 76 78 76c49.333 0 74 -25.333 74 -76c0 -51.333 -24.667 -77 -74 -77h-1zM262 709c-50.667 0 -76 25.667 -76 77c0 50.667 25.667 76 77 76c50 0 75 -25.333 75 -76
c0 -51.333 -25 -77 -75 -77h-1z" />
    <glyph glyph-name="afii10057" unicode="&#x408;" horiz-adv-x="429" 
d="M191 674h181.001v-416c0 -94.667 -22.333 -164 -67 -208c-42 -40.667 -105 -61 -189 -61c-47.333 0 -87 5.33301 -119 16l19 145c26.667 -7.33301 53 -11 79 -11c31.333 0 54.666 8.33301 69.999 25c17.333 18.667 26 50 26 94v416z" />
    <glyph glyph-name="afii10058" unicode="&#x409;" horiz-adv-x="972" 
d="M594 674l0.000976562 -234.002c25.333 3.33301 51.666 5 78.999 5c74.667 0 136.667 -18 186 -54c54 -39.333 81 -94.333 81 -165c0 -65.333 -23 -117.666 -69 -156.999c-32 -27.333 -74 -47.333 -126 -60c-44.667 -10.667 -96.667 -16 -156 -16c-38 0 -72.667 1 -104 3
c-26.667 2 -50 4.66699 -70 8v522h-115v-141c0 -98.667 -9 -175 -27 -229c-20.667 -62 -56 -106.667 -106 -134c-41.333 -22.667 -90.333 -34 -147 -34l-23 145c34 4.66699 60.667 17.334 80 38.001c31.333 34 47 102 47 204v299h470zM593.001 129.998
c8 -1.33301 16.001 -2.33301 24.001 -3h21c32 0 58.667 8.33301 80 25c22.667 17.333 34 41 34 71s-11 53 -33 69c-19.333 14 -45 21 -77 21c-8.66699 0 -17.334 -0.333008 -26.001 -1l-23 -3v-179z" />
    <glyph glyph-name="afii10059" unicode="&#x40a;" horiz-adv-x="978" 
d="M243 674v-243h178v243h179v-234c26.667 3.33301 53 5 79 5c77.333 0 140 -17.667 188 -53c52.667 -39.333 79 -94.333 79 -165c0 -66 -23 -118.667 -69 -158c-32 -27.333 -74 -47.333 -126 -60c-44.667 -11.333 -96.334 -17 -155.001 -17
c-75.333 0 -133.666 4 -174.999 12v276h-178v-280h-181v674h181zM600 130c17.333 -2 32.668 -3 46.001 -3c74.667 0 112 31.667 112 95c0 60.667 -36.667 91 -110 91c-8.66699 0 -17.334 -0.333008 -26.001 -1l-22 -3v-179z" />
    <glyph glyph-name="afii10060" unicode="&#x40b;" horiz-adv-x="755" 
d="M592 674v-147.999h-220v-110h4c38 24.667 84 37 138 37c58 0 103 -18 135 -54c32.667 -37.333 49 -91.333 49 -162v-237h-180v214c0 33.333 -6.66699 57.666 -20 72.999c-12.667 14 -30.667 21 -54 21c-28 0 -52 -8 -72 -24v-284h-181v526h-170v148h571z" />
    <glyph glyph-name="afii10061" unicode="&#x40c;" horiz-adv-x="633" 
d="M240 674l-0.00195312 -272h8l166 272h220l-227 -295c36.667 -11.333 66.334 -31 89.001 -59c20 -24 36.667 -56.667 50 -98c2 -7.33301 5 -16.666 9 -27.999l28 -84c14 -42.667 28 -79.334 42 -110.001h-194c-9.33301 19.333 -18 43 -26 71
c-3.33301 9.33301 -7 21.333 -11 36l-10 37c-11.333 40.667 -24.333 70.667 -39 90c-19.333 24.667 -44.666 37 -75.999 37h-29v-271h-178v674h178zM492.998 831l-120 -126h-144l81 126h183z" />
    </font>
</defs>
</svg>
